<svg width="469" height="115" viewBox="0 0 469 115" fill="none" xmlns="http://www.w3.org/2000/svg">
<mask id="path-1-outside-1_1_1606" maskUnits="userSpaceOnUse" x="-0.756104" y="-0.932007" width="470" height="116" fill="black">
<rect fill="white" x="-0.756104" y="-0.932007" width="470" height="116"/>
<path d="M15.8359 47.068V10.716H1.4999V2.26799H40.5399V10.716H26.2039V47.068H15.8359ZM46.1184 47.068V2.26799H65.5104C69.5211 2.26799 72.9771 2.92932 75.8784 4.25199C78.7797 5.53199 81.0197 7.38799 82.5984 9.81999C84.1771 12.252 84.9664 15.1533 84.9664 18.524C84.9664 21.852 84.1771 24.732 82.5984 27.164C81.0197 29.5533 78.7797 31.388 75.8784 32.668C72.9771 33.948 69.5211 34.588 65.5104 34.588H51.8784L56.4864 30.044V47.068H46.1184ZM74.5984 47.068L63.3984 30.812H74.4704L85.7984 47.068H74.5984ZM56.4864 31.196L51.8784 26.332H64.9344C68.1344 26.332 70.5237 25.6493 72.1024 24.284C73.6811 22.876 74.4704 20.956 74.4704 18.524C74.4704 16.0493 73.6811 14.1293 72.1024 12.764C70.5237 11.3987 68.1344 10.716 64.9344 10.716H51.8784L56.4864 5.78799V31.196ZM87.2929 47.068L107.261 2.26799H117.501L137.533 47.068H126.653L110.269 7.51599H114.365L97.9169 47.068H87.2929ZM97.2769 37.468L100.029 29.596H123.069L125.885 37.468H97.2769ZM149.211 47.068V10.716H134.875V2.26799H173.915V10.716H159.579V47.068H149.211ZM171.355 47.068L191.323 2.26799H201.563L221.595 47.068H210.715L194.331 7.51599H198.427L181.979 47.068H171.355ZM181.339 37.468L184.091 29.596H207.131L209.947 37.468H181.339ZM226.243 47.068V2.26799H234.819L253.891 33.884H249.347L268.099 2.26799H276.611L276.739 47.068H267.011L266.947 17.18H268.739L253.763 42.332H249.091L233.795 17.18H235.971V47.068H226.243ZM296.904 20.316H318.472V28.38H296.904V20.316ZM297.672 38.748H322.056V47.068H287.368V2.26799H321.224V10.588H297.672V38.748ZM330.306 47.068V2.26799H338.882L365.314 34.524H361.154V2.26799H371.394V47.068H362.882L336.386 14.812H340.546V47.068H330.306ZM391.273 47.068V10.716H376.937V2.26799H415.977V10.716H401.641V47.068H391.273ZM442.691 47.836C439.15 47.836 435.864 47.26 432.835 46.108C429.848 44.956 427.246 43.3347 425.027 41.244C422.851 39.1533 421.144 36.7 419.907 33.884C418.712 31.068 418.115 27.996 418.115 24.668C418.115 21.34 418.712 18.268 419.907 15.452C421.144 12.636 422.872 10.1827 425.091 8.09199C427.31 6.00132 429.912 4.37999 432.899 3.22799C435.886 2.07599 439.128 1.49999 442.627 1.49999C446.168 1.49999 449.411 2.07599 452.355 3.22799C455.342 4.37999 457.923 6.00132 460.099 8.09199C462.318 10.1827 464.046 12.636 465.283 15.452C466.52 18.2253 467.139 21.2973 467.139 24.668C467.139 27.996 466.52 31.0893 465.283 33.948C464.046 36.764 462.318 39.2173 460.099 41.308C457.923 43.356 455.342 44.956 452.355 46.108C449.411 47.26 446.19 47.836 442.691 47.836ZM442.627 39.004C444.632 39.004 446.467 38.6627 448.131 37.98C449.838 37.2973 451.331 36.316 452.611 35.036C453.891 33.756 454.872 32.2413 455.555 30.492C456.28 28.7427 456.643 26.8013 456.643 24.668C456.643 22.5347 456.28 20.5933 455.555 18.844C454.872 17.0947 453.891 15.58 452.611 14.3C451.374 13.02 449.902 12.0387 448.195 11.356C446.488 10.6733 444.632 10.332 442.627 10.332C440.622 10.332 438.766 10.6733 437.059 11.356C435.395 12.0387 433.923 13.02 432.643 14.3C431.363 15.58 430.36 17.0947 429.635 18.844C428.952 20.5933 428.611 22.5347 428.611 24.668C428.611 26.7587 428.952 28.7 429.635 30.492C430.36 32.2413 431.342 33.756 432.579 35.036C433.859 36.316 435.352 37.2973 437.059 37.98C438.766 38.6627 440.622 39.004 442.627 39.004ZM6.5559 112.068V67.268H26.9079C31.7719 67.268 36.0599 68.2067 39.7719 70.084C43.4839 71.9187 46.3852 74.5 48.4759 77.828C50.5666 81.156 51.6119 85.1027 51.6119 89.668C51.6119 94.1907 50.5666 98.1373 48.4759 101.508C46.3852 104.836 43.4839 107.439 39.7719 109.316C36.0599 111.151 31.7719 112.068 26.9079 112.068H6.5559ZM16.9239 103.556H26.3959C29.3826 103.556 31.9639 103.001 34.1399 101.892C36.3586 100.74 38.0652 99.1187 39.2599 97.028C40.4972 94.9373 41.1159 92.484 41.1159 89.668C41.1159 86.8093 40.4972 84.356 39.2599 82.308C38.0652 80.2173 36.3586 78.6173 34.1399 77.508C31.9639 76.356 29.3826 75.78 26.3959 75.78H16.9239V103.556ZM68.9669 85.316H90.5349V93.38H68.9669V85.316ZM69.7349 103.748H94.1189V112.068H59.4309V67.268H93.2869V75.588H69.7349V103.748ZM114.605 112.068L134.573 67.268H144.813L164.845 112.068H153.965L137.581 72.516H141.677L125.229 112.068H114.605ZM124.589 102.468L127.341 94.596H150.381L153.197 102.468H124.589ZM133.869 63.62L142.509 54.404H153.261L141.677 63.62H133.869ZM190.5 112.836C186.959 112.836 183.695 112.281 180.708 111.172C177.764 110.02 175.183 108.399 172.964 106.308C170.788 104.217 169.082 101.764 167.844 98.948C166.65 96.132 166.052 93.0387 166.052 89.668C166.052 86.2973 166.65 83.204 167.844 80.388C169.082 77.572 170.81 75.1187 173.028 73.028C175.247 70.9373 177.85 69.3373 180.836 68.228C183.823 67.076 187.108 66.5 190.692 66.5C194.66 66.5 198.223 67.1613 201.38 68.484C204.58 69.8067 207.268 71.7267 209.444 74.244L202.788 80.388C201.167 78.6813 199.396 77.4227 197.476 76.612C195.556 75.7587 193.466 75.332 191.204 75.332C189.028 75.332 187.044 75.6733 185.252 76.356C183.46 77.0387 181.903 78.02 180.58 79.3C179.3 80.58 178.298 82.0947 177.572 83.844C176.89 85.5933 176.548 87.5347 176.548 89.668C176.548 91.7587 176.89 93.6787 177.572 95.428C178.298 97.1773 179.3 98.7133 180.58 100.036C181.903 101.316 183.439 102.297 185.188 102.98C186.98 103.663 188.943 104.004 191.076 104.004C193.124 104.004 195.108 103.684 197.028 103.044C198.991 102.361 200.89 101.231 202.724 99.652L208.612 107.14C206.18 108.975 203.343 110.383 200.1 111.364C196.9 112.345 193.7 112.836 190.5 112.836ZM199.14 105.796V88.964H208.612V107.14L199.14 105.796ZM238.147 112.836C231.79 112.836 226.819 111.065 223.235 107.524C219.651 103.983 217.859 98.9267 217.859 92.356V67.268H228.227V91.972C228.227 96.2387 229.102 99.3107 230.851 101.188C232.601 103.065 235.054 104.004 238.211 104.004C241.369 104.004 243.822 103.065 245.571 101.188C247.321 99.3107 248.195 96.2387 248.195 91.972V67.268H258.435V92.356C258.435 98.9267 256.643 103.983 253.059 107.524C249.475 111.065 244.505 112.836 238.147 112.836ZM261.855 112.068L281.823 67.268H292.063L312.095 112.068H301.215L284.831 72.516H288.927L272.479 112.068H261.855ZM271.839 102.468L274.591 94.596H297.631L300.447 102.468H271.839Z"/>
</mask>
<path d="M15.8359 10.716H17.3359C17.3359 9.88757 16.6643 9.21599 15.8359 9.21599V10.716ZM1.4999 10.716H-0.000103474C-0.000103474 11.5444 0.671469 12.216 1.4999 12.216V10.716ZM1.4999 2.26799V0.76799C0.671469 0.76799 -0.000103474 1.43956 -0.000103474 2.26799H1.4999ZM40.5399 2.26799H42.0399C42.0399 1.43956 41.3683 0.76799 40.5399 0.76799V2.26799ZM40.5399 10.716V12.216C41.3683 12.216 42.0399 11.5444 42.0399 10.716H40.5399ZM26.2039 10.716V9.21599C25.3755 9.21599 24.7039 9.88757 24.7039 10.716H26.2039ZM26.2039 47.068V48.568C27.0323 48.568 27.7039 47.8964 27.7039 47.068H26.2039ZM15.8359 47.068H14.3359C14.3359 47.8964 15.0075 48.568 15.8359 48.568V47.068ZM15.8359 9.21599H1.4999V12.216H15.8359V9.21599ZM2.9999 10.716V2.26799H-0.000103474V10.716H2.9999ZM1.4999 3.76799H40.5399V0.76799H1.4999V3.76799ZM39.0399 2.26799V10.716H42.0399V2.26799H39.0399ZM40.5399 9.21599H26.2039V12.216H40.5399V9.21599ZM24.7039 10.716V47.068H27.7039V10.716H24.7039ZM26.2039 45.568H15.8359V48.568H26.2039V45.568ZM17.3359 47.068V10.716H14.3359V47.068H17.3359ZM74.6624 47.068L73.4291 47.9218C73.7093 48.3265 74.1702 48.568 74.6624 48.568V47.068ZM66.0224 34.588L67.2557 33.7342C66.9755 33.3295 66.5146 33.088 66.0224 33.088V34.588ZM56.4864 34.588V33.088C55.658 33.088 54.9864 33.7596 54.9864 34.588H56.4864ZM56.4864 47.068V48.568C57.3148 48.568 57.9864 47.8964 57.9864 47.068H56.4864ZM46.1184 47.068H44.6184C44.6184 47.8964 45.29 48.568 46.1184 48.568V47.068ZM46.1184 2.26799V0.76799C45.29 0.76799 44.6184 1.43956 44.6184 2.26799H46.1184ZM75.8144 4.25199L75.1922 5.61687L75.1997 5.62024L75.8144 4.25199ZM82.5344 27.164L81.2863 26.3319L81.2829 26.3371L82.5344 27.164ZM75.7504 32.668L75.1523 31.2924C74.7398 31.4717 74.4295 31.8268 74.3071 32.2596C74.1846 32.6925 74.2628 33.1574 74.5203 33.5264L75.7504 32.668ZM85.7984 47.068V48.568C86.3573 48.568 86.8699 48.2573 87.1283 47.7617C87.3868 47.2662 87.3484 46.668 87.0285 46.2096L85.7984 47.068ZM72.0384 12.764L71.0722 13.9114C71.0782 13.9164 71.0842 13.9214 71.0902 13.9263L72.0384 12.764ZM56.4864 10.716V9.21599C55.658 9.21599 54.9864 9.88757 54.9864 10.716H56.4864ZM56.4864 26.332H54.9864C54.9864 27.1604 55.658 27.832 56.4864 27.832V26.332ZM72.0384 24.284L73.0046 25.4314V25.4314L72.0384 24.284ZM75.8957 46.2142L67.2557 33.7342L64.7891 35.4418L73.4291 47.9218L75.8957 46.2142ZM66.0224 33.088H65.5104V36.088H66.0224V33.088ZM65.5104 33.088H56.4864V36.088H65.5104V33.088ZM54.9864 34.588V47.068H57.9864V34.588H54.9864ZM56.4864 45.568H46.1184V48.568H56.4864V45.568ZM47.6184 47.068V2.26799H44.6184V47.068H47.6184ZM46.1184 3.76799H65.5104V0.76799H46.1184V3.76799ZM65.5104 3.76799C69.3147 3.76799 72.5278 4.40222 75.1922 5.61685L76.4366 2.88713C73.2983 1.45643 69.6421 0.76799 65.5104 0.76799V3.76799ZM75.1997 5.62024C77.9114 6.83856 79.936 8.53741 81.3402 10.7007L83.8566 9.06728C82.1035 6.36658 79.6054 4.31075 76.4291 2.88374L75.1997 5.62024ZM81.3402 10.7007C82.7387 12.8551 83.4664 15.4419 83.4664 18.524H86.4664C86.4664 14.9501 85.6154 11.7768 83.8566 9.06728L81.3402 10.7007ZM83.4664 18.524C83.4664 21.5982 82.7214 24.1793 81.2863 26.3319L83.7825 27.996C85.5901 25.2846 86.4664 22.1058 86.4664 18.524H83.4664ZM81.2829 26.3371C79.8832 28.4555 77.8633 30.1137 75.1523 31.2924L76.3485 34.0436C79.5255 32.6623 82.0282 30.6511 83.7859 27.9909L81.2829 26.3371ZM74.5203 33.5264L84.5683 47.9263L87.0285 46.2096L76.9805 31.8096L74.5203 33.5264ZM85.7984 45.568H74.6624V48.568H85.7984V45.568ZM75.9704 18.524C75.9704 15.6573 75.0287 13.2676 72.9866 11.6017L71.0902 13.9263C72.2908 14.9057 72.9704 16.3561 72.9704 18.524H75.9704ZM73.0046 11.6166C71.0108 9.93764 68.2413 9.21599 64.9344 9.21599V12.216C67.8568 12.216 69.8233 12.8597 71.0722 13.9114L73.0046 11.6166ZM64.9344 9.21599H56.4864V12.216H64.9344V9.21599ZM54.9864 10.716V26.332H57.9864V10.716H54.9864ZM56.4864 27.832H64.9344V24.832H56.4864V27.832ZM64.9344 27.832C68.2413 27.832 71.0108 27.1103 73.0046 25.4314L71.0722 23.1366C69.8233 24.1883 67.8568 24.832 64.9344 24.832V27.832ZM73.0046 25.4314C75.0227 23.7319 75.9704 21.3588 75.9704 18.524H72.9704C72.9704 20.6385 72.2968 22.1054 71.0722 23.1366L73.0046 25.4314ZM122.685 37.468L124.071 36.895C123.839 36.3339 123.292 35.968 122.685 35.968V37.468ZM101.885 37.468V35.968C101.278 35.968 100.731 36.3339 100.499 36.895L101.885 37.468ZM97.9169 47.068V48.568C98.524 48.568 99.0712 48.202 99.3031 47.641L97.9169 47.068ZM87.2929 47.068L85.9228 46.4573C85.716 46.9214 85.7581 47.4586 86.0347 47.8847C86.3113 48.3108 86.7849 48.568 87.2929 48.568V47.068ZM107.261 2.26799V0.76799C106.669 0.76799 106.132 1.11642 105.891 1.65733L107.261 2.26799ZM117.501 2.26799L118.87 1.6557C118.629 1.11567 118.092 0.76799 117.501 0.76799V2.26799ZM137.533 47.068V48.568C138.041 48.568 138.515 48.3105 138.792 47.8839C139.068 47.4574 139.11 46.9198 138.902 46.4557L137.533 47.068ZM126.653 47.068L125.267 47.641C125.499 48.202 126.046 48.568 126.653 48.568V47.068ZM119.421 29.596V31.096C119.922 31.096 120.39 30.8459 120.668 30.4294C120.946 30.0128 120.998 29.4848 120.807 29.022L119.421 29.596ZM112.317 12.444L113.703 11.87C113.471 11.3095 112.924 10.944 112.317 10.944C111.71 10.944 111.163 11.3095 110.931 11.87L112.317 12.444ZM105.213 29.596L103.827 29.022C103.635 29.4848 103.687 30.0128 103.966 30.4294C104.244 30.8459 104.712 31.096 105.213 31.096V29.596ZM122.685 35.968H101.885V38.968H122.685V35.968ZM100.499 36.895L96.5306 46.495L99.3031 47.641L103.271 38.041L100.499 36.895ZM97.9169 45.568H87.2929V48.568H97.9169V45.568ZM88.663 47.6787L108.631 2.87865L105.891 1.65733L85.9228 46.4573L88.663 47.6787ZM107.261 3.76799H117.501V0.76799H107.261V3.76799ZM116.132 2.88028L136.164 47.6803L138.902 46.4557L118.87 1.6557L116.132 2.88028ZM137.533 45.568H126.653V48.568H137.533V45.568ZM128.039 46.495L124.071 36.895L121.299 38.041L125.267 47.641L128.039 46.495ZM120.807 29.022L113.703 11.87L110.931 13.018L118.035 30.17L120.807 29.022ZM110.931 11.87L103.827 29.022L106.599 30.17L113.703 13.018L110.931 11.87ZM105.213 31.096H119.421V28.096H105.213V31.096ZM149.211 10.716H150.711C150.711 9.88757 150.039 9.21599 149.211 9.21599V10.716ZM134.875 10.716H133.375C133.375 11.5444 134.046 12.216 134.875 12.216V10.716ZM134.875 2.26799V0.76799C134.046 0.76799 133.375 1.43956 133.375 2.26799H134.875ZM173.915 2.26799H175.415C175.415 1.43956 174.743 0.76799 173.915 0.76799V2.26799ZM173.915 10.716V12.216C174.743 12.216 175.415 11.5444 175.415 10.716H173.915ZM159.579 10.716V9.21599C158.75 9.21599 158.079 9.88757 158.079 10.716H159.579ZM159.579 47.068V48.568C160.407 48.568 161.079 47.8964 161.079 47.068H159.579ZM149.211 47.068H147.711C147.711 47.8964 148.382 48.568 149.211 48.568V47.068ZM149.211 9.21599H134.875V12.216H149.211V9.21599ZM136.375 10.716V2.26799H133.375V10.716H136.375ZM134.875 3.76799H173.915V0.76799H134.875V3.76799ZM172.415 2.26799V10.716H175.415V2.26799H172.415ZM173.915 9.21599H159.579V12.216H173.915V9.21599ZM158.079 10.716V47.068H161.079V10.716H158.079ZM159.579 45.568H149.211V48.568H159.579V45.568ZM150.711 47.068V10.716H147.711V47.068H150.711ZM206.747 37.468L208.134 36.895C207.902 36.3339 207.355 35.968 206.747 35.968V37.468ZM185.947 37.468V35.968C185.34 35.968 184.793 36.3339 184.561 36.895L185.947 37.468ZM181.979 47.068V48.568C182.587 48.568 183.134 48.202 183.366 47.641L181.979 47.068ZM171.355 47.068L169.985 46.4573C169.779 46.9214 169.821 47.4586 170.097 47.8847C170.374 48.3108 170.847 48.568 171.355 48.568V47.068ZM191.323 2.26799V0.76799C190.731 0.76799 190.194 1.11642 189.953 1.65733L191.323 2.26799ZM201.563 2.26799L202.933 1.6557C202.691 1.11567 202.155 0.76799 201.563 0.76799V2.26799ZM221.595 47.068V48.568C222.104 48.568 222.578 48.3105 222.854 47.8839C223.131 47.4574 223.172 46.9198 222.965 46.4557L221.595 47.068ZM210.715 47.068L209.329 47.641C209.561 48.202 210.108 48.568 210.715 48.568V47.068ZM203.483 29.596V31.096C203.984 31.096 204.452 30.8459 204.731 30.4294C205.009 30.0128 205.061 29.4848 204.869 29.022L203.483 29.596ZM196.379 12.444L197.765 11.87C197.533 11.3095 196.986 10.944 196.379 10.944C195.773 10.944 195.226 11.3095 194.994 11.87L196.379 12.444ZM189.275 29.596L187.89 29.022C187.698 29.4848 187.75 30.0128 188.028 30.4294C188.307 30.8459 188.774 31.096 189.275 31.096V29.596ZM206.747 35.968H185.947V38.968H206.747V35.968ZM184.561 36.895L180.593 46.495L183.366 47.641L187.334 38.041L184.561 36.895ZM181.979 45.568H171.355V48.568H181.979V45.568ZM172.725 47.6787L192.693 2.87865L189.953 1.65733L169.985 46.4573L172.725 47.6787ZM191.323 3.76799H201.563V0.76799H191.323V3.76799ZM200.194 2.88028L220.226 47.6803L222.965 46.4557L202.933 1.6557L200.194 2.88028ZM221.595 45.568H210.715V48.568H221.595V45.568ZM212.102 46.495L208.134 36.895L205.361 38.041L209.329 47.641L212.102 46.495ZM204.869 29.022L197.765 11.87L194.994 13.018L202.098 30.17L204.869 29.022ZM194.994 11.87L187.89 29.022L190.661 30.17L197.765 13.018L194.994 11.87ZM189.275 31.096H203.483V28.096H189.275V31.096ZM267.011 47.068L265.511 47.0716C265.513 47.8986 266.184 48.568 267.011 48.568V47.068ZM266.947 20.188L268.447 20.1844C268.446 19.5099 267.994 18.9194 267.344 18.7413C266.693 18.5631 266.004 18.8411 265.659 19.4206L266.947 20.188ZM253.763 42.332V43.832C254.292 43.832 254.782 43.5536 255.052 43.0993L253.763 42.332ZM249.091 42.332L247.81 43.1116C248.082 43.5589 248.568 43.832 249.091 43.832V42.332ZM235.971 20.764L237.253 19.9844C236.903 19.4099 236.214 19.1382 235.567 19.3196C234.919 19.5011 234.471 20.0915 234.471 20.764H235.971ZM235.971 47.068V48.568C236.8 48.568 237.471 47.8964 237.471 47.068H235.971ZM226.243 47.068H224.743C224.743 47.8964 225.415 48.568 226.243 48.568V47.068ZM226.243 2.26799V0.76799C225.415 0.76799 224.743 1.43956 224.743 2.26799H226.243ZM234.819 2.26799L236.104 1.49408C235.833 1.0435 235.345 0.76799 234.819 0.76799V2.26799ZM251.587 30.108L250.302 30.8819C250.575 31.334 251.065 31.6098 251.592 31.608C252.12 31.6062 252.608 31.3271 252.878 30.8732L251.587 30.108ZM268.099 2.26799V0.76799C267.57 0.76799 267.079 1.04728 266.809 1.5028L268.099 2.26799ZM276.611 2.26799L278.111 2.2637C278.109 1.43695 277.438 0.76799 276.611 0.76799V2.26799ZM276.739 47.068V48.568C277.138 48.568 277.52 48.4094 277.802 48.1271C278.083 47.8449 278.241 47.4623 278.239 47.0637L276.739 47.068ZM268.511 47.0644L268.447 20.1844L265.447 20.1916L265.511 47.0716L268.511 47.0644ZM265.659 19.4206L252.475 41.5646L255.052 43.0993L268.236 20.9553L265.659 19.4206ZM253.763 40.832H249.091V43.832H253.763V40.832ZM250.373 41.5524L237.253 19.9844L234.69 21.5436L247.81 43.1116L250.373 41.5524ZM234.471 20.764V47.068H237.471V20.764H234.471ZM235.971 45.568H226.243V48.568H235.971V45.568ZM227.743 47.068V2.26799H224.743V47.068H227.743ZM226.243 3.76799H234.819V0.76799H226.243V3.76799ZM233.534 3.0419L250.302 30.8819L252.872 29.3341L236.104 1.49408L233.534 3.0419ZM252.878 30.8732L269.39 3.03318L266.809 1.5028L250.297 29.3428L252.878 30.8732ZM268.099 3.76799H276.611V0.76799H268.099V3.76799ZM275.111 2.27228L275.239 47.0723L278.239 47.0637L278.111 2.2637L275.111 2.27228ZM276.739 45.568H267.011V48.568H276.739V45.568ZM322.056 38.748H323.556C323.556 37.9196 322.885 37.248 322.056 37.248V38.748ZM322.056 47.068V48.568C322.885 48.568 323.556 47.8964 323.556 47.068H322.056ZM287.368 47.068H285.868C285.868 47.8964 286.54 48.568 287.368 48.568V47.068ZM287.368 2.26799V0.76799C286.54 0.76799 285.868 1.43956 285.868 2.26799H287.368ZM321.224 2.26799H322.724C322.724 1.43956 322.053 0.76799 321.224 0.76799V2.26799ZM321.224 10.588V12.088C322.053 12.088 322.724 11.4164 322.724 10.588H321.224ZM297.672 10.588V9.08799C296.844 9.08799 296.172 9.75956 296.172 10.588H297.672ZM297.672 20.316H296.172C296.172 21.1444 296.844 21.816 297.672 21.816V20.316ZM318.472 20.316H319.972C319.972 19.4876 319.301 18.816 318.472 18.816V20.316ZM318.472 28.38V29.88C319.301 29.88 319.972 29.2084 319.972 28.38H318.472ZM297.672 28.38V26.88C296.844 26.88 296.172 27.5516 296.172 28.38H297.672ZM297.672 38.748H296.172C296.172 39.5764 296.844 40.248 297.672 40.248V38.748ZM320.556 38.748V47.068H323.556V38.748H320.556ZM322.056 45.568H287.368V48.568H322.056V45.568ZM288.868 47.068V2.26799H285.868V47.068H288.868ZM287.368 3.76799H321.224V0.76799H287.368V3.76799ZM319.724 2.26799V10.588H322.724V2.26799H319.724ZM321.224 9.08799H297.672V12.088H321.224V9.08799ZM296.172 10.588V20.316H299.172V10.588H296.172ZM297.672 21.816H318.472V18.816H297.672V21.816ZM316.972 20.316V28.38H319.972V20.316H316.972ZM318.472 26.88H297.672V29.88H318.472V26.88ZM296.172 28.38V38.748H299.172V28.38H296.172ZM297.672 40.248H322.056V37.248H297.672V40.248ZM371.394 2.26799H372.894C372.894 1.43956 372.222 0.76799 371.394 0.76799V2.26799ZM371.394 47.068V48.568C372.222 48.568 372.894 47.8964 372.894 47.068H371.394ZM362.882 47.068L361.723 48.0199C362.008 48.3669 362.433 48.568 362.882 48.568V47.068ZM340.546 19.868L341.705 18.9161C341.303 18.4265 340.637 18.2422 340.04 18.4558C339.444 18.6693 339.046 19.2345 339.046 19.868H340.546ZM340.546 47.068V48.568C341.374 48.568 342.046 47.8964 342.046 47.068H340.546ZM330.306 47.068H328.806C328.806 47.8964 329.477 48.568 330.306 48.568V47.068ZM330.306 2.26799V0.76799C329.477 0.76799 328.806 1.43956 328.806 2.26799H330.306ZM338.882 2.26799L340.042 1.31769C339.758 0.96975 339.332 0.76799 338.882 0.76799V2.26799ZM361.154 29.468L359.993 30.4183C360.395 30.9088 361.061 31.0938 361.658 30.8806C362.255 30.6674 362.654 30.1019 362.654 29.468H361.154ZM361.154 2.26799V0.76799C360.325 0.76799 359.654 1.43956 359.654 2.26799H361.154ZM369.894 2.26799V47.068H372.894V2.26799H369.894ZM371.394 45.568H362.882V48.568H371.394V45.568ZM364.041 46.1161L341.705 18.9161L339.387 20.8199L361.723 48.0199L364.041 46.1161ZM339.046 19.868V47.068H342.046V19.868H339.046ZM340.546 45.568H330.306V48.568H340.546V45.568ZM331.806 47.068V2.26799H328.806V47.068H331.806ZM330.306 3.76799H338.882V0.76799H330.306V3.76799ZM337.721 3.21829L359.993 30.4183L362.314 28.5177L340.042 1.31769L337.721 3.21829ZM362.654 29.468V2.26799H359.654V29.468H362.654ZM361.154 3.76799H371.394V0.76799H361.154V3.76799ZM391.273 10.716H392.773C392.773 9.88757 392.102 9.21599 391.273 9.21599V10.716ZM376.937 10.716H375.437C375.437 11.5444 376.109 12.216 376.937 12.216V10.716ZM376.937 2.26799V0.76799C376.109 0.76799 375.437 1.43956 375.437 2.26799H376.937ZM415.977 2.26799H417.477C417.477 1.43956 416.806 0.76799 415.977 0.76799V2.26799ZM415.977 10.716V12.216C416.806 12.216 417.477 11.5444 417.477 10.716H415.977ZM401.641 10.716V9.21599C400.813 9.21599 400.141 9.88757 400.141 10.716H401.641ZM401.641 47.068V48.568C402.47 48.568 403.141 47.8964 403.141 47.068H401.641ZM391.273 47.068H389.773C389.773 47.8964 390.445 48.568 391.273 48.568V47.068ZM391.273 9.21599H376.937V12.216H391.273V9.21599ZM378.437 10.716V2.26799H375.437V10.716H378.437ZM376.937 3.76799H415.977V0.76799H376.937V3.76799ZM414.477 2.26799V10.716H417.477V2.26799H414.477ZM415.977 9.21599H401.641V12.216H415.977V9.21599ZM400.141 10.716V47.068H403.141V10.716H400.141ZM401.641 45.568H391.273V48.568H401.641V45.568ZM392.773 47.068V10.716H389.773V47.068H392.773ZM430.019 44.828L429.306 46.1477L429.312 46.1511L430.019 44.828ZM421.251 36.572L419.959 37.3346C419.963 37.3407 419.966 37.3468 419.97 37.3529L421.251 36.572ZM421.251 12.828L419.966 12.054L419.963 12.0586L421.251 12.828ZM430.019 4.50799L429.312 3.18486L429.306 3.18826L430.019 4.50799ZM463.939 12.828L462.654 13.602L462.658 13.6089L463.939 12.828ZM463.939 36.572L465.22 37.3529L465.224 37.346L463.939 36.572ZM455.171 44.828L455.884 46.1477L455.171 44.828ZM449.795 37.212L450.528 38.5208C450.534 38.5171 450.541 38.5133 450.547 38.5095L449.795 37.212ZM454.787 32.092L453.483 31.3505C453.479 31.357 453.476 31.3636 453.472 31.3701L454.787 32.092ZM454.787 17.244L453.472 17.9659C453.476 17.9724 453.479 17.979 453.483 17.9854L454.787 17.244ZM449.795 12.188L449.042 13.4855C449.049 13.4893 449.055 13.4931 449.062 13.4968L449.795 12.188ZM435.459 12.188L436.192 13.4968C436.198 13.4931 436.205 13.4893 436.211 13.4855L435.459 12.188ZM430.403 17.244L429.099 16.5025C429.095 16.509 429.092 16.5156 429.088 16.5221L430.403 17.244ZM430.403 32.092L429.088 32.8139C429.092 32.8204 429.095 32.827 429.099 32.8334L430.403 32.092ZM435.459 37.212L434.706 38.5095C434.713 38.5133 434.719 38.5171 434.726 38.5208L435.459 37.212ZM442.627 46.336C438.199 46.336 434.243 45.3836 430.726 43.5049L429.312 46.1511C433.304 48.2831 437.753 49.336 442.627 49.336V46.336ZM430.732 43.5083C427.246 41.6252 424.522 39.0561 422.532 35.7911L419.97 37.3529C422.246 41.0852 425.368 44.0201 429.306 46.1477L430.732 43.5083ZM422.543 35.8094C420.598 32.515 419.615 28.8135 419.615 24.668H416.615C416.615 29.3118 417.723 33.5463 419.959 37.3346L422.543 35.8094ZM419.615 24.668C419.615 20.5223 420.598 16.8453 422.539 13.5974L419.963 12.0586C417.723 15.808 416.615 20.0243 416.615 24.668H419.615ZM422.536 13.602C424.528 10.2953 427.251 7.70831 430.732 5.82772L429.306 3.18826C425.363 5.31834 422.241 8.27797 419.966 12.054L422.536 13.602ZM430.726 5.83111C434.243 3.95242 438.199 2.99999 442.627 2.99999V-7.62939e-06C437.753 -7.62939e-06 433.304 1.0529 429.312 3.18488L430.726 5.83111ZM442.627 2.99999C447.055 2.99999 450.987 3.95248 454.458 5.82772L455.884 3.18826C451.931 1.05284 447.5 -7.62939e-06 442.627 -7.62939e-06V2.99999ZM454.458 5.82772C457.939 7.70831 460.662 10.2953 462.654 13.602L465.224 12.054C462.949 8.27797 459.827 5.31834 455.884 3.18826L454.458 5.82772ZM462.658 13.6089C464.638 16.8552 465.639 20.5281 465.639 24.668H468.639C468.639 20.0186 467.507 15.7981 465.22 12.0471L462.658 13.6089ZM465.639 24.668C465.639 28.8078 464.638 32.5051 462.654 35.798L465.224 37.346C467.507 33.5562 468.639 29.3175 468.639 24.668H465.639ZM462.658 35.7911C460.667 39.0561 457.944 41.6252 454.458 43.5083L455.884 46.1477C459.822 44.0201 462.944 41.0852 465.22 37.3529L462.658 35.7911ZM454.458 43.5083C450.987 45.3835 447.055 46.336 442.627 46.336V49.336C447.5 49.336 451.931 48.2831 455.884 46.1477L454.458 43.5083ZM442.627 40.504C445.507 40.504 448.152 39.851 450.528 38.5208L449.062 35.9032C447.171 36.9623 445.037 37.504 442.627 37.504V40.504ZM450.547 38.5095C452.919 37.1342 454.777 35.2277 456.102 32.8139L453.472 31.3701C452.408 33.3082 450.938 34.8152 449.042 35.9144L450.547 38.5095ZM456.091 32.8334C457.47 30.4077 458.143 27.6726 458.143 24.668H455.143C455.143 27.2101 454.578 29.4242 453.483 31.3505L456.091 32.8334ZM458.143 24.668C458.143 21.6634 457.47 18.9282 456.091 16.5025L453.483 17.9854C454.578 19.9117 455.143 22.1259 455.143 24.668H458.143ZM456.102 16.5221C454.774 14.1038 452.91 12.2134 450.528 10.8792L449.062 13.4968C450.946 14.552 452.41 16.0322 453.472 17.9659L456.102 16.5221ZM450.547 10.8904C448.169 9.51088 445.517 8.83199 442.627 8.83199V11.832C445.028 11.832 447.154 12.3904 449.042 13.4855L450.547 10.8904ZM442.627 8.83199C439.737 8.83199 437.085 9.51088 434.706 10.8904L436.211 13.4855C438.1 12.3904 440.226 11.832 442.627 11.832V8.83199ZM434.726 10.8792C432.348 12.2107 430.468 14.0949 429.099 16.5025L431.707 17.9854C432.812 16.0411 434.303 14.5546 436.192 13.4968L434.726 10.8792ZM429.088 16.5221C427.758 18.9443 427.111 21.6724 427.111 24.668H430.111C430.111 22.1169 430.658 19.8957 431.718 17.9659L429.088 16.5221ZM427.111 24.668C427.111 27.6636 427.758 30.3917 429.088 32.8139L431.718 31.3701C430.658 29.4403 430.111 27.2191 430.111 24.668H427.111ZM429.099 32.8334C430.466 35.2367 432.34 37.1368 434.706 38.5095L436.211 35.9144C434.312 34.8125 432.815 33.2993 431.707 31.3505L429.099 32.8334ZM434.726 38.5208C437.101 39.851 439.747 40.504 442.627 40.504V37.504C440.217 37.504 438.083 36.9623 436.192 35.9032L434.726 38.5208ZM6.5559 67.268V65.768C5.72747 65.768 5.0559 66.4396 5.0559 67.268H6.5559ZM39.7719 70.084L39.0949 71.4225C39.1011 71.4256 39.1072 71.4287 39.1134 71.4317L39.7719 70.084ZM48.4759 77.892L47.1939 78.6709L47.2012 78.6826L48.4759 77.892ZM48.4759 101.444L47.2011 100.653L47.194 100.665L48.4759 101.444ZM39.7719 109.316L40.4365 110.661L40.4427 110.658L39.7719 109.316ZM6.5559 112.068H5.0559C5.0559 112.896 5.72747 113.568 6.5559 113.568V112.068ZM37.0839 99.844L38.1086 100.939L38.1092 100.939L37.0839 99.844ZM37.0839 79.556L36.0499 80.6426C36.0558 80.6483 36.0619 80.6539 36.0679 80.6595L37.0839 79.556ZM16.9239 75.78V74.28C16.0955 74.28 15.4239 74.9516 15.4239 75.78H16.9239ZM16.9239 103.556H15.4239C15.4239 104.384 16.0955 105.056 16.9239 105.056V103.556ZM6.5559 68.768H26.9079V65.768H6.5559V68.768ZM26.9079 68.768C31.5765 68.768 35.6256 69.6679 39.0949 71.4225L40.4489 68.7454C36.4942 66.7454 31.9673 65.768 26.9079 65.768V68.768ZM39.1134 71.4317C42.6262 73.1482 45.3041 75.5604 47.194 78.6709L49.7578 77.1131C47.5517 73.4822 44.427 70.6891 40.4304 68.7363L39.1134 71.4317ZM47.2012 78.6826C49.1262 81.7862 50.1119 85.4303 50.1119 89.668H53.1119C53.1119 84.9457 52.007 80.7391 49.7506 77.1013L47.2012 78.6826ZM50.1119 89.668C50.1119 93.9057 49.1262 97.5498 47.2012 100.653L49.7506 102.235C52.007 98.5969 53.1119 94.3903 53.1119 89.668H50.1119ZM47.194 100.665C45.3022 103.779 42.6201 106.215 39.1011 107.974L40.4427 110.658C44.433 108.662 47.5536 105.851 49.7578 102.223L47.194 100.665ZM39.1073 107.971C35.6351 109.687 31.5815 110.568 26.9079 110.568V113.568C31.9623 113.568 36.4847 112.614 40.4365 110.661L39.1073 107.971ZM26.9079 110.568H6.5559V113.568H26.9079V110.568ZM8.0559 112.068V67.268H5.0559V112.068H8.0559ZM26.3959 105.056C31.1619 105.056 35.1233 103.732 38.1086 100.939L36.0592 98.7486C33.7538 100.905 30.5899 102.056 26.3959 102.056V105.056ZM38.1092 100.939C41.1488 98.0922 42.6159 94.2776 42.6159 89.668H39.6159C39.6159 93.5917 38.395 96.5611 36.0586 98.7491L38.1092 100.939ZM42.6159 89.668C42.6159 85.059 41.1488 81.2594 38.0999 78.4524L36.0679 80.6595C38.395 82.8019 39.6159 85.7437 39.6159 89.668H42.6159ZM38.1179 78.4694C35.1335 75.6293 31.1688 74.28 26.3959 74.28V77.28C30.583 77.28 33.7436 78.448 36.0499 80.6426L38.1179 78.4694ZM26.3959 74.28H16.9239V77.28H26.3959V74.28ZM15.4239 75.78V103.556H18.4239V75.78H15.4239ZM16.9239 105.056H26.3959V102.056H16.9239V105.056ZM94.1189 103.748H95.6189C95.6189 102.92 94.9473 102.248 94.1189 102.248V103.748ZM94.1189 112.068V113.568C94.9473 113.568 95.6189 112.896 95.6189 112.068H94.1189ZM59.4309 112.068H57.9309C57.9309 112.896 58.6025 113.568 59.4309 113.568V112.068ZM59.4309 67.268V65.768C58.6025 65.768 57.9309 66.4396 57.9309 67.268H59.4309ZM93.2869 67.268H94.7869C94.7869 66.4396 94.1153 65.768 93.2869 65.768V67.268ZM93.2869 75.588V77.088C94.1153 77.088 94.7869 76.4164 94.7869 75.588H93.2869ZM69.7349 75.588V74.088C68.9065 74.088 68.2349 74.7596 68.2349 75.588H69.7349ZM69.7349 85.316H68.2349C68.2349 86.1444 68.9065 86.816 69.7349 86.816V85.316ZM90.5349 85.316H92.0349C92.0349 84.4876 91.3633 83.816 90.5349 83.816V85.316ZM90.5349 93.38V94.88C91.3633 94.88 92.0349 94.2084 92.0349 93.38H90.5349ZM69.7349 93.38V91.88C68.9065 91.88 68.2349 92.5516 68.2349 93.38H69.7349ZM69.7349 103.748H68.2349C68.2349 104.576 68.9065 105.248 69.7349 105.248V103.748ZM92.6189 103.748V112.068H95.6189V103.748H92.6189ZM94.1189 110.568H59.4309V113.568H94.1189V110.568ZM60.9309 112.068V67.268H57.9309V112.068H60.9309ZM59.4309 68.768H93.2869V65.768H59.4309V68.768ZM91.7869 67.268V75.588H94.7869V67.268H91.7869ZM93.2869 74.088H69.7349V77.088H93.2869V74.088ZM68.2349 75.588V85.316H71.2349V75.588H68.2349ZM69.7349 86.816H90.5349V83.816H69.7349V86.816ZM89.0349 85.316V93.38H92.0349V85.316H89.0349ZM90.5349 91.88H69.7349V94.88H90.5349V91.88ZM68.2349 93.38V103.748H71.2349V93.38H68.2349ZM69.7349 105.248H94.1189V102.248H69.7349V105.248ZM149.997 102.468L151.384 101.895C151.152 101.334 150.605 100.968 149.997 100.968V102.468ZM129.197 102.468V100.968C128.59 100.968 128.043 101.334 127.811 101.895L129.197 102.468ZM125.229 112.068V113.568C125.837 113.568 126.384 113.202 126.616 112.641L125.229 112.068ZM114.605 112.068L113.235 111.457C113.028 111.921 113.071 112.459 113.347 112.885C113.624 113.311 114.097 113.568 114.605 113.568V112.068ZM134.573 67.268V65.768C133.981 65.768 133.444 66.1164 133.203 66.6573L134.573 67.268ZM144.813 67.268L146.183 66.6557C145.941 66.1157 145.405 65.768 144.813 65.768V67.268ZM164.845 112.068V113.568C165.354 113.568 165.828 113.311 166.104 112.884C166.381 112.457 166.422 111.92 166.215 111.456L164.845 112.068ZM153.965 112.068L152.579 112.641C152.811 113.202 153.358 113.568 153.965 113.568V112.068ZM146.733 94.596V96.096C147.234 96.096 147.702 95.8459 147.981 95.4294C148.259 95.0128 148.311 94.4848 148.119 94.022L146.733 94.596ZM139.629 77.444L141.015 76.87C140.783 76.3095 140.236 75.944 139.629 75.944C139.023 75.944 138.476 76.3095 138.244 76.87L139.629 77.444ZM132.525 94.596L131.14 94.022C130.948 94.4848 131 95.0128 131.278 95.4294C131.557 95.8459 132.024 96.096 132.525 96.096V94.596ZM142.509 54.404V52.904C142.095 52.904 141.699 53.0756 141.415 53.3781L142.509 54.404ZM153.261 54.404L154.195 55.5778C154.694 55.1808 154.888 54.5115 154.678 53.9094C154.467 53.3073 153.899 52.904 153.261 52.904V54.404ZM141.677 63.62V65.12C142.017 65.12 142.346 65.005 142.611 64.7938L141.677 63.62ZM133.869 63.62L132.775 62.5941C132.366 63.0303 132.255 63.6677 132.493 64.2163C132.731 64.7649 133.271 65.12 133.869 65.12V63.62ZM149.997 100.968H129.197V103.968H149.997V100.968ZM127.811 101.895L123.843 111.495L126.616 112.641L130.584 103.041L127.811 101.895ZM125.229 110.568H114.605V113.568H125.229V110.568ZM115.975 112.679L135.943 67.8786L133.203 66.6573L113.235 111.457L115.975 112.679ZM134.573 68.768H144.813V65.768H134.573V68.768ZM143.444 67.8803L163.476 112.68L166.215 111.456L146.183 66.6557L143.444 67.8803ZM164.845 110.568H153.965V113.568H164.845V110.568ZM155.352 111.495L151.384 101.895L148.611 103.041L152.579 112.641L155.352 111.495ZM148.119 94.022L141.015 76.87L138.244 78.018L145.348 95.17L148.119 94.022ZM138.244 76.87L131.14 94.022L133.911 95.17L141.015 78.018L138.244 76.87ZM132.525 96.096H146.733V93.096H132.525V96.096ZM142.509 55.904H153.261V52.904H142.509V55.904ZM152.328 53.2302L140.744 62.4462L142.611 64.7938L154.195 55.5778L152.328 53.2302ZM141.677 62.12H133.869V65.12H141.677V62.12ZM134.964 64.6459L143.604 55.4299L141.415 53.3781L132.775 62.5941L134.964 64.6459ZM199.14 88.964V87.464C198.312 87.464 197.64 88.1356 197.64 88.964H199.14ZM208.612 88.964H210.112C210.112 88.1356 209.441 87.464 208.612 87.464V88.964ZM208.612 107.14L209.516 108.337C209.891 108.054 210.112 107.611 210.112 107.14H208.612ZM200.164 111.364L200.604 112.798V112.798L200.164 111.364ZM177.956 109.892L177.243 111.212L177.255 111.218L177.956 109.892ZM169.188 101.636L167.897 102.399C167.9 102.405 167.904 102.411 167.908 102.417L169.188 101.636ZM169.188 77.764L167.904 76.99L167.901 76.9946L169.188 77.764ZM178.02 69.508L178.715 70.8374L178.727 70.8311L178.02 69.508ZM201.38 68.484L201.953 67.0977V67.0977L201.38 68.484ZM209.444 74.244L210.462 75.3462C211.057 74.7972 211.108 73.8754 210.579 73.2631L209.444 74.244ZM202.788 80.388L201.701 81.4208C202.265 82.0156 203.203 82.0465 203.806 81.4902L202.788 80.388ZM183.588 77.124L184.3 78.4447V78.4447L183.588 77.124ZM178.404 82.18L179.708 82.9214L178.404 82.18ZM178.404 97.092L177.1 97.8334V97.8334L178.404 97.092ZM183.524 102.212L182.783 103.516C182.793 103.522 182.803 103.527 182.813 103.533L183.524 102.212ZM199.14 102.084L199.849 103.406C200.336 103.145 200.64 102.637 200.64 102.084H199.14ZM199.14 90.464H208.612V87.464H199.14V90.464ZM207.112 88.964V107.14H210.112V88.964H207.112ZM207.709 105.943C205.43 107.662 202.774 108.995 199.725 109.93L200.604 112.798C203.955 111.771 206.931 110.287 209.516 108.337L207.709 105.943ZM199.725 109.93C196.662 110.869 193.589 111.336 190.5 111.336V114.336C193.897 114.336 197.266 113.822 200.604 112.798L199.725 109.93ZM190.5 111.336C186.067 111.336 182.131 110.402 178.658 108.566L177.255 111.218C181.206 113.307 185.632 114.336 190.5 114.336V111.336ZM178.669 108.572C175.184 106.689 172.46 104.12 170.469 100.855L167.908 102.417C170.183 106.149 173.305 109.084 177.243 111.212L178.669 108.572ZM170.48 100.873C168.537 97.5813 167.552 93.859 167.552 89.668H164.552C164.552 94.3516 165.659 98.6081 167.897 102.399L170.48 100.873ZM167.552 89.668C167.552 85.4768 168.537 81.7791 170.476 78.5334L167.901 76.9946C165.659 80.7463 164.552 84.9846 164.552 89.668H167.552ZM170.473 78.538C172.461 75.2385 175.198 72.6758 178.715 70.8373L177.326 68.1786C173.333 70.2655 170.183 73.2068 167.904 76.99L170.473 78.538ZM178.727 70.8311C182.243 68.9535 186.22 68 190.692 68V65C185.778 65 181.308 66.0518 177.314 68.1849L178.727 70.8311ZM190.692 68C194.447 68 197.812 68.6321 200.807 69.8702L201.953 67.0977C198.549 65.6906 194.788 65 190.692 65V68ZM200.807 69.8702C203.8 71.1072 206.293 72.892 208.31 75.2249L210.579 73.2631C208.244 70.5614 205.361 68.5061 201.953 67.0977L200.807 69.8702ZM208.427 73.1418L201.771 79.2858L203.806 81.4902L210.462 75.3462L208.427 73.1418ZM203.876 79.3552C200.402 75.6956 196.151 73.832 191.204 73.832V76.832C195.303 76.832 198.775 78.3391 201.701 81.4208L203.876 79.3552ZM191.204 73.832C188.131 73.832 185.342 74.4759 182.877 75.8033L184.3 78.4447C186.272 77.3828 188.56 76.832 191.204 76.832V73.832ZM182.877 75.8033C180.412 77.1306 178.478 79.0159 177.1 81.4385L179.708 82.9214C180.805 80.9921 182.327 79.5067 184.3 78.4447L182.877 75.8033ZM177.1 81.4385C175.719 83.8677 175.048 86.6251 175.048 89.668H178.048C178.048 87.0788 178.615 84.8443 179.708 82.9214L177.1 81.4385ZM175.048 89.668C175.048 92.6726 175.721 95.4077 177.1 97.8334L179.708 96.3505C178.613 94.4242 178.048 92.2101 178.048 89.668H175.048ZM177.1 97.8334C178.471 100.244 180.372 102.145 182.783 103.516L184.266 100.908C182.325 99.8042 180.812 98.2918 179.708 96.3505L177.1 97.8334ZM182.813 103.533C185.275 104.858 188.042 105.504 191.076 105.504V102.504C188.479 102.504 186.211 101.955 184.236 100.891L182.813 103.533ZM191.076 105.504C194.285 105.504 197.22 104.814 199.849 103.406L198.432 100.762C196.282 101.914 193.842 102.504 191.076 102.504V105.504ZM200.64 102.084V88.964H197.64V102.084H200.64ZM223.171 107.524L222.111 108.585L222.117 108.591L223.171 107.524ZM217.859 67.268V65.768C217.031 65.768 216.359 66.4396 216.359 67.268H217.859ZM228.227 67.268H229.727C229.727 66.4396 229.056 65.768 228.227 65.768V67.268ZM245.635 101.124L246.757 102.121C246.76 102.116 246.764 102.112 246.767 102.108L245.635 101.124ZM248.195 67.268V65.768C247.367 65.768 246.695 66.4396 246.695 67.268H248.195ZM258.435 67.268H259.935C259.935 66.4396 259.264 65.768 258.435 65.768V67.268ZM253.059 107.524L252.005 106.457L251.999 106.463L253.059 107.524ZM238.147 111.336C232.03 111.336 227.458 109.651 224.226 106.457L222.117 108.591C226.053 112.48 231.465 114.336 238.147 114.336V111.336ZM224.232 106.463C221.052 103.283 219.359 98.6578 219.359 92.356H216.359C216.359 99.1955 218.208 104.682 222.111 108.585L224.232 106.463ZM219.359 92.356V67.268H216.359V92.356H219.359ZM217.859 68.768H228.227V65.768H217.859V68.768ZM226.727 67.268V91.972H229.727V67.268H226.727ZM226.727 91.972C226.727 96.1528 227.589 99.5676 229.569 101.954C231.594 104.394 234.571 105.504 238.211 105.504V102.504C235.196 102.504 233.181 101.609 231.878 100.038C230.53 98.4138 229.727 95.8125 229.727 91.972H226.727ZM238.211 105.504C241.762 105.504 244.694 104.441 246.757 102.121L244.514 100.127C243.164 101.647 241.146 102.504 238.211 102.504V105.504ZM246.767 102.108C248.817 99.7512 249.695 96.2702 249.695 91.972H246.695C246.695 95.9511 245.867 98.5714 244.503 100.14L246.767 102.108ZM249.695 91.972V67.268H246.695V91.972H249.695ZM248.195 68.768H258.435V65.768H248.195V68.768ZM256.935 67.268V92.356H259.935V67.268H256.935ZM256.935 92.356C256.935 98.6529 255.225 103.276 252.005 106.457L254.114 108.591C258.062 104.69 259.935 99.2004 259.935 92.356H256.935ZM251.999 106.463C248.811 109.651 244.265 111.336 238.147 111.336V114.336C244.829 114.336 250.225 112.48 254.12 108.585L251.999 106.463ZM297.247 102.468L298.634 101.895C298.402 101.334 297.854 100.968 297.247 100.968V102.468ZM276.447 102.468V100.968C275.84 100.968 275.293 101.334 275.061 101.895L276.447 102.468ZM272.479 112.068V113.568C273.086 113.568 273.634 113.202 273.866 112.641L272.479 112.068ZM261.855 112.068L260.485 111.457C260.279 111.921 260.321 112.459 260.597 112.885C260.874 113.311 261.347 113.568 261.855 113.568V112.068ZM281.823 67.268V65.768C281.231 65.768 280.694 66.1164 280.453 66.6573L281.823 67.268ZM292.063 67.268L293.433 66.6557C293.191 66.1157 292.655 65.768 292.063 65.768V67.268ZM312.095 112.068V113.568C312.604 113.568 313.078 113.311 313.354 112.884C313.631 112.457 313.672 111.92 313.465 111.456L312.095 112.068ZM301.215 112.068L299.829 112.641C300.061 113.202 300.608 113.568 301.215 113.568V112.068ZM293.983 94.596V96.096C294.484 96.096 294.952 95.8459 295.231 95.4294C295.509 95.0128 295.561 94.4848 295.369 94.022L293.983 94.596ZM286.879 77.444L288.265 76.87C288.033 76.3095 287.486 75.944 286.879 75.944C286.273 75.944 285.726 76.3095 285.494 76.87L286.879 77.444ZM279.775 94.596L278.39 94.022C278.198 94.4848 278.25 95.0128 278.528 95.4294C278.807 95.8459 279.274 96.096 279.775 96.096V94.596ZM297.247 100.968H276.447V103.968H297.247V100.968ZM275.061 101.895L271.093 111.495L273.866 112.641L277.834 103.041L275.061 101.895ZM272.479 110.568H261.855V113.568H272.479V110.568ZM263.225 112.679L283.193 67.8786L280.453 66.6573L260.485 111.457L263.225 112.679ZM281.823 68.768H292.063V65.768H281.823V68.768ZM290.694 67.8803L310.726 112.68L313.465 111.456L293.433 66.6557L290.694 67.8803ZM312.095 110.568H301.215V113.568H312.095V110.568ZM302.602 111.495L298.634 101.895L295.861 103.041L299.829 112.641L302.602 111.495ZM295.369 94.022L288.265 76.87L285.494 78.018L292.598 95.17L295.369 94.022ZM285.494 76.87L278.39 94.022L281.161 95.17L288.265 78.018L285.494 76.87ZM279.775 96.096H293.983V93.096H279.775V96.096Z" fill="white" mask="url(#path-1-outside-1_1_1606)"/>
</svg>
