<svg width="20" height="15" viewBox="0 0 20 15" fill="none" xmlns="http://www.w3.org/2000/svg">
<path d="M9.70339 14.0251H9.69807C9.11241 14.0209 3.93527 13.9738 2.46846 13.5773C1.44336 13.302 0.634374 12.4934 0.357875 11.4683C-0.0261096 10.0273 -0.00142224 7.25316 0.00123641 7.03174C-0.00142224 6.81145 -0.0261096 4.01417 0.356735 2.56141L0.357875 2.55724C0.631335 1.54391 1.45855 0.710238 2.46618 0.434119C2.46846 0.433359 2.47112 0.4326 2.47378 0.43222C3.92388 0.0505143 9.11165 0.00417787 9.69845 0H9.70909C10.2963 0.00417787 15.4871 0.0512739 16.9406 0.448551C17.963 0.723151 18.7716 1.53062 19.0485 2.55458C19.4466 4.00848 19.4097 6.81145 19.4059 7.04807C19.4086 7.28127 19.4321 10.0303 19.0504 11.4785L19.0493 11.4827C18.7728 12.5078 17.9638 13.316 16.9376 13.5921L16.9334 13.5933C15.4833 13.9742 10.2955 14.0209 9.70909 14.0251H9.70339ZM1.82241 2.94996C1.48514 4.23218 1.51704 6.99375 1.51742 7.02148V7.04161C1.50755 7.8073 1.54287 10.0254 1.82241 11.0755C1.958 11.5784 2.35718 11.9768 2.86308 12.1132C3.94553 12.406 8.16176 12.4979 9.70301 12.5089C11.2481 12.4979 15.4711 12.4087 16.5452 12.1276C17.0496 11.9912 17.4473 11.594 17.584 11.0903C17.8643 10.0246 17.8992 7.81755 17.889 7.05642C17.889 7.04845 17.889 7.04047 17.889 7.0325C17.903 6.25731 17.8753 4.01379 17.5851 2.95489L17.5844 2.95186C17.448 2.44671 17.0488 2.0483 16.5429 1.91195C15.4711 1.61911 11.2477 1.5272 9.70301 1.51619C8.15872 1.5272 3.94021 1.61646 2.8627 1.89713C2.36667 2.035 1.95838 2.44785 1.82241 2.94996ZM7.77094 10.0827V3.94201L13.078 7.01237L7.77094 10.0827Z" fill="white"/>
</svg>
