<svg width="122" height="35" viewBox="0 0 122 35" fill="none" xmlns="http://www.w3.org/2000/svg">
<path d="M14.8252 8.61816C17.2986 8.61816 19.585 9.0995 21.6768 10.0674H21.6777C23.8109 11.0408 25.5186 12.4906 26.79 14.4111L27.0293 14.7803C28.1845 16.6533 28.75 18.9137 28.75 21.5371C28.75 21.9018 28.7344 22.3085 28.7041 22.7559V22.7578C28.6742 23.1691 28.6442 23.5519 28.6143 23.9053L28.5752 24.3633H21.3115L21.5107 24.5615L26.7734 29.7832L27.1201 30.127L26.7842 30.4814C25.5392 31.7983 24.0026 32.8036 22.1846 33.501L22.1807 33.5029C20.3854 34.173 18.2412 34.5 15.7617 34.5C12.728 34.5 10.0493 33.9475 7.73926 32.8262L7.73633 32.8252C5.46361 31.707 3.68196 30.1717 2.40918 28.2168L2.40723 28.2139C1.13409 26.2277 0.5 23.9974 0.5 21.5371C0.500021 19.0234 1.11735 16.7783 2.3623 14.8184L2.36523 14.8135C3.63443 12.8642 5.35268 11.343 7.50879 10.252L7.51074 10.251C9.69825 9.1596 12.14 8.6182 14.8252 8.61816ZM106.817 8.61816C109.647 8.61816 112.178 9.15706 114.397 10.249C116.612 11.3387 118.349 12.86 119.591 14.8135L119.822 15.1846C120.944 17.056 121.5 19.1781 121.5 21.5371C121.5 24.0533 120.867 26.3002 119.591 28.2607C118.35 30.213 116.615 31.7475 114.402 32.8662L114.397 32.8691C112.178 33.9611 109.647 34.5 106.817 34.5C103.988 34.5 101.458 33.961 99.2383 32.8691L99.2305 32.8652C97.0471 31.7456 95.3144 30.2106 94.0449 28.2607C92.7685 26.3002 92.1357 24.0533 92.1357 21.5371C92.1358 19.0209 92.7685 16.774 94.0449 14.8135C95.3152 12.8625 97.0496 11.3416 99.2354 10.251L99.2383 10.249C101.458 9.15716 103.988 8.61821 106.817 8.61816ZM42.0098 0.5V15.3164L48.1592 9.20215L48.3047 9.05762H61.6006L60.7783 9.90527L51.0049 19.9824L61.6123 33.249L62.2617 34.0615H48.8066L48.6562 33.874L43.1006 26.9492L42.0098 28.0889V34.0615H30.9307V0.5H42.0098ZM73.8027 0.5V15.3164L79.9521 9.20215L80.0986 9.05762H93.3945L92.5723 9.90527L82.7988 19.9814L93.4062 33.249L94.0557 34.0615H80.6006L80.4502 33.874L74.8945 26.9492L73.8027 28.0898V34.0615H62.7236V0.5H73.8027ZM11.9971 24.3633C12.355 24.9364 12.8436 25.3774 13.4756 25.6904C14.1668 26.0035 15.0272 26.1719 16.0742 26.1719C17.1664 26.1719 18.0172 26.0296 18.6494 25.7705L18.6562 25.7676C19.3517 25.4938 20.0879 25.0776 20.8643 24.5117L21.0674 24.3633H11.9971ZM106.817 17.3418C106.157 17.3419 105.577 17.4969 105.065 17.7988C104.564 18.095 104.149 18.5453 103.829 19.1748L103.825 19.1826C103.519 19.761 103.349 20.5362 103.349 21.5371C103.349 22.5003 103.516 23.2969 103.829 23.9434C104.149 24.5729 104.564 25.0232 105.065 25.3193C105.577 25.6213 106.157 25.7763 106.817 25.7764C107.478 25.7764 108.059 25.6214 108.57 25.3193C109.072 25.0232 109.486 24.5729 109.806 23.9434C110.119 23.2969 110.287 22.5005 110.287 21.5371C110.287 20.5362 110.117 19.761 109.811 19.1826L109.806 19.1748C109.486 18.5453 109.072 18.095 108.57 17.7988C108.059 17.4968 107.478 17.3418 106.817 17.3418ZM14.915 16.376C14.1613 16.376 13.5249 16.5478 12.9893 16.874L12.9834 16.877C12.4805 17.1739 12.0847 17.6091 11.7969 18.2012L11.793 18.209C11.7337 18.3256 11.6815 18.4499 11.6338 18.5801H18.167C18.1168 18.456 18.0629 18.3373 18.001 18.2256L17.9941 18.2129L17.9883 18.2012C17.7004 17.609 17.3037 17.1739 16.8008 16.877L16.7939 16.873L16.7861 16.8682C16.2855 16.548 15.6693 16.376 14.915 16.376Z" stroke="white"/>
</svg>
