<svg width="64" height="61" viewBox="0 0 64 61" fill="none" xmlns="http://www.w3.org/2000/svg">
<path d="M46.8695 38.7806L33.715 15.1425C31.5929 11.3294 26.2395 10.985 23.6463 14.4948L6.82081 37.2681C3.9416 41.1651 6.63033 46.6913 11.4736 46.831L41.4536 47.6958C46.1054 47.83 49.1324 42.8471 46.8695 38.7806Z" fill="#53BD7F"/>
<path d="M15.5556 30L10.0678 39.4981C7.3715 44.1647 10.7392 50 16.1288 50H30" stroke="black" stroke-width="2"/>
<path d="M26 44L31 50L26 56" stroke="black" stroke-width="2"/>
<path d="M34.7222 50.3753L45.6917 50.3788C51.0813 50.3805 54.4509 44.5463 51.7561 39.8788L44.8205 27.866" stroke="black" stroke-width="2"/>
<path d="M41.6243 34.3301L44.3204 27L52.0166 28.3301" stroke="black" stroke-width="2"/>
<path d="M42.2388 23.0074L36.7571 13.5058C34.0638 8.83744 27.3265 8.83636 24.6317 13.5039L17.6961 25.5167" stroke="black" stroke-width="2"/>
<path d="M24.8923 25.0526L17.1962 26.3827L14.5 19.0526" stroke="black" stroke-width="2"/>
</svg>
