<svg width="46" height="49" viewBox="0 0 46 49" fill="none" xmlns="http://www.w3.org/2000/svg">
<path d="M28 33.5922L26 48.0922C18.6667 46.9255 4 38.3922 4 13.5922C13.6 11.1922 18.3333 11.9255 19.5 12.5922C28.7 6.19216 37.3333 4.25883 40.5 4.09216C42.1 23.2922 32.8333 31.7588 28 33.5922Z" fill="#53BD7F"/>
<path d="M19.1177 18.5922C21.7843 13.2588 30.5177 2.29216 44.1177 1.09216C44.1177 7.09216 47.1177 30.0922 28.6177 35.5922" stroke="black" stroke-width="2"/>
<path d="M25.6177 47.0924C24.451 42.5924 19.1177 30.1924 7.11766 16.5924M28.6177 39.0924C28.951 31.0924 24.0177 13.8924 1.61766 9.09241C-0.382371 19.0922 1.61765 44.0924 20.6177 44.0924" stroke="black" stroke-width="2"/>
<path d="M39.6177 7.59216C37.6177 9.59216 31.9177 15.9922 25.1177 25.5922" stroke="black" stroke-width="2"/>
</svg>
