<svg width="792" height="50" viewBox="0 0 792 50" fill="none" xmlns="http://www.w3.org/2000/svg">
<mask id="path-1-outside-1_1_1573" maskUnits="userSpaceOnUse" x="-0.468262" y="-0.932007" width="793" height="51" fill="black">
<rect fill="white" x="-0.468262" y="-0.932007" width="793" height="51"/>
<path d="M1.49999 2.26799H11.868V47.068H1.49999V2.26799ZM63.268 47.068L63.204 20.188L50.02 42.332H45.348L32.228 20.764V47.068H22.5V2.26799H31.076L47.844 30.108L64.356 2.26799H72.868L72.996 47.068H63.268ZM103.017 2.26799C106.985 2.26799 110.42 2.92932 113.321 4.25199C116.265 5.57466 118.526 7.45199 120.105 9.88399C121.684 12.316 122.473 15.196 122.473 18.524C122.473 21.8093 121.684 24.6893 120.105 27.164C118.526 29.596 116.265 31.4733 113.321 32.796C110.42 34.076 106.985 34.716 103.017 34.716H93.993V47.068H83.625V2.26799H103.017ZM102.441 26.268C105.556 26.268 107.924 25.6067 109.545 24.284C111.166 22.9187 111.977 20.9987 111.977 18.524C111.977 16.0067 111.166 14.0867 109.545 12.764C107.924 11.3987 105.556 10.716 102.441 10.716H93.993V26.268H102.441ZM157.129 37.468H136.329L132.361 47.068H121.737L141.705 2.26799H151.945L171.977 47.068H161.097L157.129 37.468ZM153.865 29.596L146.761 12.444L139.657 29.596H153.865ZM197.44 47.836C192.875 47.836 188.736 46.8547 185.024 44.892C181.355 42.8867 178.453 40.1347 176.32 36.636C174.229 33.0947 173.184 29.1053 173.184 24.668C173.184 20.2307 174.229 16.2627 176.32 12.764C178.453 9.22266 181.355 6.47066 185.024 4.50799C188.736 2.50266 192.896 1.49999 197.504 1.49999C201.387 1.49999 204.885 2.18266 208 3.54799C211.157 4.91333 213.803 6.87599 215.936 9.43599L209.28 15.58C206.251 12.0813 202.496 10.332 198.016 10.332C195.243 10.332 192.768 10.9507 190.592 12.188C188.416 13.3827 186.709 15.068 185.472 17.244C184.277 19.42 183.68 21.8947 183.68 24.668C183.68 27.4413 184.277 29.916 185.472 32.092C186.709 34.268 188.416 35.9747 190.592 37.212C192.768 38.4067 195.243 39.004 198.016 39.004C202.496 39.004 206.251 37.2333 209.28 33.692L215.936 39.836C213.803 42.4387 211.157 44.4227 208 45.788C204.843 47.1533 201.323 47.836 197.44 47.836ZM231.78 10.716H217.444V2.26799H256.484V10.716H242.148V47.068H231.78V10.716ZM283.133 47.836C278.483 47.836 274.28 46.8333 270.525 44.828C266.813 42.8227 263.891 40.0707 261.757 36.572C259.667 33.0307 258.621 29.0627 258.621 24.668C258.621 20.2733 259.667 16.3267 261.757 12.828C263.891 9.28666 266.813 6.51332 270.525 4.50799C274.28 2.50266 278.483 1.49999 283.133 1.49999C287.784 1.49999 291.965 2.50266 295.677 4.50799C299.389 6.51332 302.312 9.28666 304.445 12.828C306.579 16.3267 307.645 20.2733 307.645 24.668C307.645 29.0627 306.579 33.0307 304.445 36.572C302.312 40.0707 299.389 42.8227 295.677 44.828C291.965 46.8333 287.784 47.836 283.133 47.836ZM283.133 39.004C285.779 39.004 288.168 38.4067 290.301 37.212C292.435 35.9747 294.099 34.268 295.293 32.092C296.531 29.916 297.149 27.4413 297.149 24.668C297.149 21.8947 296.531 19.42 295.293 17.244C294.099 15.068 292.435 13.3827 290.301 12.188C288.168 10.9507 285.779 10.332 283.133 10.332C280.488 10.332 278.099 10.9507 275.965 12.188C273.832 13.3827 272.147 15.068 270.909 17.244C269.715 19.42 269.117 21.8947 269.117 24.668C269.117 27.4413 269.715 29.916 270.909 32.092C272.147 34.268 273.832 35.9747 275.965 37.212C278.099 38.4067 280.488 39.004 283.133 39.004ZM330.157 47.836C326.616 47.836 323.181 47.3667 319.853 46.428C316.568 45.4467 313.923 44.188 311.917 42.652L315.437 34.844C317.357 36.252 319.64 37.3827 322.285 38.236C324.931 39.0893 327.576 39.516 330.221 39.516C333.165 39.516 335.341 39.0893 336.749 38.236C338.157 37.34 338.861 36.1667 338.861 34.716C338.861 33.6493 338.435 32.7747 337.581 32.092C336.771 31.3667 335.704 30.7907 334.381 30.364C333.101 29.9373 331.352 29.468 329.133 28.956C325.72 28.1453 322.925 27.3347 320.749 26.524C318.573 25.7133 316.696 24.412 315.117 22.62C313.581 20.828 312.813 18.4387 312.813 15.452C312.813 12.8493 313.517 10.5027 314.925 8.41199C316.333 6.27866 318.445 4.59332 321.261 3.35599C324.12 2.11866 327.597 1.49999 331.693 1.49999C334.552 1.49999 337.347 1.84133 340.077 2.52399C342.808 3.20666 345.197 4.18799 347.245 5.46799L344.045 13.34C339.907 10.9933 335.768 9.81999 331.629 9.81999C328.728 9.81999 326.573 10.2893 325.165 11.228C323.8 12.1667 323.117 13.404 323.117 14.94C323.117 16.476 323.907 17.628 325.485 18.396C327.107 19.1213 329.56 19.8467 332.845 20.572C336.259 21.3827 339.053 22.1933 341.229 23.004C343.405 23.8147 345.261 25.0947 346.797 26.844C348.376 28.5933 349.165 30.9613 349.165 33.948C349.165 36.508 348.44 38.8547 346.989 40.988C345.581 43.0787 343.448 44.7427 340.589 45.98C337.731 47.2173 334.253 47.836 330.157 47.836ZM403.879 37.468H383.079L379.111 47.068H368.487L388.455 2.26799H398.695L418.727 47.068H407.847L403.879 37.468ZM400.615 29.596L393.511 12.444L386.407 29.596H400.615ZM464.143 47.068L464.079 20.188L450.895 42.332H446.223L433.103 20.764V47.068H423.375V2.26799H431.951L448.719 30.108L465.231 2.26799H473.743L473.871 47.068H464.143ZM517.396 23.772C519.956 24.5827 521.961 25.948 523.412 27.868C524.863 29.7453 525.588 32.0707 525.588 34.844C525.588 38.7693 524.052 41.7987 520.98 43.932C517.951 46.0227 513.513 47.068 507.668 47.068H484.5V2.26799H506.388C511.849 2.26799 516.031 3.31332 518.932 5.40399C521.876 7.49466 523.348 10.332 523.348 13.916C523.348 16.092 522.815 18.0333 521.748 19.74C520.724 21.4467 519.273 22.7907 517.396 23.772ZM494.804 10.076V20.636H505.108C507.668 20.636 509.609 20.188 510.932 19.292C512.255 18.396 512.916 17.0733 512.916 15.324C512.916 13.5747 512.255 12.2733 510.932 11.42C509.609 10.524 507.668 10.076 505.108 10.076H494.804ZM506.9 39.26C509.631 39.26 511.679 38.812 513.044 37.916C514.452 37.02 515.156 35.6333 515.156 33.756C515.156 30.044 512.404 28.188 506.9 28.188H494.804V39.26H506.9ZM533.437 2.26799H543.805V47.068H533.437V2.26799ZM589.125 38.748V47.068H554.437V2.26799H588.293V10.588H564.741V20.316H585.541V28.38H564.741V38.748H589.125ZM638.463 2.26799V47.068H629.951L607.615 19.868V47.068H597.375V2.26799H605.951L628.223 29.468V2.26799H638.463ZM658.342 10.716H644.006V2.26799H683.046V10.716H668.71V47.068H658.342V10.716ZM715.879 37.468H695.079L691.111 47.068H680.487L700.455 2.26799H710.695L730.727 47.068H719.847L715.879 37.468ZM712.615 29.596L705.511 12.444L698.407 29.596H712.615ZM735.375 2.26799H745.743V47.068H735.375V2.26799ZM771.095 47.836C767.554 47.836 764.119 47.3667 760.791 46.428C757.506 45.4467 754.86 44.188 752.855 42.652L756.375 34.844C758.295 36.252 760.578 37.3827 763.223 38.236C765.868 39.0893 768.514 39.516 771.159 39.516C774.103 39.516 776.279 39.0893 777.687 38.236C779.095 37.34 779.799 36.1667 779.799 34.716C779.799 33.6493 779.372 32.7747 778.519 32.092C777.708 31.3667 776.642 30.7907 775.319 30.364C774.039 29.9373 772.29 29.468 770.071 28.956C766.658 28.1453 763.863 27.3347 761.687 26.524C759.511 25.7133 757.634 24.412 756.055 22.62C754.519 20.828 753.751 18.4387 753.751 15.452C753.751 12.8493 754.455 10.5027 755.863 8.41199C757.271 6.27866 759.383 4.59332 762.199 3.35599C765.058 2.11866 768.535 1.49999 772.631 1.49999C775.49 1.49999 778.284 1.84133 781.015 2.52399C783.746 3.20666 786.135 4.18799 788.183 5.46799L784.983 13.34C780.844 10.9933 776.706 9.81999 772.567 9.81999C769.666 9.81999 767.511 10.2893 766.103 11.228C764.738 12.1667 764.055 13.404 764.055 14.94C764.055 16.476 764.844 17.628 766.423 18.396C768.044 19.1213 770.498 19.8467 773.783 20.572C777.196 21.3827 779.991 22.1933 782.167 23.004C784.343 23.8147 786.199 25.0947 787.735 26.844C789.314 28.5933 790.103 30.9613 790.103 33.948C790.103 36.508 789.378 38.8547 787.927 40.988C786.519 43.0787 784.386 44.7427 781.527 45.98C778.668 47.2173 775.191 47.836 771.095 47.836Z"/>
</mask>
<path d="M1.49998 2.26799V0.76799C0.671555 0.76799 -1.52588e-05 1.43956 -1.52588e-05 2.26799H1.49998ZM11.868 2.26799H13.368C13.368 1.43956 12.6964 0.76799 11.868 0.76799V2.26799ZM11.868 47.068V48.568C12.6964 48.568 13.368 47.8964 13.368 47.068H11.868ZM1.49998 47.068H-1.52588e-05C-1.52588e-05 47.8964 0.671555 48.568 1.49998 48.568V47.068ZM1.49998 3.76799H11.868V0.76799H1.49998V3.76799ZM10.368 2.26799V47.068H13.368V2.26799H10.368ZM11.868 45.568H1.49998V48.568H11.868V45.568ZM2.99998 47.068V2.26799H-1.52588e-05V47.068H2.99998ZM63.268 47.068L61.768 47.0716C61.77 47.8986 62.4409 48.568 63.268 48.568V47.068ZM63.204 20.188L64.704 20.1844C64.7024 19.5099 64.2508 18.9194 63.6002 18.7413C62.9496 18.5631 62.2602 18.8411 61.9151 19.4206L63.204 20.188ZM50.02 42.332V43.832C50.5487 43.832 51.0384 43.5536 51.3088 43.0993L50.02 42.332ZM45.348 42.332L44.0665 43.1116C44.3386 43.5589 44.8244 43.832 45.348 43.832V42.332ZM32.228 20.764L33.5095 19.9844C33.16 19.4099 32.4708 19.1382 31.8232 19.3196C31.1756 19.5011 30.728 20.0915 30.728 20.764H32.228ZM32.228 47.068V48.568C33.0564 48.568 33.728 47.8964 33.728 47.068H32.228ZM22.5 47.068H21C21 47.8964 21.6716 48.568 22.5 48.568V47.068ZM22.5 2.26799V0.76799C21.6716 0.76799 21 1.43956 21 2.26799H22.5ZM31.076 2.26799L32.3609 1.49408C32.0895 1.0435 31.602 0.76799 31.076 0.76799V2.26799ZM47.844 30.108L46.5591 30.8819C46.8314 31.334 47.3213 31.6098 47.8491 31.608C48.3769 31.6062 48.8649 31.3271 49.1341 30.8732L47.844 30.108ZM64.356 2.26799V0.76799C63.8264 0.76799 63.336 1.04728 63.0659 1.5028L64.356 2.26799ZM72.868 2.26799L74.368 2.2637C74.3656 1.43695 73.6947 0.76799 72.868 0.76799V2.26799ZM72.996 47.068V48.568C73.3946 48.568 73.7767 48.4094 74.0582 48.1271C74.3396 47.8449 74.4971 47.4623 74.496 47.0637L72.996 47.068ZM64.768 47.0644L64.704 20.1844L61.704 20.1916L61.768 47.0716L64.768 47.0644ZM61.9151 19.4206L48.7311 41.5646L51.3088 43.0993L64.4929 20.9553L61.9151 19.4206ZM50.02 40.832H45.348V43.832H50.02V40.832ZM46.6295 41.5524L33.5095 19.9844L30.9465 21.5436L44.0665 43.1116L46.6295 41.5524ZM30.728 20.764V47.068H33.728V20.764H30.728ZM32.228 45.568H22.5V48.568H32.228V45.568ZM24 47.068V2.26799H21V47.068H24ZM22.5 3.76799H31.076V0.76799H22.5V3.76799ZM29.7911 3.0419L46.5591 30.8819L49.1289 29.3341L32.3609 1.49408L29.7911 3.0419ZM49.1341 30.8732L65.6461 3.03318L63.0659 1.5028L46.5538 29.3428L49.1341 30.8732ZM64.356 3.76799H72.868V0.76799H64.356V3.76799ZM71.368 2.27228L71.496 47.0723L74.496 47.0637L74.368 2.2637L71.368 2.27228ZM72.996 45.568H63.268V48.568H72.996V45.568ZM113.321 4.25199L112.699 5.61687L112.706 5.62024L113.321 4.25199ZM120.105 27.164L121.363 27.9807L121.37 27.9707L120.105 27.164ZM113.321 32.796L113.926 34.1684L113.936 34.1642L113.321 32.796ZM93.993 34.716V33.216C93.1646 33.216 92.493 33.8876 92.493 34.716H93.993ZM93.993 47.068V48.568C94.8214 48.568 95.493 47.8964 95.493 47.068H93.993ZM83.625 47.068H82.125C82.125 47.8964 82.7966 48.568 83.625 48.568V47.068ZM83.625 2.26799V0.76799C82.7966 0.76799 82.125 1.43956 82.125 2.26799H83.625ZM109.545 24.284L110.493 25.4463C110.499 25.4414 110.505 25.4364 110.511 25.4314L109.545 24.284ZM109.545 12.764L108.579 13.9114C108.585 13.9164 108.591 13.9214 108.597 13.9263L109.545 12.764ZM93.993 10.716V9.21599C93.1646 9.21599 92.493 9.88757 92.493 10.716H93.993ZM93.993 26.268H92.493C92.493 27.0964 93.1646 27.768 93.993 27.768V26.268ZM103.017 3.76799C106.821 3.76799 110.034 4.40222 112.699 5.61685L113.943 2.88713C110.805 1.45643 107.149 0.76799 103.017 0.76799V3.76799ZM112.706 5.62024C115.418 6.83856 117.443 8.53741 118.847 10.7007L121.363 9.06728C119.61 6.36658 117.112 4.31075 113.936 2.88374L112.706 5.62024ZM118.847 10.7007C120.245 12.8551 120.973 15.4419 120.973 18.524H123.973C123.973 14.9501 123.122 11.7768 121.363 9.06728L118.847 10.7007ZM120.973 18.524C120.973 21.5586 120.247 24.1516 118.84 26.3573L121.37 27.9707C123.12 25.227 123.973 22.06 123.973 18.524H120.973ZM118.847 26.3473C117.443 28.5106 115.418 30.2094 112.706 31.4277L113.936 34.1642C117.112 32.7372 119.61 30.6814 121.363 27.9807L118.847 26.3473ZM112.716 31.4236C110.046 32.6011 106.827 33.216 103.017 33.216V36.216C107.143 36.216 110.793 35.5508 113.926 34.1684L112.716 31.4236ZM103.017 33.216H93.993V36.216H103.017V33.216ZM92.493 34.716V47.068H95.493V34.716H92.493ZM93.993 45.568H83.625V48.568H93.993V45.568ZM85.125 47.068V2.26799H82.125V47.068H85.125ZM83.625 3.76799H103.017V0.76799H83.625V3.76799ZM102.441 27.768C105.739 27.768 108.501 27.0718 110.493 25.4463L108.597 23.1217C107.347 24.1415 105.373 24.768 102.441 24.768V27.768ZM110.511 25.4314C112.529 23.7319 113.477 21.3588 113.477 18.524H110.477C110.477 20.6385 109.803 22.1054 108.579 23.1366L110.511 25.4314ZM113.477 18.524C113.477 15.6573 112.535 13.2676 110.493 11.6017L108.597 13.9263C109.797 14.9057 110.477 16.3561 110.477 18.524H113.477ZM110.511 11.6166C108.517 9.93764 105.748 9.21599 102.441 9.21599V12.216C105.363 12.216 107.33 12.8597 108.579 13.9114L110.511 11.6166ZM102.441 9.21599H93.993V12.216H102.441V9.21599ZM92.493 10.716V26.268H95.493V10.716H92.493ZM93.993 27.768H102.441V24.768H93.993V27.768ZM157.129 37.468L158.515 36.895C158.283 36.3339 157.736 35.968 157.129 35.968V37.468ZM136.329 37.468V35.968C135.722 35.968 135.175 36.3339 134.943 36.895L136.329 37.468ZM132.361 47.068V48.568C132.968 48.568 133.515 48.202 133.747 47.641L132.361 47.068ZM121.737 47.068L120.367 46.4573C120.16 46.9214 120.202 47.4586 120.479 47.8847C120.755 48.3108 121.229 48.568 121.737 48.568V47.068ZM141.705 2.26799V0.76799C141.113 0.76799 140.576 1.11642 140.335 1.65733L141.705 2.26799ZM151.945 2.26799L153.314 1.6557C153.073 1.11567 152.537 0.76799 151.945 0.76799V2.26799ZM171.977 47.068V48.568C172.485 48.568 172.959 48.3105 173.236 47.8839C173.512 47.4574 173.554 46.9198 173.346 46.4557L171.977 47.068ZM161.097 47.068L159.711 47.641C159.943 48.202 160.49 48.568 161.097 48.568V47.068ZM153.865 29.596V31.096C154.366 31.096 154.834 30.8459 155.112 30.4294C155.391 30.0128 155.443 29.4848 155.251 29.022L153.865 29.596ZM146.761 12.444L148.147 11.87C147.915 11.3095 147.368 10.944 146.761 10.944C146.154 10.944 145.607 11.3095 145.375 11.87L146.761 12.444ZM139.657 29.596L138.271 29.022C138.079 29.4848 138.131 30.0128 138.41 30.4294C138.688 30.8459 139.156 31.096 139.657 31.096V29.596ZM157.129 35.968H136.329V38.968H157.129V35.968ZM134.943 36.895L130.975 46.495L133.747 47.641L137.715 38.041L134.943 36.895ZM132.361 45.568H121.737V48.568H132.361V45.568ZM123.107 47.6787L143.075 2.87865L140.335 1.65733L120.367 46.4573L123.107 47.6787ZM141.705 3.76799H151.945V0.76799H141.705V3.76799ZM150.576 2.88028L170.608 47.6803L173.346 46.4557L153.314 1.6557L150.576 2.88028ZM171.977 45.568H161.097V48.568H171.977V45.568ZM162.483 46.495L158.515 36.895L155.743 38.041L159.711 47.641L162.483 46.495ZM155.251 29.022L148.147 11.87L145.375 13.018L152.479 30.17L155.251 29.022ZM145.375 11.87L138.271 29.022L141.043 30.17L148.147 13.018L145.375 11.87ZM139.657 31.096H153.865V28.096H139.657V31.096ZM185.024 44.892L184.305 46.2083C184.311 46.2116 184.317 46.2148 184.323 46.218L185.024 44.892ZM176.32 36.636L175.028 37.3986C175.032 37.4047 175.036 37.4108 175.039 37.4169L176.32 36.636ZM176.32 12.764L175.035 11.99L175.032 11.9946L176.32 12.764ZM185.024 4.50799L185.731 5.83068L185.737 5.82772L185.024 4.50799ZM208 3.54799L207.398 4.92181L207.405 4.92478L208 3.54799ZM215.936 9.43599L216.953 10.5382C217.54 9.99633 217.6 9.08944 217.088 8.47572L215.936 9.43599ZM209.28 15.58L208.146 16.5619C208.412 16.8689 208.791 17.055 209.196 17.0777C209.602 17.1003 209.999 16.9576 210.297 16.6822L209.28 15.58ZM190.592 12.188L191.314 13.5029C191.32 13.4993 191.327 13.4956 191.333 13.4919L190.592 12.188ZM185.472 17.244L184.168 16.5025C184.164 16.509 184.161 16.5156 184.157 16.5221L185.472 17.244ZM185.472 32.092L184.157 32.8139C184.161 32.8204 184.164 32.827 184.168 32.8334L185.472 32.092ZM190.592 37.212L189.851 38.5159C189.857 38.5196 189.864 38.5233 189.87 38.5269L190.592 37.212ZM209.28 33.692L210.297 32.5898C209.998 32.3133 209.599 32.1706 209.192 32.1946C208.785 32.2186 208.405 32.4072 208.14 32.7169L209.28 33.692ZM215.936 39.836L217.096 40.7869C217.6 40.1727 217.537 39.2725 216.953 38.7338L215.936 39.836ZM208 45.788L207.405 44.4112V44.4112L208 45.788ZM197.44 46.336C193.097 46.336 189.203 45.4046 185.725 43.5659L184.323 46.218C188.269 48.3047 192.652 49.336 197.44 49.336V46.336ZM185.743 43.5757C182.3 41.6938 179.594 39.1244 177.601 35.8551L175.039 37.4169C177.312 41.1449 180.409 44.0795 184.305 46.2083L185.743 43.5757ZM177.612 35.8734C175.668 32.5813 174.684 28.859 174.684 24.668H171.684C171.684 29.3516 172.791 33.6081 175.028 37.3986L177.612 35.8734ZM174.684 24.668C174.684 20.4768 175.668 16.7791 177.608 13.5334L175.032 11.9946C172.79 15.7463 171.684 19.9845 171.684 24.668H174.684ZM177.605 13.538C179.598 10.2298 182.299 7.6667 185.731 5.83067L184.316 3.18532C180.41 5.27462 177.309 8.21547 175.035 11.99L177.605 13.538ZM185.737 5.82772C189.21 3.95139 193.121 2.99999 197.504 2.99999V-7.62939e-06C192.671 -7.62939e-06 188.262 1.05393 184.311 3.18826L185.737 5.82772ZM197.504 2.99999C201.209 2.99999 204.498 3.65069 207.398 4.9218L208.602 2.17419C205.273 0.714631 201.565 -7.62939e-06 197.504 -7.62939e-06V2.99999ZM207.405 4.92478C210.353 6.19994 212.806 8.02275 214.784 10.3963L217.088 8.47572C214.8 5.72923 211.961 3.62671 208.595 2.17121L207.405 4.92478ZM214.919 8.33379L208.263 14.4778L210.297 16.6822L216.953 10.5382L214.919 8.33379ZM210.414 14.5981C207.111 10.7828 202.947 8.83199 198.016 8.83199V11.832C202.045 11.832 205.391 13.3798 208.146 16.5619L210.414 14.5981ZM198.016 8.83199C195.011 8.83199 192.276 9.50473 189.851 10.8841L191.333 13.4919C193.26 12.3966 195.474 11.832 198.016 11.832V8.83199ZM189.87 10.8731C187.449 12.2026 185.541 14.0874 184.168 16.5025L186.776 17.9854C187.877 16.0486 189.383 14.5627 191.314 13.5029L189.87 10.8731ZM184.157 16.5221C182.827 18.9443 182.18 21.6724 182.18 24.668H185.18C185.18 22.1169 185.727 19.8957 186.787 17.9659L184.157 16.5221ZM182.18 24.668C182.18 27.6636 182.827 30.3917 184.157 32.8139L186.787 31.3701C185.727 29.4403 185.18 27.2191 185.18 24.668H182.18ZM184.168 32.8334C185.539 35.2441 187.44 37.1451 189.851 38.5159L191.333 35.9081C189.392 34.8042 187.88 33.2918 186.776 31.3505L184.168 32.8334ZM189.87 38.5269C192.292 39.8567 195.02 40.504 198.016 40.504V37.504C195.465 37.504 193.244 36.9566 191.314 35.8971L189.87 38.5269ZM198.016 40.504C202.954 40.504 207.119 38.5262 210.42 34.667L208.14 32.7169C205.383 35.9405 202.038 37.504 198.016 37.504V40.504ZM208.263 34.7942L214.919 40.9382L216.953 38.7338L210.297 32.5898L208.263 34.7942ZM214.776 38.8851C212.798 41.2986 210.348 43.1386 207.405 44.4112L208.595 47.1648C211.967 45.7067 214.808 43.5787 217.096 40.7869L214.776 38.8851ZM207.405 44.4112C204.458 45.6854 201.144 46.336 197.44 46.336V49.336C201.501 49.336 205.227 48.6212 208.595 47.1648L207.405 44.4112ZM231.78 10.716H233.28C233.28 9.88757 232.608 9.21599 231.78 9.21599V10.716ZM217.444 10.716H215.944C215.944 11.5444 216.616 12.216 217.444 12.216V10.716ZM217.444 2.26799V0.76799C216.616 0.76799 215.944 1.43956 215.944 2.26799H217.444ZM256.484 2.26799H257.984C257.984 1.43956 257.312 0.76799 256.484 0.76799V2.26799ZM256.484 10.716V12.216C257.312 12.216 257.984 11.5444 257.984 10.716H256.484ZM242.148 10.716V9.21599C241.32 9.21599 240.648 9.88757 240.648 10.716H242.148ZM242.148 47.068V48.568C242.976 48.568 243.648 47.8964 243.648 47.068H242.148ZM231.78 47.068H230.28C230.28 47.8964 230.952 48.568 231.78 48.568V47.068ZM231.78 9.21599H217.444V12.216H231.78V9.21599ZM218.944 10.716V2.26799H215.944V10.716H218.944ZM217.444 3.76799H256.484V0.76799H217.444V3.76799ZM254.984 2.26799V10.716H257.984V2.26799H254.984ZM256.484 9.21599H242.148V12.216H256.484V9.21599ZM240.648 10.716V47.068H243.648V10.716H240.648ZM242.148 45.568H231.78V48.568H242.148V45.568ZM233.28 47.068V10.716H230.28V47.068H233.28ZM270.525 44.828L269.813 46.1477L269.819 46.1511L270.525 44.828ZM261.757 36.572L260.466 37.3346C260.469 37.3407 260.473 37.3468 260.477 37.3529L261.757 36.572ZM261.757 12.828L260.473 12.054L260.47 12.0586L261.757 12.828ZM270.525 4.50799L269.819 3.18486L269.813 3.18826L270.525 4.50799ZM304.445 12.828L303.161 13.602L303.165 13.6089L304.445 12.828ZM304.445 36.572L305.726 37.3529L305.73 37.346L304.445 36.572ZM295.677 44.828L296.39 46.1477L295.677 44.828ZM290.301 37.212L291.034 38.5208C291.041 38.5171 291.048 38.5133 291.054 38.5095L290.301 37.212ZM295.293 32.092L293.99 31.3505C293.986 31.357 293.982 31.3636 293.979 31.3701L295.293 32.092ZM295.293 17.244L293.979 17.9659C293.982 17.9724 293.986 17.979 293.99 17.9854L295.293 17.244ZM290.301 12.188L289.549 13.4855C289.555 13.4893 289.562 13.4931 289.569 13.4968L290.301 12.188ZM275.965 12.188L276.698 13.4968C276.705 13.4931 276.712 13.4893 276.718 13.4855L275.965 12.188ZM270.909 17.244L269.606 16.5025C269.602 16.509 269.598 16.5156 269.595 16.5221L270.909 17.244ZM270.909 32.092L269.595 32.8139C269.598 32.8204 269.602 32.827 269.606 32.8334L270.909 32.092ZM275.965 37.212L275.213 38.5095C275.219 38.5133 275.226 38.5171 275.233 38.5208L275.965 37.212ZM283.133 46.336C278.706 46.336 274.75 45.3836 271.232 43.5049L269.819 46.1511C273.811 48.2831 278.26 49.336 283.133 49.336V46.336ZM271.238 43.5083C267.753 41.6252 265.029 39.0561 263.038 35.7911L260.477 37.3529C262.753 41.0852 265.874 44.0201 269.813 46.1477L271.238 43.5083ZM263.049 35.8094C261.104 32.515 260.121 28.8135 260.121 24.668H257.121C257.121 29.3118 258.229 33.5463 260.466 37.3346L263.049 35.8094ZM260.121 24.668C260.121 20.5223 261.104 16.8453 263.045 13.5974L260.47 12.0586C258.229 15.808 257.121 20.0243 257.121 24.668H260.121ZM263.042 13.602C265.034 10.2953 267.757 7.70831 271.238 5.82772L269.813 3.18826C265.87 5.31834 262.747 8.27797 260.473 12.054L263.042 13.602ZM271.232 5.83111C274.75 3.95242 278.706 2.99999 283.133 2.99999V-7.62939e-06C278.26 -7.62939e-06 273.811 1.0529 269.819 3.18488L271.232 5.83111ZM283.133 2.99999C287.561 2.99999 291.493 3.95248 294.965 5.82772L296.39 3.18826C292.438 1.05284 288.007 -7.62939e-06 283.133 -7.62939e-06V2.99999ZM294.965 5.82772C298.446 7.70831 301.169 10.2953 303.161 13.602L305.73 12.054C303.456 8.27797 300.333 5.31834 296.39 3.18826L294.965 5.82772ZM303.165 13.6089C305.144 16.8552 306.146 20.5281 306.146 24.668H309.146C309.146 20.0186 308.013 15.7981 305.726 12.0471L303.165 13.6089ZM306.146 24.668C306.146 28.8078 305.144 32.5051 303.161 35.798L305.73 37.346C308.013 33.5562 309.146 29.3175 309.146 24.668H306.146ZM303.165 35.7911C301.174 39.0561 298.45 41.6252 294.965 43.5083L296.39 46.1477C300.329 44.0201 303.45 41.0852 305.726 37.3529L303.165 35.7911ZM294.965 43.5083C291.493 45.3835 287.561 46.336 283.133 46.336V49.336C288.007 49.336 292.438 48.2831 296.39 46.1477L294.965 43.5083ZM283.133 40.504C286.014 40.504 288.659 39.851 291.034 38.5208L289.569 35.9032C287.677 36.9623 285.544 37.504 283.133 37.504V40.504ZM291.054 38.5095C293.425 37.1342 295.283 35.2277 296.608 32.8139L293.979 31.3701C292.915 33.3082 291.444 34.8152 289.549 35.9144L291.054 38.5095ZM296.597 32.8334C297.977 30.4077 298.649 27.6726 298.649 24.668H295.649C295.649 27.2101 295.085 29.4242 293.99 31.3505L296.597 32.8334ZM298.649 24.668C298.649 21.6634 297.977 18.9282 296.597 16.5025L293.99 17.9854C295.085 19.9117 295.649 22.1259 295.649 24.668H298.649ZM296.608 16.5221C295.281 14.1038 293.417 12.2134 291.034 10.8792L289.569 13.4968C291.453 14.552 292.917 16.0322 293.979 17.9659L296.608 16.5221ZM291.054 10.8904C288.676 9.51088 286.023 8.83199 283.133 8.83199V11.832C285.534 11.832 287.661 12.3904 289.549 13.4855L291.054 10.8904ZM283.133 8.83199C280.244 8.83199 277.591 9.51088 275.213 10.8904L276.718 13.4855C278.606 12.3904 280.733 11.832 283.133 11.832V8.83199ZM275.233 10.8792C272.855 12.2107 270.975 14.0949 269.606 16.5025L272.213 17.9854C273.319 16.0411 274.809 14.5546 276.698 13.4968L275.233 10.8792ZM269.595 16.5221C268.265 18.9443 267.617 21.6724 267.617 24.668H270.617C270.617 22.1169 271.165 19.8957 272.224 17.9659L269.595 16.5221ZM267.617 24.668C267.617 27.6636 268.265 30.3917 269.595 32.8139L272.224 31.3701C271.165 29.4403 270.617 27.2191 270.617 24.668H267.617ZM269.606 32.8334C270.972 35.2367 272.846 37.1368 275.213 38.5095L276.718 35.9144C274.818 34.8125 273.322 33.2993 272.213 31.3505L269.606 32.8334ZM275.233 38.5208C277.608 39.851 280.253 40.504 283.133 40.504V37.504C280.723 37.504 278.59 36.9623 276.698 35.9032L275.233 38.5208ZM319.854 46.428L319.424 47.8652C319.432 47.8674 319.439 47.8696 319.446 47.8717L319.854 46.428ZM311.917 42.652L310.55 42.0355C310.264 42.6706 310.452 43.4192 311.005 43.8428L311.917 42.652ZM315.438 34.844L316.325 33.6344C315.96 33.3668 315.493 33.2782 315.056 33.3934C314.618 33.5085 314.256 33.815 314.07 34.2275L315.438 34.844ZM322.285 38.236L322.746 36.8084V36.8084L322.285 38.236ZM336.75 38.236L337.527 39.5188C337.536 39.5131 337.546 39.5074 337.555 39.5015L336.75 38.236ZM337.581 32.092L336.581 33.2099C336.602 33.2282 336.623 33.2461 336.644 33.2633L337.581 32.092ZM334.381 30.364L333.907 31.787C333.912 31.7886 333.916 31.7901 333.921 31.7916L334.381 30.364ZM329.133 28.956L328.787 30.4154L328.796 30.4176L329.133 28.956ZM320.75 26.524L321.273 25.1184V25.1184L320.75 26.524ZM315.117 22.62L313.979 23.5962C313.983 23.6013 313.987 23.6064 313.992 23.6115L315.117 22.62ZM314.925 8.41199L316.17 9.24993L316.177 9.23825L314.925 8.41199ZM321.261 3.35599L320.666 1.97939L320.658 1.98271L321.261 3.35599ZM340.078 2.52399L340.441 1.06878V1.06878L340.078 2.52399ZM347.245 5.46799L348.635 6.03286C348.91 5.35744 348.659 4.58241 348.04 4.19599L347.245 5.46799ZM344.045 13.34L343.306 14.6448C343.681 14.8577 344.13 14.8986 344.538 14.7569C344.946 14.6152 345.273 14.3047 345.435 13.9049L344.045 13.34ZM325.165 11.228L324.333 9.97992C324.328 9.98388 324.322 9.98788 324.316 9.99193L325.165 11.228ZM325.485 18.396L324.829 19.7448C324.844 19.7519 324.858 19.7587 324.873 19.7652L325.485 18.396ZM332.845 20.572L333.192 19.1126C333.184 19.1108 333.177 19.109 333.169 19.1073L332.845 20.572ZM341.229 23.004L341.753 21.5984V21.5984L341.229 23.004ZM346.797 26.844L345.67 27.8337C345.675 27.8388 345.679 27.8439 345.684 27.8489L346.797 26.844ZM346.99 40.988L345.749 40.1445L345.745 40.1501L346.99 40.988ZM340.589 45.98L339.994 44.6034V44.6034L340.589 45.98ZM330.157 46.336C326.75 46.336 323.453 45.8847 320.261 44.9843L319.446 47.8717C322.91 48.8486 326.482 49.336 330.157 49.336V46.336ZM320.283 44.9907C317.114 44.0441 314.649 42.8546 312.83 41.4612L311.005 43.8428C313.197 45.5214 316.023 46.8492 319.424 47.8652L320.283 44.9907ZM313.285 43.2685L316.805 35.4605L314.07 34.2275L310.55 42.0355L313.285 43.2685ZM314.55 36.0536C316.62 37.571 319.052 38.769 321.825 39.6636L322.746 36.8084C320.229 35.9964 318.095 34.933 316.325 33.6344L314.55 36.0536ZM321.825 39.6636C324.612 40.5624 327.412 41.016 330.221 41.016V38.016C327.74 38.016 325.25 37.6162 322.746 36.8084L321.825 39.6636ZM330.221 41.016C333.253 41.016 335.764 40.587 337.527 39.5188L335.972 36.9532C334.919 37.5917 333.078 38.016 330.221 38.016V41.016ZM337.555 39.5015C339.319 38.3788 340.362 36.764 340.362 34.716H337.362C337.362 35.5693 336.996 36.3012 335.944 36.9705L337.555 39.5015ZM340.362 34.716C340.362 33.1808 339.718 31.8799 338.519 30.9207L336.644 33.2633C337.152 33.6694 337.362 34.1178 337.362 34.716H340.362ZM338.582 30.9741C337.578 30.0759 336.311 29.4103 334.842 28.9364L333.921 31.7916C335.097 32.1711 335.964 32.6574 336.581 33.2099L338.582 30.9741ZM334.856 28.941C333.511 28.4926 331.709 28.0109 329.471 27.4944L328.796 30.4176C330.995 30.9251 332.692 31.3821 333.907 31.787L334.856 28.941ZM329.48 27.4966C326.1 26.6938 323.37 25.8996 321.273 25.1184L320.226 27.9296C322.481 28.7697 325.34 29.5969 328.787 30.4154L329.48 27.4966ZM321.273 25.1184C319.336 24.3965 317.663 23.2404 316.243 21.6284L313.992 23.6115C315.729 25.5836 317.811 27.0301 320.226 27.9296L321.273 25.1184ZM316.256 21.6438C315.01 20.1897 314.313 18.1783 314.313 15.452H311.313C311.313 18.699 312.153 21.4663 313.979 23.5962L316.256 21.6438ZM314.313 15.452C314.313 13.1376 314.934 11.0845 316.17 9.24989L313.681 7.57409C312.101 9.92079 311.313 12.5611 311.313 15.452H314.313ZM316.177 9.23825C317.397 7.39102 319.259 5.87434 321.865 4.72927L320.658 1.98271C317.632 3.31231 315.27 5.1663 313.674 7.58573L316.177 9.23825ZM321.857 4.73257C324.479 3.59795 327.741 2.99999 331.693 2.99999V-7.62939e-06C327.454 -7.62939e-06 323.762 0.639362 320.666 1.97941L321.857 4.73257ZM331.693 2.99999C334.431 2.99999 337.104 3.32675 339.714 3.9792L340.441 1.06878C337.59 0.355902 334.673 -7.62939e-06 331.693 -7.62939e-06V2.99999ZM339.714 3.9792C342.317 4.62992 344.556 5.55574 346.451 6.73999L348.04 4.19599C345.839 2.82025 343.3 1.7834 340.441 1.06878L339.714 3.9792ZM345.856 4.90312L342.656 12.7751L345.435 13.9049L348.635 6.03286L345.856 4.90312ZM344.785 12.0352C340.455 9.57994 336.064 8.31999 331.63 8.31999V11.32C335.472 11.32 339.358 12.4067 343.306 14.6448L344.785 12.0352ZM331.63 8.31999C328.62 8.31999 326.108 8.797 324.333 9.97992L325.998 12.4761C327.039 11.7817 328.836 11.32 331.63 11.32V8.31999ZM324.316 9.99193C322.581 11.1845 321.617 12.8659 321.617 14.94H324.617C324.617 13.9421 325.019 13.1489 326.015 12.4641L324.316 9.99193ZM321.617 14.94C321.617 15.979 321.889 16.9533 322.472 17.8038C323.047 18.6429 323.865 19.2759 324.829 19.7448L326.142 17.0471C325.527 16.7481 325.161 16.4211 324.947 16.1081C324.74 15.8066 324.617 15.4369 324.617 14.94H321.617ZM324.873 19.7652C326.636 20.554 329.209 21.3052 332.522 22.0367L333.169 19.1073C329.911 18.3881 327.578 17.6887 326.098 17.0268L324.873 19.7652ZM332.499 22.0314C335.879 22.8342 338.609 23.6284 340.706 24.4096L341.753 21.5984C339.498 20.7582 336.638 19.9311 333.192 19.1126L332.499 22.0314ZM340.706 24.4096C342.649 25.1334 344.298 26.2703 345.67 27.8337L347.925 25.8543C346.225 23.919 344.162 22.4959 341.753 21.5984L340.706 24.4096ZM345.684 27.8489C346.953 29.2548 347.665 31.2298 347.665 33.948H350.665C350.665 30.6929 349.8 27.9318 347.911 25.839L345.684 27.8489ZM347.665 33.948C347.665 36.2047 347.032 38.2579 345.749 40.1445L348.23 41.8315C349.848 39.4514 350.665 36.8113 350.665 33.948H347.665ZM345.745 40.1501C344.532 41.9524 342.651 43.4531 339.994 44.6034L341.185 47.3566C344.245 46.0322 346.631 44.2049 348.234 41.8259L345.745 40.1501ZM339.994 44.6034C337.372 45.738 334.11 46.336 330.157 46.336V49.336C334.397 49.336 338.089 48.6966 341.185 47.3566L339.994 44.6034ZM403.879 37.468L405.265 36.895C405.033 36.3339 404.486 35.968 403.879 35.968V37.468ZM383.079 37.468V35.968C382.472 35.968 381.925 36.3339 381.693 36.895L383.079 37.468ZM379.111 47.068V48.568C379.718 48.568 380.265 48.202 380.497 47.641L379.111 47.068ZM368.487 47.068L367.117 46.4573C366.91 46.9214 366.952 47.4586 367.229 47.8847C367.505 48.3108 367.979 48.568 368.487 48.568V47.068ZM388.455 2.26799V0.76799C387.863 0.76799 387.326 1.11642 387.085 1.65733L388.455 2.26799ZM398.695 2.26799L400.064 1.6557C399.823 1.11567 399.287 0.76799 398.695 0.76799V2.26799ZM418.727 47.068V48.568C419.235 48.568 419.709 48.3105 419.986 47.8839C420.262 47.4574 420.304 46.9198 420.096 46.4557L418.727 47.068ZM407.847 47.068L406.461 47.641C406.693 48.202 407.24 48.568 407.847 48.568V47.068ZM400.615 29.596V31.096C401.116 31.096 401.584 30.8459 401.862 30.4294C402.141 30.0128 402.193 29.4848 402.001 29.022L400.615 29.596ZM393.511 12.444L394.897 11.87C394.665 11.3095 394.118 10.944 393.511 10.944C392.904 10.944 392.357 11.3095 392.125 11.87L393.511 12.444ZM386.407 29.596L385.021 29.022C384.829 29.4848 384.881 30.0128 385.16 30.4294C385.438 30.8459 385.906 31.096 386.407 31.096V29.596ZM403.879 35.968H383.079V38.968H403.879V35.968ZM381.693 36.895L377.725 46.495L380.497 47.641L384.465 38.041L381.693 36.895ZM379.111 45.568H368.487V48.568H379.111V45.568ZM369.857 47.6787L389.825 2.87865L387.085 1.65733L367.117 46.4573L369.857 47.6787ZM388.455 3.76799H398.695V0.76799H388.455V3.76799ZM397.326 2.88028L417.358 47.6803L420.096 46.4557L400.064 1.6557L397.326 2.88028ZM418.727 45.568H407.847V48.568H418.727V45.568ZM409.233 46.495L405.265 36.895L402.493 38.041L406.461 47.641L409.233 46.495ZM402.001 29.022L394.897 11.87L392.125 13.018L399.229 30.17L402.001 29.022ZM392.125 11.87L385.021 29.022L387.793 30.17L394.897 13.018L392.125 11.87ZM386.407 31.096H400.615V28.096H386.407V31.096ZM464.143 47.068L462.643 47.0716C462.645 47.8986 463.316 48.568 464.143 48.568V47.068ZM464.079 20.188L465.579 20.1844C465.577 19.5099 465.126 18.9194 464.475 18.7413C463.825 18.5631 463.135 18.8411 462.79 19.4206L464.079 20.188ZM450.895 42.332V43.832C451.424 43.832 451.913 43.5536 452.184 43.0993L450.895 42.332ZM446.223 42.332L444.941 43.1116C445.214 43.5589 445.699 43.832 446.223 43.832V42.332ZM433.103 20.764L434.385 19.9844C434.035 19.4099 433.346 19.1382 432.698 19.3196C432.051 19.5011 431.603 20.0915 431.603 20.764H433.103ZM433.103 47.068V48.568C433.931 48.568 434.603 47.8964 434.603 47.068H433.103ZM423.375 47.068H421.875C421.875 47.8964 422.547 48.568 423.375 48.568V47.068ZM423.375 2.26799V0.76799C422.547 0.76799 421.875 1.43956 421.875 2.26799H423.375ZM431.951 2.26799L433.236 1.49408C432.965 1.0435 432.477 0.76799 431.951 0.76799V2.26799ZM448.719 30.108L447.434 30.8819C447.706 31.334 448.196 31.6098 448.724 31.608C449.252 31.6062 449.74 31.3271 450.009 30.8732L448.719 30.108ZM465.231 2.26799V0.76799C464.701 0.76799 464.211 1.04728 463.941 1.5028L465.231 2.26799ZM473.743 2.26799L475.243 2.2637C475.241 1.43695 474.57 0.76799 473.743 0.76799V2.26799ZM473.871 47.068V48.568C474.27 48.568 474.652 48.4094 474.933 48.1271C475.215 47.8449 475.372 47.4623 475.371 47.0637L473.871 47.068ZM465.643 47.0644L465.579 20.1844L462.579 20.1916L462.643 47.0716L465.643 47.0644ZM462.79 19.4206L449.606 41.5646L452.184 43.0993L465.368 20.9553L462.79 19.4206ZM450.895 40.832H446.223V43.832H450.895V40.832ZM447.505 41.5524L434.385 19.9844L431.821 21.5436L444.941 43.1116L447.505 41.5524ZM431.603 20.764V47.068H434.603V20.764H431.603ZM433.103 45.568H423.375V48.568H433.103V45.568ZM424.875 47.068V2.26799H421.875V47.068H424.875ZM423.375 3.76799H431.951V0.76799H423.375V3.76799ZM430.666 3.0419L447.434 30.8819L450.004 29.3341L433.236 1.49408L430.666 3.0419ZM450.009 30.8732L466.521 3.03318L463.941 1.5028L447.429 29.3428L450.009 30.8732ZM465.231 3.76799H473.743V0.76799H465.231V3.76799ZM472.243 2.27228L472.371 47.0723L475.371 47.0637L475.243 2.2637L472.243 2.27228ZM473.871 45.568H464.143V48.568H473.871V45.568ZM517.396 23.772L516.701 22.4427C516.164 22.7233 515.849 23.2995 515.902 23.9031C515.955 24.5066 516.366 25.0191 516.943 25.202L517.396 23.772ZM523.412 27.868L522.215 28.7722C522.218 28.7766 522.222 28.7809 522.225 28.7852L523.412 27.868ZM520.98 43.932L521.832 45.1665L521.836 45.164L520.98 43.932ZM484.5 47.068H483C483 47.8964 483.672 48.568 484.5 48.568V47.068ZM484.5 2.26799V0.76799C483.672 0.76799 483 1.43956 483 2.26799H484.5ZM518.932 5.40399L518.055 6.62098L518.063 6.62698L518.932 5.40399ZM521.748 19.74L520.476 18.945C520.471 18.9527 520.466 18.9605 520.462 18.9682L521.748 19.74ZM494.804 10.076V8.57599C493.976 8.57599 493.304 9.24757 493.304 10.076H494.804ZM494.804 20.636H493.304C493.304 21.4644 493.976 22.136 494.804 22.136V20.636ZM510.932 11.42L510.091 12.6619C510.1 12.6682 510.109 12.6744 510.119 12.6804L510.932 11.42ZM513.044 37.916L512.239 36.6505C512.233 36.6543 512.227 36.6581 512.221 36.6619L513.044 37.916ZM494.804 28.188V26.688C493.976 26.688 493.304 27.3596 493.304 28.188H494.804ZM494.804 39.26H493.304C493.304 40.0884 493.976 40.76 494.804 40.76V39.26ZM516.943 25.202C519.243 25.9301 520.974 27.1288 522.215 28.7722L524.609 26.9637C522.949 24.7672 520.669 23.2352 517.849 22.342L516.943 25.202ZM522.225 28.7852C523.44 30.3571 524.088 32.3442 524.088 34.844H527.088C527.088 31.7971 526.286 29.1335 524.599 26.9508L522.225 28.7852ZM524.088 34.844C524.088 38.3067 522.77 40.863 520.124 42.6999L521.836 45.164C525.334 42.7343 527.088 39.2319 527.088 34.844H524.088ZM520.128 42.6975C517.457 44.5407 513.374 45.568 507.668 45.568V48.568C513.653 48.568 518.444 47.5046 521.832 45.1665L520.128 42.6975ZM507.668 45.568H484.5V48.568H507.668V45.568ZM486 47.068V2.26799H483V47.068H486ZM484.5 3.76799H506.388V0.76799H484.5V3.76799ZM506.388 3.76799C511.69 3.76799 515.512 4.78824 518.055 6.62095L519.809 4.18703C516.55 1.83841 512.008 0.76799 506.388 0.76799V3.76799ZM518.063 6.62698C520.615 8.43884 521.848 10.8222 521.848 13.916H524.848C524.848 9.84179 523.137 6.55048 519.8 4.181L518.063 6.62698ZM521.848 13.916C521.848 15.8346 521.382 17.4961 520.476 18.945L523.02 20.535C524.248 18.5706 524.848 16.3494 524.848 13.916H521.848ZM520.462 18.9682C519.589 20.4228 518.35 21.5806 516.701 22.4427L518.091 25.1013C520.196 24.0007 521.859 22.4705 523.034 20.5117L520.462 18.9682ZM493.304 10.076V20.636H496.304V10.076H493.304ZM494.804 22.136H505.108V19.136H494.804V22.136ZM505.108 22.136C507.803 22.136 510.094 21.6716 511.773 20.5339L510.091 18.0501C509.125 18.7044 507.533 19.136 505.108 19.136V22.136ZM511.773 20.5339C513.552 19.329 514.416 17.5153 514.416 15.324H511.416C511.416 16.6314 510.957 17.463 510.091 18.0501L511.773 20.5339ZM514.416 15.324C514.416 13.1323 513.55 11.3236 511.745 10.1595L510.119 12.6804C510.96 13.223 511.416 14.017 511.416 15.324H514.416ZM511.773 10.1781C510.094 9.04039 507.803 8.57599 505.108 8.57599V11.576C507.533 11.576 509.125 12.0076 510.091 12.6619L511.773 10.1781ZM505.108 8.57599H494.804V11.576H505.108V8.57599ZM506.9 40.76C509.747 40.76 512.143 40.3016 513.867 39.1701L512.221 36.6619C511.215 37.3224 509.514 37.76 506.9 37.76V40.76ZM513.849 39.1815C515.75 37.9718 516.656 36.0704 516.656 33.756H513.656C513.656 35.1962 513.154 36.0682 512.239 36.6505L513.849 39.1815ZM516.656 33.756C516.656 31.4704 515.774 29.5798 513.931 28.3364C512.192 27.1639 509.773 26.688 506.9 26.688V29.688C509.53 29.688 511.24 30.1401 512.253 30.8236C513.162 31.4362 513.656 32.3296 513.656 33.756H516.656ZM506.9 26.688H494.804V29.688H506.9V26.688ZM493.304 28.188V39.26H496.304V28.188H493.304ZM494.804 40.76H506.9V37.76H494.804V40.76ZM533.438 2.26799V0.76799C532.609 0.76799 531.938 1.43956 531.938 2.26799H533.438ZM543.805 2.26799H545.305C545.305 1.43956 544.634 0.76799 543.805 0.76799V2.26799ZM543.805 47.068V48.568C544.634 48.568 545.305 47.8964 545.305 47.068H543.805ZM533.438 47.068H531.938C531.938 47.8964 532.609 48.568 533.438 48.568V47.068ZM533.438 3.76799H543.805V0.76799H533.438V3.76799ZM542.305 2.26799V47.068H545.305V2.26799H542.305ZM543.805 45.568H533.438V48.568H543.805V45.568ZM534.938 47.068V2.26799H531.938V47.068H534.938ZM589.125 38.748H590.625C590.625 37.9196 589.954 37.248 589.125 37.248V38.748ZM589.125 47.068V48.568C589.954 48.568 590.625 47.8964 590.625 47.068H589.125ZM554.438 47.068H552.938C552.938 47.8964 553.609 48.568 554.438 48.568V47.068ZM554.438 2.26799V0.76799C553.609 0.76799 552.938 1.43956 552.938 2.26799H554.438ZM588.294 2.26799H589.794C589.794 1.43956 589.122 0.76799 588.294 0.76799V2.26799ZM588.294 10.588V12.088C589.122 12.088 589.794 11.4164 589.794 10.588H588.294ZM564.742 10.588V9.08799C563.913 9.08799 563.242 9.75956 563.242 10.588H564.742ZM564.742 20.316H563.242C563.242 21.1444 563.913 21.816 564.742 21.816V20.316ZM585.542 20.316H587.042C587.042 19.4876 586.37 18.816 585.542 18.816V20.316ZM585.542 28.38V29.88C586.37 29.88 587.042 29.2084 587.042 28.38H585.542ZM564.742 28.38V26.88C563.913 26.88 563.242 27.5516 563.242 28.38H564.742ZM564.742 38.748H563.242C563.242 39.5764 563.913 40.248 564.742 40.248V38.748ZM587.625 38.748V47.068H590.625V38.748H587.625ZM589.125 45.568H554.438V48.568H589.125V45.568ZM555.938 47.068V2.26799H552.938V47.068H555.938ZM554.438 3.76799H588.294V0.76799H554.438V3.76799ZM586.794 2.26799V10.588H589.794V2.26799H586.794ZM588.294 9.08799H564.742V12.088H588.294V9.08799ZM563.242 10.588V20.316H566.242V10.588H563.242ZM564.742 21.816H585.542V18.816H564.742V21.816ZM584.042 20.316V28.38H587.042V20.316H584.042ZM585.542 26.88H564.742V29.88H585.542V26.88ZM563.242 28.38V38.748H566.242V28.38H563.242ZM564.742 40.248H589.125V37.248H564.742V40.248ZM638.463 2.26799H639.963C639.963 1.43956 639.291 0.76799 638.463 0.76799V2.26799ZM638.463 47.068V48.568C639.291 48.568 639.963 47.8964 639.963 47.068H638.463ZM629.951 47.068L628.792 48.0199C629.077 48.3669 629.502 48.568 629.951 48.568V47.068ZM607.615 19.868L608.774 18.9161C608.372 18.4265 607.706 18.2422 607.109 18.4558C606.513 18.6693 606.115 19.2345 606.115 19.868H607.615ZM607.615 47.068V48.568C608.443 48.568 609.115 47.8964 609.115 47.068H607.615ZM597.375 47.068H595.875C595.875 47.8964 596.547 48.568 597.375 48.568V47.068ZM597.375 2.26799V0.76799C596.547 0.76799 595.875 1.43956 595.875 2.26799H597.375ZM605.951 2.26799L607.112 1.31769C606.827 0.96975 606.401 0.76799 605.951 0.76799V2.26799ZM628.223 29.468L627.062 30.4183C627.464 30.9088 628.131 31.0938 628.728 30.8806C629.325 30.6674 629.723 30.1019 629.723 29.468H628.223ZM628.223 2.26799V0.76799C627.395 0.76799 626.723 1.43956 626.723 2.26799H628.223ZM636.963 2.26799V47.068H639.963V2.26799H636.963ZM638.463 45.568H629.951V48.568H638.463V45.568ZM631.11 46.1161L608.774 18.9161L606.456 20.8199L628.792 48.0199L631.11 46.1161ZM606.115 19.868V47.068H609.115V19.868H606.115ZM607.615 45.568H597.375V48.568H607.615V45.568ZM598.875 47.068V2.26799H595.875V47.068H598.875ZM597.375 3.76799H605.951V0.76799H597.375V3.76799ZM604.79 3.21829L627.062 30.4183L629.384 28.5177L607.112 1.31769L604.79 3.21829ZM629.723 29.468V2.26799H626.723V29.468H629.723ZM628.223 3.76799H638.463V0.76799H628.223V3.76799ZM658.342 10.716H659.842C659.842 9.88757 659.171 9.21599 658.342 9.21599V10.716ZM644.006 10.716H642.506C642.506 11.5444 643.178 12.216 644.006 12.216V10.716ZM644.006 2.26799V0.76799C643.178 0.76799 642.506 1.43956 642.506 2.26799H644.006ZM683.047 2.26799H684.547C684.547 1.43956 683.875 0.76799 683.047 0.76799V2.26799ZM683.047 10.716V12.216C683.875 12.216 684.547 11.5444 684.547 10.716H683.047ZM668.711 10.716V9.21599C667.882 9.21599 667.211 9.88757 667.211 10.716H668.711ZM668.711 47.068V48.568C669.539 48.568 670.211 47.8964 670.211 47.068H668.711ZM658.342 47.068H656.842C656.842 47.8964 657.514 48.568 658.342 48.568V47.068ZM658.342 9.21599H644.006V12.216H658.342V9.21599ZM645.506 10.716V2.26799H642.506V10.716H645.506ZM644.006 3.76799H683.047V0.76799H644.006V3.76799ZM681.547 2.26799V10.716H684.547V2.26799H681.547ZM683.047 9.21599H668.711V12.216H683.047V9.21599ZM667.211 10.716V47.068H670.211V10.716H667.211ZM668.711 45.568H658.342V48.568H668.711V45.568ZM659.842 47.068V10.716H656.842V47.068H659.842ZM715.879 37.468L717.265 36.895C717.033 36.3339 716.486 35.968 715.879 35.968V37.468ZM695.079 37.468V35.968C694.472 35.968 693.925 36.3339 693.693 36.895L695.079 37.468ZM691.111 47.068V48.568C691.718 48.568 692.265 48.202 692.497 47.641L691.111 47.068ZM680.487 47.068L679.117 46.4573C678.91 46.9214 678.952 47.4586 679.229 47.8847C679.505 48.3108 679.979 48.568 680.487 48.568V47.068ZM700.455 2.26799V0.76799C699.863 0.76799 699.326 1.11642 699.085 1.65733L700.455 2.26799ZM710.695 2.26799L712.064 1.6557C711.823 1.11567 711.287 0.76799 710.695 0.76799V2.26799ZM730.727 47.068V48.568C731.235 48.568 731.709 48.3105 731.986 47.8839C732.262 47.4574 732.304 46.9198 732.096 46.4557L730.727 47.068ZM719.847 47.068L718.461 47.641C718.693 48.202 719.24 48.568 719.847 48.568V47.068ZM712.615 29.596V31.096C713.116 31.096 713.584 30.8459 713.862 30.4294C714.141 30.0128 714.193 29.4848 714.001 29.022L712.615 29.596ZM705.511 12.444L706.897 11.87C706.665 11.3095 706.118 10.944 705.511 10.944C704.904 10.944 704.357 11.3095 704.125 11.87L705.511 12.444ZM698.407 29.596L697.021 29.022C696.829 29.4848 696.881 30.0128 697.16 30.4294C697.438 30.8459 697.906 31.096 698.407 31.096V29.596ZM715.879 35.968H695.079V38.968H715.879V35.968ZM693.693 36.895L689.725 46.495L692.497 47.641L696.465 38.041L693.693 36.895ZM691.111 45.568H680.487V48.568H691.111V45.568ZM681.857 47.6787L701.825 2.87865L699.085 1.65733L679.117 46.4573L681.857 47.6787ZM700.455 3.76799H710.695V0.76799H700.455V3.76799ZM709.326 2.88028L729.358 47.6803L732.096 46.4557L712.064 1.6557L709.326 2.88028ZM730.727 45.568H719.847V48.568H730.727V45.568ZM721.233 46.495L717.265 36.895L714.493 38.041L718.461 47.641L721.233 46.495ZM714.001 29.022L706.897 11.87L704.125 13.018L711.229 30.17L714.001 29.022ZM704.125 11.87L697.021 29.022L699.793 30.17L706.897 13.018L704.125 11.87ZM698.407 31.096H712.615V28.096H698.407V31.096ZM735.375 2.26799V0.76799C734.547 0.76799 733.875 1.43956 733.875 2.26799H735.375ZM745.743 2.26799H747.243C747.243 1.43956 746.571 0.76799 745.743 0.76799V2.26799ZM745.743 47.068V48.568C746.571 48.568 747.243 47.8964 747.243 47.068H745.743ZM735.375 47.068H733.875C733.875 47.8964 734.547 48.568 735.375 48.568V47.068ZM735.375 3.76799H745.743V0.76799H735.375V3.76799ZM744.243 2.26799V47.068H747.243V2.26799H744.243ZM745.743 45.568H735.375V48.568H745.743V45.568ZM736.875 47.068V2.26799H733.875V47.068H736.875ZM760.791 46.428L760.362 47.8652C760.369 47.8674 760.376 47.8696 760.384 47.8717L760.791 46.428ZM752.855 42.652L751.488 42.0355C751.201 42.6706 751.39 43.4192 751.943 43.8428L752.855 42.652ZM756.375 34.844L757.262 33.6344C756.897 33.3668 756.431 33.2782 755.993 33.3934C755.556 33.5085 755.193 33.815 755.008 34.2275L756.375 34.844ZM763.223 38.236L763.683 36.8084V36.8084L763.223 38.236ZM777.687 38.236L778.464 39.5188C778.474 39.5131 778.483 39.5074 778.492 39.5015L777.687 38.236ZM778.519 32.092L777.519 33.2099C777.539 33.2282 777.56 33.2461 777.582 33.2633L778.519 32.092ZM775.319 30.364L774.845 31.787C774.849 31.7886 774.854 31.7901 774.858 31.7916L775.319 30.364ZM770.071 28.956L769.724 30.4154L769.734 30.4176L770.071 28.956ZM761.687 26.524L762.211 25.1184V25.1184L761.687 26.524ZM756.055 22.62L754.916 23.5962C754.921 23.6013 754.925 23.6064 754.929 23.6115L756.055 22.62ZM755.863 8.41199L757.107 9.24993L757.115 9.23825L755.863 8.41199ZM762.199 3.35599L761.603 1.97939L761.596 1.98271L762.199 3.35599ZM781.015 2.52399L781.379 1.06878V1.06878L781.015 2.52399ZM788.183 5.46799L789.573 6.03286C789.847 5.35744 789.596 4.58241 788.978 4.19599L788.183 5.46799ZM784.983 13.34L784.243 14.6448C784.619 14.8577 785.068 14.8986 785.475 14.7569C785.883 14.6152 786.21 14.3047 786.373 13.9049L784.983 13.34ZM766.103 11.228L765.271 9.97992C765.265 9.98388 765.259 9.98788 765.253 9.99193L766.103 11.228ZM766.423 18.396L765.767 19.7448C765.781 19.7519 765.796 19.7587 765.81 19.7652L766.423 18.396ZM773.783 20.572L774.13 19.1126C774.122 19.1108 774.114 19.109 774.106 19.1073L773.783 20.572ZM782.167 23.004L782.691 21.5984V21.5984L782.167 23.004ZM787.735 26.844L786.608 27.8337C786.612 27.8388 786.617 27.8439 786.621 27.8489L787.735 26.844ZM787.927 40.988L786.687 40.1445L786.683 40.1501L787.927 40.988ZM781.527 45.98L780.931 44.6034V44.6034L781.527 45.98ZM771.095 46.336C767.688 46.336 764.391 45.8847 761.198 44.9843L760.384 47.8717C763.847 48.8486 767.419 49.336 771.095 49.336V46.336ZM761.22 44.9907C758.051 44.0441 755.586 42.8546 753.767 41.4612L751.943 43.8428C754.134 45.5214 756.96 46.8492 760.362 47.8652L761.22 44.9907ZM754.222 43.2685L757.742 35.4605L755.008 34.2275L751.488 42.0355L754.222 43.2685ZM755.488 36.0536C757.557 37.571 759.989 38.769 762.763 39.6636L763.683 36.8084C761.166 35.9964 759.033 34.933 757.262 33.6344L755.488 36.0536ZM762.763 39.6636C765.549 40.5624 768.35 41.016 771.159 41.016V38.016C768.678 38.016 766.188 37.6162 763.683 36.8084L762.763 39.6636ZM771.159 41.016C774.191 41.016 776.702 40.587 778.464 39.5188L776.91 36.9532C775.856 37.5917 774.015 38.016 771.159 38.016V41.016ZM778.492 39.5015C780.257 38.3788 781.299 36.764 781.299 34.716H778.299C778.299 35.5693 777.933 36.3012 776.882 36.9705L778.492 39.5015ZM781.299 34.716C781.299 33.1808 780.655 31.8799 779.456 30.9207L777.582 33.2633C778.09 33.6694 778.299 34.1178 778.299 34.716H781.299ZM779.519 30.9741C778.515 30.0759 777.248 29.4103 775.779 28.9364L774.858 31.7916C776.035 32.1711 776.901 32.6574 777.519 33.2099L779.519 30.9741ZM775.793 28.941C774.448 28.4926 772.646 28.0109 770.408 27.4944L769.734 30.4176C771.933 30.9251 773.63 31.3821 774.845 31.787L775.793 28.941ZM770.418 27.4966C767.037 26.6938 764.308 25.8996 762.211 25.1184L761.163 27.9296C763.418 28.7697 766.278 29.5969 769.724 30.4154L770.418 27.4966ZM762.211 25.1184C760.273 24.3965 758.601 23.2404 757.181 21.6284L754.929 23.6115C756.667 25.5836 758.749 27.0301 761.163 27.9296L762.211 25.1184ZM757.194 21.6438C755.947 20.1897 755.251 18.1783 755.251 15.452H752.251C752.251 18.699 753.091 21.4663 754.916 23.5962L757.194 21.6438ZM755.251 15.452C755.251 13.1376 755.872 11.0845 757.107 9.24989L754.619 7.57409C753.038 9.92079 752.251 12.5611 752.251 15.452H755.251ZM757.115 9.23825C758.334 7.39102 760.196 5.87434 762.802 4.72927L761.596 1.98271C758.57 3.31231 756.208 5.1663 754.611 7.58573L757.115 9.23825ZM762.795 4.73257C765.416 3.59795 768.679 2.99999 772.631 2.99999V-7.62939e-06C768.391 -7.62939e-06 764.699 0.639362 761.603 1.97941L762.795 4.73257ZM772.631 2.99999C775.369 2.99999 778.041 3.32675 780.651 3.9792L781.379 1.06878C778.527 0.355902 775.61 -7.62939e-06 772.631 -7.62939e-06V2.99999ZM780.651 3.9792C783.254 4.62992 785.493 5.55574 787.388 6.73999L788.978 4.19599C786.777 2.82025 784.237 1.7834 781.379 1.06878L780.651 3.9792ZM786.793 4.90312L783.593 12.7751L786.373 13.9049L789.573 6.03286L786.793 4.90312ZM785.723 12.0352C781.393 9.57994 777.002 8.31999 772.567 8.31999V11.32C776.41 11.32 780.296 12.4067 784.243 14.6448L785.723 12.0352ZM772.567 8.31999C769.557 8.31999 767.045 8.797 765.271 9.97992L766.935 12.4761C767.977 11.7817 769.774 11.32 772.567 11.32V8.31999ZM765.253 9.99193C763.519 11.1845 762.555 12.8659 762.555 14.94H765.555C765.555 13.9421 765.957 13.1489 766.953 12.4641L765.253 9.99193ZM762.555 14.94C762.555 15.979 762.827 16.9533 763.41 17.8038C763.984 18.6429 764.803 19.2759 765.767 19.7448L767.079 17.0471C766.465 16.7481 766.099 16.4211 765.884 16.1081C765.678 15.8066 765.555 15.4369 765.555 14.94H762.555ZM765.81 19.7652C767.574 20.554 770.146 21.3052 773.46 22.0367L774.106 19.1073C770.849 18.3881 768.515 17.6887 767.036 17.0268L765.81 19.7652ZM773.436 22.0314C776.817 22.8342 779.546 23.6284 781.643 24.4096L782.691 21.5984C780.436 20.7582 777.576 19.9311 774.13 19.1126L773.436 22.0314ZM781.643 24.4096C783.586 25.1334 785.235 26.2703 786.608 27.8337L788.862 25.8543C787.163 23.919 785.1 22.4959 782.691 21.5984L781.643 24.4096ZM786.621 27.8489C787.89 29.2548 788.603 31.2298 788.603 33.948H791.603C791.603 30.6929 790.737 27.9318 788.849 25.839L786.621 27.8489ZM788.603 33.948C788.603 36.2047 787.969 38.2579 786.687 40.1445L789.167 41.8315C790.786 39.4514 791.603 36.8113 791.603 33.948H788.603ZM786.683 40.1501C785.469 41.9524 783.589 43.4531 780.931 44.6034L782.123 47.3566C785.182 46.0322 787.569 44.2049 789.171 41.8259L786.683 40.1501ZM780.931 44.6034C778.31 45.738 775.047 46.336 771.095 46.336V49.336C775.334 49.336 779.027 48.6966 782.123 47.3566L780.931 44.6034Z" fill="#00783E" mask="url(#path-1-outside-1_1_1573)"/>
</svg>
