<svg width="425" height="115" viewBox="0 0 425 115" fill="none" xmlns="http://www.w3.org/2000/svg">
<mask id="path-1-outside-1_1_1015" maskUnits="userSpaceOnUse" x="-0.517578" y="-0.932007" width="426" height="116" fill="black">
<rect fill="white" x="-0.517578" y="-0.932007" width="426" height="116"/>
<path d="M41.4194 2.26799H51.7874V47.068H41.4194V2.26799ZM103.187 47.068L103.123 20.188L89.9394 42.332H85.2674L72.1474 20.764V47.068H62.4194V2.26799H70.9954L87.7634 30.108L104.275 2.26799H112.787L112.915 47.068H103.187ZM142.936 2.26799C146.904 2.26799 150.339 2.92932 153.24 4.25199C156.184 5.57466 158.446 7.45199 160.024 9.88399C161.603 12.316 162.392 15.196 162.392 18.524C162.392 21.8093 161.603 24.6893 160.024 27.164C158.446 29.596 156.184 31.4733 153.24 32.796C150.339 34.076 146.904 34.716 142.936 34.716H133.912V47.068H123.544V2.26799H142.936ZM142.36 26.268C145.475 26.268 147.843 25.6067 149.464 24.284C151.086 22.9187 151.896 20.9987 151.896 18.524C151.896 16.0067 151.086 14.0867 149.464 12.764C147.843 11.3987 145.475 10.716 142.36 10.716H133.912V26.268H142.36ZM197.048 37.468H176.248L172.28 47.068H161.656L181.624 2.26799H191.864L211.896 47.068H201.016L197.048 37.468ZM193.784 29.596L186.68 12.444L179.576 29.596H193.784ZM237.359 47.836C232.794 47.836 228.655 46.8547 224.943 44.892C221.274 42.8867 218.373 40.1347 216.239 36.636C214.149 33.0947 213.103 29.1053 213.103 24.668C213.103 20.2307 214.149 16.2627 216.239 12.764C218.373 9.22266 221.274 6.47066 224.943 4.50799C228.655 2.50266 232.815 1.49999 237.423 1.49999C241.306 1.49999 244.805 2.18266 247.919 3.54799C251.077 4.91333 253.722 6.87599 255.855 9.43599L249.199 15.58C246.17 12.0813 242.415 10.332 237.935 10.332C235.162 10.332 232.687 10.9507 230.511 12.188C228.335 13.3827 226.629 15.068 225.391 17.244C224.197 19.42 223.599 21.8947 223.599 24.668C223.599 27.4413 224.197 29.916 225.391 32.092C226.629 34.268 228.335 35.9747 230.511 37.212C232.687 38.4067 235.162 39.004 237.935 39.004C242.415 39.004 246.17 37.2333 249.199 33.692L255.855 39.836C253.722 42.4387 251.077 44.4227 247.919 45.788C244.762 47.1533 241.242 47.836 237.359 47.836ZM271.699 10.716H257.363V2.26799H296.403V10.716H282.067V47.068H271.699V10.716ZM323.053 47.836C318.402 47.836 314.2 46.8333 310.445 44.828C306.733 42.8227 303.81 40.0707 301.677 36.572C299.586 33.0307 298.541 29.0627 298.541 24.668C298.541 20.2733 299.586 16.3267 301.677 12.828C303.81 9.28666 306.733 6.51332 310.445 4.50799C314.2 2.50266 318.402 1.49999 323.053 1.49999C327.704 1.49999 331.885 2.50266 335.597 4.50799C339.309 6.51332 342.232 9.28666 344.365 12.828C346.498 16.3267 347.565 20.2733 347.565 24.668C347.565 29.0627 346.498 33.0307 344.365 36.572C342.232 40.0707 339.309 42.8227 335.597 44.828C331.885 46.8333 327.704 47.836 323.053 47.836ZM323.053 39.004C325.698 39.004 328.088 38.4067 330.221 37.212C332.354 35.9747 334.018 34.268 335.213 32.092C336.45 29.916 337.069 27.4413 337.069 24.668C337.069 21.8947 336.45 19.42 335.213 17.244C334.018 15.068 332.354 13.3827 330.221 12.188C328.088 10.9507 325.698 10.332 323.053 10.332C320.408 10.332 318.018 10.9507 315.885 12.188C313.752 13.3827 312.066 15.068 310.829 17.244C309.634 19.42 309.037 21.8947 309.037 24.668C309.037 27.4413 309.634 29.916 310.829 32.092C312.066 34.268 313.752 35.9747 315.885 37.212C318.018 38.4067 320.408 39.004 323.053 39.004ZM370.077 47.836C366.536 47.836 363.101 47.3667 359.773 46.428C356.488 45.4467 353.842 44.188 351.837 42.652L355.357 34.844C357.277 36.252 359.56 37.3827 362.205 38.236C364.85 39.0893 367.496 39.516 370.141 39.516C373.085 39.516 375.261 39.0893 376.669 38.236C378.077 37.34 378.781 36.1667 378.781 34.716C378.781 33.6493 378.354 32.7747 377.501 32.092C376.69 31.3667 375.624 30.7907 374.301 30.364C373.021 29.9373 371.272 29.468 369.053 28.956C365.64 28.1453 362.845 27.3347 360.669 26.524C358.493 25.7133 356.616 24.412 355.037 22.62C353.501 20.828 352.733 18.4387 352.733 15.452C352.733 12.8493 353.437 10.5027 354.845 8.41199C356.253 6.27866 358.365 4.59332 361.181 3.35599C364.04 2.11866 367.517 1.49999 371.613 1.49999C374.472 1.49999 377.266 1.84133 379.997 2.52399C382.728 3.20666 385.117 4.18799 387.165 5.46799L383.965 13.34C379.826 10.9933 375.688 9.81999 371.549 9.81999C368.648 9.81999 366.493 10.2893 365.085 11.228C363.72 12.1667 363.037 13.404 363.037 14.94C363.037 16.476 363.826 17.628 365.405 18.396C367.026 19.1213 369.48 19.8467 372.765 20.572C376.178 21.3827 378.973 22.1933 381.149 23.004C383.325 23.8147 385.181 25.0947 386.717 26.844C388.296 28.5933 389.085 30.9613 389.085 33.948C389.085 36.508 388.36 38.8547 386.909 40.988C385.501 43.0787 383.368 44.7427 380.509 45.98C377.65 47.2173 374.173 47.836 370.077 47.836ZM36.8922 102.468H16.0922L12.1242 112.068H1.50017L21.4682 67.268H31.7082L51.7402 112.068H40.8602L36.8922 102.468ZM33.6282 94.596L26.5242 77.444L19.4202 94.596H33.6282ZM97.1562 112.068L97.0922 85.188L83.9082 107.332H79.2362L66.1162 85.764V112.068H56.3882V67.268H64.9642L81.7322 95.108L98.2442 67.268H106.756L106.884 112.068H97.1562ZM150.409 88.772C152.969 89.5827 154.975 90.948 156.425 92.868C157.876 94.7453 158.601 97.0707 158.601 99.844C158.601 103.769 157.065 106.799 153.993 108.932C150.964 111.023 146.527 112.068 140.681 112.068H117.513V67.268H139.401C144.863 67.268 149.044 68.3133 151.945 70.404C154.889 72.4947 156.361 75.332 156.361 78.916C156.361 81.092 155.828 83.0333 154.761 84.74C153.737 86.4467 152.287 87.7907 150.409 88.772ZM127.817 75.076V85.636H138.121C140.681 85.636 142.623 85.188 143.945 84.292C145.268 83.396 145.929 82.0733 145.929 80.324C145.929 78.5747 145.268 77.2733 143.945 76.42C142.623 75.524 140.681 75.076 138.121 75.076H127.817ZM139.913 104.26C142.644 104.26 144.692 103.812 146.057 102.916C147.465 102.02 148.169 100.633 148.169 98.756C148.169 95.044 145.417 93.188 139.913 93.188H127.817V104.26H139.913ZM166.451 67.268H176.819V112.068H166.451V67.268ZM222.139 103.748V112.068H187.451V67.268H221.307V75.588H197.755V85.316H218.555V93.38H197.755V103.748H222.139ZM271.476 67.268V112.068H262.964L240.628 84.868V112.068H230.388V67.268H238.964L261.236 94.468V67.268H271.476ZM291.356 75.716H277.02V67.268H316.06V75.716H301.724V112.068H291.356V75.716ZM348.892 102.468H328.092L324.124 112.068H313.5L333.468 67.268H343.708L363.74 112.068H352.86L348.892 102.468ZM345.628 94.596L338.524 77.444L331.42 94.596H345.628ZM368.388 67.268H378.756V112.068H368.388V67.268ZM404.108 112.836C400.567 112.836 397.132 112.367 393.804 111.428C390.519 110.447 387.874 109.188 385.868 107.652L389.388 99.844C391.308 101.252 393.591 102.383 396.236 103.236C398.882 104.089 401.527 104.516 404.172 104.516C407.116 104.516 409.292 104.089 410.7 103.236C412.108 102.34 412.812 101.167 412.812 99.716C412.812 98.6493 412.386 97.7747 411.532 97.092C410.722 96.3667 409.655 95.7907 408.332 95.364C407.052 94.9373 405.303 94.468 403.084 93.956C399.671 93.1453 396.876 92.3347 394.7 91.524C392.524 90.7133 390.647 89.412 389.068 87.62C387.532 85.828 386.764 83.4387 386.764 80.452C386.764 77.8493 387.468 75.5027 388.876 73.412C390.284 71.2787 392.396 69.5933 395.212 68.356C398.071 67.1187 401.548 66.5 405.644 66.5C408.503 66.5 411.298 66.8413 414.028 67.524C416.759 68.2067 419.148 69.188 421.196 70.468L417.996 78.34C413.858 75.9933 409.719 74.82 405.58 74.82C402.679 74.82 400.524 75.2893 399.116 76.228C397.751 77.1667 397.068 78.404 397.068 79.94C397.068 81.476 397.858 82.628 399.436 83.396C401.058 84.1213 403.511 84.8467 406.796 85.572C410.21 86.3827 413.004 87.1933 415.18 88.004C417.356 88.8147 419.212 90.0947 420.748 91.844C422.327 93.5933 423.116 95.9613 423.116 98.948C423.116 101.508 422.391 103.855 420.94 105.988C419.532 108.079 417.399 109.743 414.54 110.98C411.682 112.217 408.204 112.836 404.108 112.836Z"/>
</mask>
<path d="M41.4194 2.26799V0.76799C40.591 0.76799 39.9194 1.43956 39.9194 2.26799H41.4194ZM51.7874 2.26799H53.2874C53.2874 1.43956 52.6158 0.76799 51.7874 0.76799V2.26799ZM51.7874 47.068V48.568C52.6158 48.568 53.2874 47.8964 53.2874 47.068H51.7874ZM41.4194 47.068H39.9194C39.9194 47.8964 40.591 48.568 41.4194 48.568V47.068ZM41.4194 3.76799H51.7874V0.76799H41.4194V3.76799ZM50.2874 2.26799V47.068H53.2874V2.26799H50.2874ZM51.7874 45.568H41.4194V48.568H51.7874V45.568ZM42.9194 47.068V2.26799H39.9194V47.068H42.9194ZM103.187 47.068L101.687 47.0716C101.689 47.8986 102.36 48.568 103.187 48.568V47.068ZM103.123 20.188L104.623 20.1844C104.622 19.5099 104.17 18.9194 103.52 18.7413C102.869 18.5631 102.18 18.8411 101.835 19.4206L103.123 20.188ZM89.9394 42.332V43.832C90.4681 43.832 90.9578 43.5536 91.2283 43.0993L89.9394 42.332ZM85.2674 42.332L83.9859 43.1116C84.258 43.5589 84.7438 43.832 85.2674 43.832V42.332ZM72.1474 20.764L73.4289 19.9844C73.0794 19.4099 72.3902 19.1382 71.7426 19.3196C71.095 19.5011 70.6474 20.0915 70.6474 20.764H72.1474ZM72.1474 47.068V48.568C72.9758 48.568 73.6474 47.8964 73.6474 47.068H72.1474ZM62.4194 47.068H60.9194C60.9194 47.8964 61.591 48.568 62.4194 48.568V47.068ZM62.4194 2.26799V0.76799C61.591 0.76799 60.9194 1.43956 60.9194 2.26799H62.4194ZM70.9954 2.26799L72.2803 1.49408C72.009 1.0435 71.5214 0.76799 70.9954 0.76799V2.26799ZM87.7634 30.108L86.4785 30.8819C86.7508 31.334 87.2407 31.6098 87.7685 31.608C88.2963 31.6062 88.7843 31.3271 89.0536 30.8732L87.7634 30.108ZM104.275 2.26799V0.76799C103.746 0.76799 103.255 1.04728 102.985 1.5028L104.275 2.26799ZM112.787 2.26799L114.287 2.2637C114.285 1.43695 113.614 0.76799 112.787 0.76799V2.26799ZM112.915 47.068V48.568C113.314 48.568 113.696 48.4094 113.978 48.1271C114.259 47.8449 114.417 47.4623 114.415 47.0637L112.915 47.068ZM104.687 47.0644L104.623 20.1844L101.623 20.1916L101.687 47.0716L104.687 47.0644ZM101.835 19.4206L88.6506 41.5646L91.2283 43.0993L104.412 20.9553L101.835 19.4206ZM89.9394 40.832H85.2674V43.832H89.9394V40.832ZM86.5489 41.5524L73.4289 19.9844L70.8659 21.5436L83.9859 43.1116L86.5489 41.5524ZM70.6474 20.764V47.068H73.6474V20.764H70.6474ZM72.1474 45.568H62.4194V48.568H72.1474V45.568ZM63.9194 47.068V2.26799H60.9194V47.068H63.9194ZM62.4194 3.76799H70.9954V0.76799H62.4194V3.76799ZM69.7105 3.0419L86.4785 30.8819L89.0484 29.3341L72.2803 1.49408L69.7105 3.0419ZM89.0536 30.8732L105.566 3.03318L102.985 1.5028L86.4733 29.3428L89.0536 30.8732ZM104.275 3.76799H112.787V0.76799H104.275V3.76799ZM111.287 2.27228L111.415 47.0723L114.415 47.0637L114.287 2.2637L111.287 2.27228ZM112.915 45.568H103.187V48.568H112.915V45.568ZM153.24 4.25199L152.618 5.61687L152.626 5.62024L153.24 4.25199ZM160.024 27.164L161.283 27.9807L161.289 27.9707L160.024 27.164ZM153.24 32.796L153.846 34.1684L153.855 34.1642L153.24 32.796ZM133.912 34.716V33.216C133.084 33.216 132.412 33.8876 132.412 34.716H133.912ZM133.912 47.068V48.568C134.741 48.568 135.412 47.8964 135.412 47.068H133.912ZM123.544 47.068H122.044C122.044 47.8964 122.716 48.568 123.544 48.568V47.068ZM123.544 2.26799V0.76799C122.716 0.76799 122.044 1.43956 122.044 2.26799H123.544ZM149.464 24.284L150.413 25.4463C150.419 25.4414 150.425 25.4364 150.431 25.4314L149.464 24.284ZM149.464 12.764L148.498 13.9114C148.504 13.9164 148.51 13.9214 148.516 13.9263L149.464 12.764ZM133.912 10.716V9.21599C133.084 9.21599 132.412 9.88757 132.412 10.716H133.912ZM133.912 26.268H132.412C132.412 27.0964 133.084 27.768 133.912 27.768V26.268ZM142.936 3.76799C146.741 3.76799 149.954 4.40222 152.618 5.61685L153.863 2.88713C150.724 1.45643 147.068 0.76799 142.936 0.76799V3.76799ZM152.626 5.62024C155.337 6.83856 157.362 8.53741 158.766 10.7007L161.283 9.06728C159.53 6.36658 157.031 4.31075 153.855 2.88374L152.626 5.62024ZM158.766 10.7007C160.165 12.8551 160.892 15.4419 160.892 18.524H163.892C163.892 14.9501 163.041 11.7768 161.283 9.06728L158.766 10.7007ZM160.892 18.524C160.892 21.5586 160.167 24.1516 158.76 26.3573L161.289 27.9707C163.039 25.227 163.892 22.06 163.892 18.524H160.892ZM158.766 26.3473C157.362 28.5106 155.337 30.2094 152.626 31.4277L153.855 34.1642C157.031 32.7372 159.53 30.6814 161.283 27.9807L158.766 26.3473ZM152.635 31.4236C149.966 32.6011 146.747 33.216 142.936 33.216V36.216C147.062 36.216 150.712 35.5508 153.846 34.1684L152.635 31.4236ZM142.936 33.216H133.912V36.216H142.936V33.216ZM132.412 34.716V47.068H135.412V34.716H132.412ZM133.912 45.568H123.544V48.568H133.912V45.568ZM125.044 47.068V2.26799H122.044V47.068H125.044ZM123.544 3.76799H142.936V0.76799H123.544V3.76799ZM142.36 27.768C145.658 27.768 148.42 27.0718 150.413 25.4463L148.516 23.1217C147.266 24.1415 145.292 24.768 142.36 24.768V27.768ZM150.431 25.4314C152.449 23.7319 153.396 21.3588 153.396 18.524H150.396C150.396 20.6385 149.723 22.1054 148.498 23.1366L150.431 25.4314ZM153.396 18.524C153.396 15.6573 152.455 13.2676 150.413 11.6017L148.516 13.9263C149.717 14.9057 150.396 16.3561 150.396 18.524H153.396ZM150.431 11.6166C148.437 9.93764 145.667 9.21599 142.36 9.21599V12.216C145.283 12.216 147.249 12.8597 148.498 13.9114L150.431 11.6166ZM142.36 9.21599H133.912V12.216H142.36V9.21599ZM132.412 10.716V26.268H135.412V10.716H132.412ZM133.912 27.768H142.36V24.768H133.912V27.768ZM197.048 37.468L198.435 36.895C198.203 36.3339 197.656 35.968 197.048 35.968V37.468ZM176.248 37.468V35.968C175.641 35.968 175.094 36.3339 174.862 36.895L176.248 37.468ZM172.28 47.068V48.568C172.888 48.568 173.435 48.202 173.667 47.641L172.28 47.068ZM161.656 47.068L160.286 46.4573C160.08 46.9214 160.122 47.4586 160.398 47.8847C160.675 48.3108 161.148 48.568 161.656 48.568V47.068ZM181.624 2.26799V0.76799C181.032 0.76799 180.495 1.11642 180.254 1.65733L181.624 2.26799ZM191.864 2.26799L193.234 1.6557C192.992 1.11567 192.456 0.76799 191.864 0.76799V2.26799ZM211.896 47.068V48.568C212.405 48.568 212.879 48.3105 213.155 47.8839C213.432 47.4574 213.473 46.9198 213.266 46.4557L211.896 47.068ZM201.016 47.068L199.63 47.641C199.862 48.202 200.409 48.568 201.016 48.568V47.068ZM193.784 29.596V31.096C194.285 31.096 194.753 30.8459 195.032 30.4294C195.31 30.0128 195.362 29.4848 195.17 29.022L193.784 29.596ZM186.68 12.444L188.066 11.87C187.834 11.3095 187.287 10.944 186.68 10.944C186.074 10.944 185.527 11.3095 185.295 11.87L186.68 12.444ZM179.576 29.596L178.191 29.022C177.999 29.4848 178.051 30.0128 178.329 30.4294C178.608 30.8459 179.075 31.096 179.576 31.096V29.596ZM197.048 35.968H176.248V38.968H197.048V35.968ZM174.862 36.895L170.894 46.495L173.667 47.641L177.635 38.041L174.862 36.895ZM172.28 45.568H161.656V48.568H172.28V45.568ZM163.026 47.6787L182.995 2.87865L180.254 1.65733L160.286 46.4573L163.026 47.6787ZM181.624 3.76799H191.864V0.76799H181.624V3.76799ZM190.495 2.88028L210.527 47.6803L213.266 46.4557L193.234 1.6557L190.495 2.88028ZM211.896 45.568H201.016V48.568H211.896V45.568ZM202.403 46.495L198.435 36.895L195.662 38.041L199.63 47.641L202.403 46.495ZM195.17 29.022L188.066 11.87L185.295 13.018L192.399 30.17L195.17 29.022ZM185.295 11.87L178.191 29.022L180.962 30.17L188.066 13.018L185.295 11.87ZM179.576 31.096H193.784V28.096H179.576V31.096ZM224.943 44.892L224.224 46.2083C224.23 46.2116 224.236 46.2148 224.242 46.218L224.943 44.892ZM216.239 36.636L214.948 37.3986C214.951 37.4047 214.955 37.4108 214.959 37.4169L216.239 36.636ZM216.239 12.764L214.955 11.99L214.952 11.9946L216.239 12.764ZM224.943 4.50799L225.651 5.83068L225.656 5.82772L224.943 4.50799ZM247.919 3.54799L247.317 4.92181L247.324 4.92478L247.919 3.54799ZM255.855 9.43599L256.873 10.5382C257.46 9.99633 257.519 9.08944 257.008 8.47572L255.855 9.43599ZM249.199 15.58L248.065 16.5619C248.331 16.8689 248.71 17.055 249.116 17.0777C249.521 17.1003 249.918 16.9576 250.217 16.6822L249.199 15.58ZM230.511 12.188L231.233 13.5029C231.24 13.4993 231.246 13.4956 231.253 13.4919L230.511 12.188ZM225.391 17.244L224.087 16.5025C224.084 16.509 224.08 16.5156 224.077 16.5221L225.391 17.244ZM225.391 32.092L224.077 32.8139C224.08 32.8204 224.084 32.827 224.087 32.8334L225.391 32.092ZM230.511 37.212L229.77 38.5159C229.776 38.5196 229.783 38.5233 229.79 38.5269L230.511 37.212ZM249.199 33.692L250.217 32.5898C249.917 32.3133 249.518 32.1706 249.111 32.1946C248.704 32.2186 248.325 32.4072 248.06 32.7169L249.199 33.692ZM255.855 39.836L257.016 40.7869C257.519 40.1727 257.456 39.2725 256.873 38.7338L255.855 39.836ZM247.919 45.788L247.324 44.4112V44.4112L247.919 45.788ZM237.359 46.336C233.017 46.336 229.122 45.4046 225.645 43.5659L224.242 46.218C228.189 48.3047 232.572 49.336 237.359 49.336V46.336ZM225.663 43.5757C222.219 41.6938 219.514 39.1244 217.52 35.8551L214.959 37.4169C217.232 41.1449 220.329 44.0795 224.224 46.2083L225.663 43.5757ZM217.531 35.8734C215.588 32.5813 214.603 28.859 214.603 24.668H211.603C211.603 29.3516 212.71 33.6081 214.948 37.3986L217.531 35.8734ZM214.603 24.668C214.603 20.4768 215.588 16.7791 217.527 13.5334L214.952 11.9946C212.71 15.7463 211.603 19.9845 211.603 24.668H214.603ZM217.524 13.538C219.517 10.2298 222.218 7.6667 225.651 5.83067L224.236 3.18532C220.33 5.27462 217.228 8.21547 214.955 11.99L217.524 13.538ZM225.656 5.82772C229.13 3.95139 233.041 2.99999 237.423 2.99999V-7.62939e-06C232.59 -7.62939e-06 228.181 1.05393 224.23 3.18826L225.656 5.82772ZM237.423 2.99999C241.128 2.99999 244.417 3.65069 247.317 4.9218L248.522 2.17419C245.192 0.714631 241.484 -7.62939e-06 237.423 -7.62939e-06V2.99999ZM247.324 4.92478C250.273 6.19994 252.725 8.02275 254.703 10.3963L257.008 8.47572C254.719 5.72923 251.881 3.62671 248.515 2.17121L247.324 4.92478ZM254.838 8.33379L248.182 14.4778L250.217 16.6822L256.873 10.5382L254.838 8.33379ZM250.333 14.5981C247.03 10.7828 242.867 8.83199 237.935 8.83199V11.832C241.964 11.832 245.31 13.3798 248.065 16.5619L250.333 14.5981ZM237.935 8.83199C234.931 8.83199 232.196 9.50473 229.77 10.8841L231.253 13.4919C233.179 12.3966 235.393 11.832 237.935 11.832V8.83199ZM229.79 10.8731C227.368 12.2026 225.461 14.0874 224.087 16.5025L226.695 17.9854C227.797 16.0486 229.303 14.5627 231.233 13.5029L229.79 10.8731ZM224.077 16.5221C222.747 18.9443 222.099 21.6724 222.099 24.668H225.099C225.099 22.1169 225.647 19.8957 226.706 17.9659L224.077 16.5221ZM222.099 24.668C222.099 27.6636 222.747 30.3917 224.077 32.8139L226.706 31.3701C225.647 29.4403 225.099 27.2191 225.099 24.668H222.099ZM224.087 32.8334C225.458 35.2441 227.359 37.1451 229.77 38.5159L231.253 35.9081C229.312 34.8042 227.799 33.2918 226.695 31.3505L224.087 32.8334ZM229.79 38.5269C232.212 39.8567 234.94 40.504 237.935 40.504V37.504C235.384 37.504 233.163 36.9566 231.233 35.8971L229.79 38.5269ZM237.935 40.504C242.874 40.504 247.038 38.5262 250.339 34.667L248.06 32.7169C245.302 35.9405 241.957 37.504 237.935 37.504V40.504ZM248.182 34.7942L254.838 40.9382L256.873 38.7338L250.217 32.5898L248.182 34.7942ZM254.695 38.8851C252.717 41.2986 250.267 43.1386 247.324 44.4112L248.515 47.1648C251.887 45.7067 254.727 43.5787 257.016 40.7869L254.695 38.8851ZM247.324 44.4112C244.377 45.6854 241.064 46.336 237.359 46.336V49.336C241.421 49.336 245.147 48.6212 248.515 47.1648L247.324 44.4112ZM271.699 10.716H273.199C273.199 9.88757 272.528 9.21599 271.699 9.21599V10.716ZM257.363 10.716H255.863C255.863 11.5444 256.535 12.216 257.363 12.216V10.716ZM257.363 2.26799V0.76799C256.535 0.76799 255.863 1.43956 255.863 2.26799H257.363ZM296.403 2.26799H297.903C297.903 1.43956 297.232 0.76799 296.403 0.76799V2.26799ZM296.403 10.716V12.216C297.232 12.216 297.903 11.5444 297.903 10.716H296.403ZM282.067 10.716V9.21599C281.239 9.21599 280.567 9.88757 280.567 10.716H282.067ZM282.067 47.068V48.568C282.896 48.568 283.567 47.8964 283.567 47.068H282.067ZM271.699 47.068H270.199C270.199 47.8964 270.871 48.568 271.699 48.568V47.068ZM271.699 9.21599H257.363V12.216H271.699V9.21599ZM258.863 10.716V2.26799H255.863V10.716H258.863ZM257.363 3.76799H296.403V0.76799H257.363V3.76799ZM294.903 2.26799V10.716H297.903V2.26799H294.903ZM296.403 9.21599H282.067V12.216H296.403V9.21599ZM280.567 10.716V47.068H283.567V10.716H280.567ZM282.067 45.568H271.699V48.568H282.067V45.568ZM273.199 47.068V10.716H270.199V47.068H273.199ZM310.445 44.828L309.732 46.1477L309.738 46.1511L310.445 44.828ZM301.677 36.572L300.385 37.3346C300.389 37.3407 300.393 37.3468 300.396 37.3529L301.677 36.572ZM301.677 12.828L300.392 12.054L300.389 12.0586L301.677 12.828ZM310.445 4.50799L309.738 3.18486L309.732 3.18826L310.445 4.50799ZM344.365 12.828L343.08 13.602L343.084 13.6089L344.365 12.828ZM344.365 36.572L345.646 37.3529L345.65 37.346L344.365 36.572ZM335.597 44.828L336.31 46.1477L335.597 44.828ZM330.221 37.212L330.954 38.5208C330.96 38.5171 330.967 38.5133 330.974 38.5095L330.221 37.212ZM335.213 32.092L333.909 31.3505C333.905 31.357 333.902 31.3636 333.898 31.3701L335.213 32.092ZM335.213 17.244L333.898 17.9659C333.902 17.9724 333.905 17.979 333.909 17.9854L335.213 17.244ZM330.221 12.188L329.468 13.4855C329.475 13.4893 329.481 13.4931 329.488 13.4968L330.221 12.188ZM315.885 12.188L316.618 13.4968C316.624 13.4931 316.631 13.4893 316.638 13.4855L315.885 12.188ZM310.829 17.244L309.525 16.5025C309.521 16.509 309.518 16.5156 309.514 16.5221L310.829 17.244ZM310.829 32.092L309.514 32.8139C309.518 32.8204 309.521 32.827 309.525 32.8334L310.829 32.092ZM315.885 37.212L315.132 38.5095C315.139 38.5133 315.145 38.5171 315.152 38.5208L315.885 37.212ZM323.053 46.336C318.625 46.336 314.669 45.3836 311.152 43.5049L309.738 46.1511C313.73 48.2831 318.179 49.336 323.053 49.336V46.336ZM311.158 43.5083C307.672 41.6252 304.949 39.0561 302.958 35.7911L300.396 37.3529C302.672 41.0852 305.794 44.0201 309.732 46.1477L311.158 43.5083ZM302.969 35.8094C301.024 32.515 300.041 28.8135 300.041 24.668H297.041C297.041 29.3118 298.149 33.5463 300.385 37.3346L302.969 35.8094ZM300.041 24.668C300.041 20.5223 301.024 16.8453 302.965 13.5974L300.389 12.0586C298.149 15.808 297.041 20.0243 297.041 24.668H300.041ZM302.962 13.602C304.954 10.2953 307.677 7.70831 311.158 5.82772L309.732 3.18826C305.789 5.31834 302.667 8.27797 300.392 12.054L302.962 13.602ZM311.152 5.83111C314.669 3.95242 318.625 2.99999 323.053 2.99999V-7.62939e-06C318.179 -7.62939e-06 313.73 1.0529 309.738 3.18488L311.152 5.83111ZM323.053 2.99999C327.481 2.99999 331.413 3.95248 334.884 5.82772L336.31 3.18826C332.357 1.05284 327.927 -7.62939e-06 323.053 -7.62939e-06V2.99999ZM334.884 5.82772C338.365 7.70831 341.088 10.2953 343.08 13.602L345.65 12.054C343.375 8.27797 340.253 5.31834 336.31 3.18826L334.884 5.82772ZM343.084 13.6089C345.064 16.8552 346.065 20.5281 346.065 24.668H349.065C349.065 20.0186 347.933 15.7981 345.646 12.0471L343.084 13.6089ZM346.065 24.668C346.065 28.8078 345.064 32.5051 343.08 35.798L345.65 37.346C347.933 33.5562 349.065 29.3175 349.065 24.668H346.065ZM343.084 35.7911C341.093 39.0561 338.37 41.6252 334.884 43.5083L336.31 46.1477C340.248 44.0201 343.37 41.0852 345.646 37.3529L343.084 35.7911ZM334.884 43.5083C331.413 45.3835 327.481 46.336 323.053 46.336V49.336C327.927 49.336 332.357 48.2831 336.31 46.1477L334.884 43.5083ZM323.053 40.504C325.933 40.504 328.578 39.851 330.954 38.5208L329.488 35.9032C327.597 36.9623 325.463 37.504 323.053 37.504V40.504ZM330.974 38.5095C333.345 37.1342 335.203 35.2277 336.528 32.8139L333.898 31.3701C332.834 33.3082 331.364 34.8152 329.468 35.9144L330.974 38.5095ZM336.517 32.8334C337.896 30.4077 338.569 27.6726 338.569 24.668H335.569C335.569 27.2101 335.004 29.4242 333.909 31.3505L336.517 32.8334ZM338.569 24.668C338.569 21.6634 337.896 18.9282 336.517 16.5025L333.909 17.9854C335.004 19.9117 335.569 22.1259 335.569 24.668H338.569ZM336.528 16.5221C335.2 14.1038 333.336 12.2134 330.954 10.8792L329.488 13.4968C331.372 14.552 332.836 16.0322 333.898 17.9659L336.528 16.5221ZM330.974 10.8904C328.595 9.51088 325.943 8.83199 323.053 8.83199V11.832C325.454 11.832 327.58 12.3904 329.468 13.4855L330.974 10.8904ZM323.053 8.83199C320.163 8.83199 317.511 9.51088 315.132 10.8904L316.638 13.4855C318.526 12.3904 320.652 11.832 323.053 11.832V8.83199ZM315.152 10.8792C312.774 12.2107 310.894 14.0949 309.525 16.5025L312.133 17.9854C313.238 16.0411 314.729 14.5546 316.618 13.4968L315.152 10.8792ZM309.514 16.5221C308.184 18.9443 307.537 21.6724 307.537 24.668H310.537C310.537 22.1169 311.084 19.8957 312.144 17.9659L309.514 16.5221ZM307.537 24.668C307.537 27.6636 308.184 30.3917 309.514 32.8139L312.144 31.3701C311.084 29.4403 310.537 27.2191 310.537 24.668H307.537ZM309.525 32.8334C310.892 35.2367 312.766 37.1368 315.132 38.5095L316.638 35.9144C314.738 34.8125 313.241 33.2993 312.133 31.3505L309.525 32.8334ZM315.152 38.5208C317.527 39.851 320.173 40.504 323.053 40.504V37.504C320.643 37.504 318.509 36.9623 316.618 35.9032L315.152 38.5208ZM359.773 46.428L359.344 47.8652C359.351 47.8674 359.358 47.8696 359.366 47.8717L359.773 46.428ZM351.837 42.652L350.469 42.0355C350.183 42.6706 350.372 43.4192 350.925 43.8428L351.837 42.652ZM355.357 34.844L356.244 33.6344C355.879 33.3668 355.413 33.2782 354.975 33.3934C354.538 33.5085 354.175 33.815 353.989 34.2275L355.357 34.844ZM362.205 38.236L362.665 36.8084V36.8084L362.205 38.236ZM376.669 38.236L377.446 39.5188C377.456 39.5131 377.465 39.5074 377.474 39.5015L376.669 38.236ZM377.501 32.092L376.501 33.2099C376.521 33.2282 376.542 33.2461 376.564 33.2633L377.501 32.092ZM374.301 30.364L373.827 31.787C373.831 31.7886 373.836 31.7901 373.84 31.7916L374.301 30.364ZM369.053 28.956L368.706 30.4154L368.716 30.4176L369.053 28.956ZM360.669 26.524L361.193 25.1184V25.1184L360.669 26.524ZM355.037 22.62L353.898 23.5962C353.902 23.6013 353.907 23.6064 353.911 23.6115L355.037 22.62ZM354.845 8.41199L356.089 9.24993L356.097 9.23825L354.845 8.41199ZM361.181 3.35599L360.585 1.97939L360.578 1.98271L361.181 3.35599ZM379.997 2.52399L380.361 1.06878V1.06878L379.997 2.52399ZM387.165 5.46799L388.555 6.03286C388.829 5.35744 388.578 4.58241 387.96 4.19599L387.165 5.46799ZM383.965 13.34L383.225 14.6448C383.601 14.8577 384.05 14.8986 384.457 14.7569C384.865 14.6152 385.192 14.3047 385.354 13.9049L383.965 13.34ZM365.085 11.228L364.253 9.97992C364.247 9.98388 364.241 9.98788 364.235 9.99193L365.085 11.228ZM365.405 18.396L364.749 19.7448C364.763 19.7519 364.778 19.7587 364.792 19.7652L365.405 18.396ZM372.765 20.572L373.112 19.1126C373.104 19.1108 373.096 19.109 373.088 19.1073L372.765 20.572ZM381.149 23.004L381.673 21.5984V21.5984L381.149 23.004ZM386.717 26.844L385.59 27.8337C385.594 27.8388 385.599 27.8439 385.603 27.8489L386.717 26.844ZM386.909 40.988L385.669 40.1445L385.665 40.1501L386.909 40.988ZM380.509 45.98L379.913 44.6034V44.6034L380.509 45.98ZM370.077 46.336C366.67 46.336 363.372 45.8847 360.18 44.9843L359.366 47.8717C362.829 48.8486 366.401 49.336 370.077 49.336V46.336ZM360.202 44.9907C357.033 44.0441 354.568 42.8546 352.749 41.4612L350.925 43.8428C353.116 45.5214 355.942 46.8492 359.344 47.8652L360.202 44.9907ZM353.204 43.2685L356.724 35.4605L353.989 34.2275L350.469 42.0355L353.204 43.2685ZM354.47 36.0536C356.539 37.571 358.971 38.769 361.744 39.6636L362.665 36.8084C360.148 35.9964 358.015 34.933 356.244 33.6344L354.47 36.0536ZM361.744 39.6636C364.531 40.5624 367.331 41.016 370.141 41.016V38.016C367.66 38.016 365.17 37.6162 362.665 36.8084L361.744 39.6636ZM370.141 41.016C373.172 41.016 375.684 40.587 377.446 39.5188L375.891 36.9532C374.838 37.5917 372.997 38.016 370.141 38.016V41.016ZM377.474 39.5015C379.238 38.3788 380.281 36.764 380.281 34.716H377.281C377.281 35.5693 376.915 36.3012 375.864 36.9705L377.474 39.5015ZM380.281 34.716C380.281 33.1808 379.637 31.8799 378.438 30.9207L376.564 33.2633C377.072 33.6694 377.281 34.1178 377.281 34.716H380.281ZM378.501 30.9741C377.497 30.0759 376.23 29.4103 374.761 28.9364L373.84 31.7916C375.017 32.1711 375.883 32.6574 376.501 33.2099L378.501 30.9741ZM374.775 28.941C373.43 28.4926 371.628 28.0109 369.39 27.4944L368.716 30.4176C370.915 30.9251 372.612 31.3821 373.827 31.787L374.775 28.941ZM369.4 27.4966C366.019 26.6938 363.29 25.8996 361.193 25.1184L360.145 27.9296C362.4 28.7697 365.26 29.5969 368.706 30.4154L369.4 27.4966ZM361.193 25.1184C359.255 24.3965 357.583 23.2404 356.162 21.6284L353.911 23.6115C355.649 25.5836 357.731 27.0301 360.145 27.9296L361.193 25.1184ZM356.176 21.6438C354.929 20.1897 354.233 18.1783 354.233 15.452H351.233C351.233 18.699 352.072 21.4663 353.898 23.5962L356.176 21.6438ZM354.233 15.452C354.233 13.1376 354.854 11.0845 356.089 9.24989L353.601 7.57409C352.02 9.92079 351.233 12.5611 351.233 15.452H354.233ZM356.097 9.23825C357.316 7.39102 359.178 5.87434 361.784 4.72927L360.578 1.98271C357.552 3.31231 355.19 5.1663 353.593 7.58573L356.097 9.23825ZM361.777 4.73257C364.398 3.59795 367.66 2.99999 371.613 2.99999V-7.62939e-06C367.373 -7.62939e-06 363.681 0.639362 360.585 1.97941L361.777 4.73257ZM371.613 2.99999C374.351 2.99999 377.023 3.32675 379.633 3.9792L380.361 1.06878C377.509 0.355902 374.592 -7.62939e-06 371.613 -7.62939e-06V2.99999ZM379.633 3.9792C382.236 4.62992 384.475 5.55574 386.37 6.73999L387.96 4.19599C385.759 2.82025 383.219 1.7834 380.361 1.06878L379.633 3.9792ZM385.775 4.90312L382.575 12.7751L385.354 13.9049L388.555 6.03286L385.775 4.90312ZM384.705 12.0352C380.375 9.57994 375.984 8.31999 371.549 8.31999V11.32C375.392 11.32 379.278 12.4067 383.225 14.6448L384.705 12.0352ZM371.549 8.31999C368.539 8.31999 366.027 8.797 364.253 9.97992L365.917 12.4761C366.959 11.7817 368.756 11.32 371.549 11.32V8.31999ZM364.235 9.99193C362.501 11.1845 361.537 12.8659 361.537 14.94H364.537C364.537 13.9421 364.939 13.1489 365.935 12.4641L364.235 9.99193ZM361.537 14.94C361.537 15.979 361.809 16.9533 362.392 17.8038C362.966 18.6429 363.785 19.2759 364.749 19.7448L366.061 17.0471C365.446 16.7481 365.081 16.4211 364.866 16.1081C364.66 15.8066 364.537 15.4369 364.537 14.94H361.537ZM364.792 19.7652C366.556 20.554 369.128 21.3052 372.442 22.0367L373.088 19.1073C369.831 18.3881 367.497 17.6887 366.017 17.0268L364.792 19.7652ZM372.418 22.0314C375.799 22.8342 378.528 23.6284 380.625 24.4096L381.673 21.5984C379.418 20.7582 376.558 19.9311 373.112 19.1126L372.418 22.0314ZM380.625 24.4096C382.568 25.1334 384.217 26.2703 385.59 27.8337L387.844 25.8543C386.145 23.919 384.082 22.4959 381.673 21.5984L380.625 24.4096ZM385.603 27.8489C386.872 29.2548 387.585 31.2298 387.585 33.948H390.585C390.585 30.6929 389.719 27.9318 387.831 25.839L385.603 27.8489ZM387.585 33.948C387.585 36.2047 386.951 38.2579 385.669 40.1445L388.149 41.8315C389.768 39.4514 390.585 36.8113 390.585 33.948H387.585ZM385.665 40.1501C384.451 41.9524 382.571 43.4531 379.913 44.6034L381.105 47.3566C384.164 46.0322 386.551 44.2049 388.153 41.8259L385.665 40.1501ZM379.913 44.6034C377.292 45.738 374.029 46.336 370.077 46.336V49.336C374.316 49.336 378.009 48.6966 381.105 47.3566L379.913 44.6034ZM36.8922 102.468L38.2784 101.895C38.0465 101.334 37.4993 100.968 36.8922 100.968V102.468ZM16.0922 102.468V100.968C15.4851 100.968 14.9378 101.334 14.7059 101.895L16.0922 102.468ZM12.1242 112.068V113.568C12.7313 113.568 13.2785 113.202 13.5104 112.641L12.1242 112.068ZM1.50017 112.068L0.130096 111.457C-0.0767212 111.921 -0.0346069 112.459 0.242004 112.885C0.518616 113.311 0.992126 113.568 1.50017 113.568V112.068ZM21.4682 67.268V65.768C20.876 65.768 20.3392 66.1164 20.0981 66.6573L21.4682 67.268ZM31.7082 67.268L33.0775 66.6557C32.836 66.1157 32.2997 65.768 31.7082 65.768V67.268ZM51.7402 112.068V113.568C52.2485 113.568 52.7223 113.311 52.9988 112.884C53.2754 112.457 53.317 111.92 53.1095 111.456L51.7402 112.068ZM40.8602 112.068L39.4739 112.641C39.7058 113.202 40.2531 113.568 40.8602 113.568V112.068ZM33.6282 94.596V96.096C34.1291 96.096 34.597 95.8459 34.8754 95.4294C35.1537 95.0128 35.2057 94.4848 35.014 94.022L33.6282 94.596ZM26.5242 77.444L27.91 76.87C27.6778 76.3095 27.1309 75.944 26.5242 75.944C25.9175 75.944 25.3705 76.3095 25.1383 76.87L26.5242 77.444ZM19.4202 94.596L18.0343 94.022C17.8426 94.4848 17.8947 95.0128 18.173 95.4294C18.4513 95.8459 18.9192 96.096 19.4202 96.096V94.596ZM36.8922 100.968H16.0922V103.968H36.8922V100.968ZM14.7059 101.895L10.7379 111.495L13.5104 112.641L17.4784 103.041L14.7059 101.895ZM12.1242 110.568H1.50017V113.568H12.1242V110.568ZM2.87024 112.679L22.8382 67.8786L20.0981 66.6573L0.130096 111.457L2.87024 112.679ZM21.4682 68.768H31.7082V65.768H21.4682V68.768ZM30.3388 67.8803L50.3708 112.68L53.1095 111.456L33.0775 66.6557L30.3388 67.8803ZM51.7402 110.568H40.8602V113.568H51.7402V110.568ZM42.2464 111.495L38.2784 101.895L35.5059 103.041L39.4739 112.641L42.2464 111.495ZM35.014 94.022L27.91 76.87L25.1383 78.018L32.2423 95.17L35.014 94.022ZM25.1383 76.87L18.0343 94.022L20.806 95.17L27.91 78.018L25.1383 76.87ZM19.4202 96.096H33.6282V93.096H19.4202V96.096ZM97.1562 112.068L95.6562 112.072C95.6581 112.899 96.3291 113.568 97.1562 113.568V112.068ZM97.0922 85.188L98.5922 85.1844C98.5906 84.5099 98.1389 83.9194 97.4884 83.7413C96.8378 83.5631 96.1484 83.8411 95.8033 84.4206L97.0922 85.188ZM83.9082 107.332V108.832C84.4369 108.832 84.9266 108.554 85.197 108.099L83.9082 107.332ZM79.2362 107.332L77.9547 108.112C78.2268 108.559 78.7125 108.832 79.2362 108.832V107.332ZM66.1162 85.764L67.3977 84.9844C67.0482 84.4099 66.3589 84.1382 65.7114 84.3196C65.0638 84.5011 64.6162 85.0915 64.6162 85.764H66.1162ZM66.1162 112.068V113.568C66.9446 113.568 67.6162 112.896 67.6162 112.068H66.1162ZM56.3882 112.068H54.8882C54.8882 112.896 55.5597 113.568 56.3882 113.568V112.068ZM56.3882 67.268V65.768C55.5597 65.768 54.8882 66.4396 54.8882 67.268H56.3882ZM64.9642 67.268L66.2491 66.4941C65.9777 66.0435 65.4902 65.768 64.9642 65.768V67.268ZM81.7322 95.108L80.4472 95.8819C80.7196 96.334 81.2095 96.6098 81.7373 96.608C82.2651 96.6062 82.7531 96.3271 83.0223 95.8732L81.7322 95.108ZM98.2442 67.268V65.768C97.7146 65.768 97.2242 66.0473 96.954 66.5028L98.2442 67.268ZM106.756 67.268L108.256 67.2637C108.254 66.437 107.583 65.768 106.756 65.768V67.268ZM106.884 112.068V113.568C107.283 113.568 107.665 113.409 107.946 113.127C108.228 112.845 108.385 112.462 108.384 112.064L106.884 112.068ZM98.6562 112.064L98.5922 85.1844L95.5922 85.1916L95.6562 112.072L98.6562 112.064ZM95.8033 84.4206L82.6193 106.565L85.197 108.099L98.381 85.9553L95.8033 84.4206ZM83.9082 105.832H79.2362V108.832H83.9082V105.832ZM80.5177 106.552L67.3977 84.9844L64.8347 86.5435L77.9547 108.112L80.5177 106.552ZM64.6162 85.764V112.068H67.6162V85.764H64.6162ZM66.1162 110.568H56.3882V113.568H66.1162V110.568ZM57.8882 112.068V67.268H54.8882V112.068H57.8882ZM56.3882 68.768H64.9642V65.768H56.3882V68.768ZM63.6792 68.0419L80.4472 95.8819L83.0171 94.3341L66.2491 66.4941L63.6792 68.0419ZM83.0223 95.8732L99.5343 68.0332L96.954 66.5028L80.442 94.3428L83.0223 95.8732ZM98.2442 68.768H106.756V65.768H98.2442V68.768ZM105.256 67.2723L105.384 112.072L108.384 112.064L108.256 67.2637L105.256 67.2723ZM106.884 110.568H97.1562V113.568H106.884V110.568ZM150.409 88.772L149.714 87.4426C149.177 87.7233 148.862 88.2995 148.915 88.9031C148.968 89.5066 149.379 90.0191 149.956 90.202L150.409 88.772ZM156.425 92.868L155.228 93.7722C155.232 93.7766 155.235 93.7809 155.238 93.7852L156.425 92.868ZM153.993 108.932L154.845 110.167L154.849 110.164L153.993 108.932ZM117.513 112.068H116.013C116.013 112.896 116.685 113.568 117.513 113.568V112.068ZM117.513 67.268V65.768C116.685 65.768 116.013 66.4396 116.013 67.268H117.513ZM151.945 70.404L151.068 71.621L151.077 71.627L151.945 70.404ZM154.761 84.74L153.489 83.945C153.484 83.9527 153.48 83.9605 153.475 83.9682L154.761 84.74ZM127.817 75.076V73.576C126.989 73.576 126.317 74.2476 126.317 75.076H127.817ZM127.817 85.636H126.317C126.317 86.4644 126.989 87.136 127.817 87.136V85.636ZM143.945 76.42L143.104 77.6619C143.113 77.6682 143.123 77.6744 143.132 77.6804L143.945 76.42ZM146.057 102.916L145.252 101.65C145.246 101.654 145.24 101.658 145.234 101.662L146.057 102.916ZM127.817 93.188V91.688C126.989 91.688 126.317 92.3596 126.317 93.188H127.817ZM127.817 104.26H126.317C126.317 105.088 126.989 105.76 127.817 105.76V104.26ZM149.956 90.202C152.256 90.9301 153.987 92.1288 155.228 93.7722L157.622 91.9637C155.962 89.7672 153.683 88.2352 150.862 87.342L149.956 90.202ZM155.238 93.7852C156.453 95.3571 157.101 97.3442 157.101 99.844H160.101C160.101 96.7971 159.299 94.1335 157.612 91.9508L155.238 93.7852ZM157.101 99.844C157.101 103.307 155.783 105.863 153.138 107.7L154.849 110.164C158.348 107.734 160.101 104.232 160.101 99.844H157.101ZM153.141 107.697C150.47 109.541 146.387 110.568 140.681 110.568V113.568C146.666 113.568 151.457 112.505 154.845 110.167L153.141 107.697ZM140.681 110.568H117.513V113.568H140.681V110.568ZM119.013 112.068V67.268H116.013V112.068H119.013ZM117.513 68.768H139.401V65.768H117.513V68.768ZM139.401 68.768C144.704 68.768 148.525 69.7882 151.068 71.621L152.822 69.187C149.563 66.8384 145.021 65.768 139.401 65.768V68.768ZM151.077 71.627C153.628 73.4388 154.861 75.8222 154.861 78.916H157.861C157.861 74.8418 156.15 71.5505 152.814 69.181L151.077 71.627ZM154.861 78.916C154.861 80.8346 154.395 82.4961 153.489 83.945L156.033 85.535C157.261 83.5706 157.861 81.3494 157.861 78.916H154.861ZM153.475 83.9682C152.602 85.4228 151.363 86.5806 149.714 87.4426L151.104 90.1013C153.21 89.0007 154.872 87.4705 156.047 85.5117L153.475 83.9682ZM126.317 75.076V85.636H129.317V75.076H126.317ZM127.817 87.136H138.121V84.136H127.817V87.136ZM138.121 87.136C140.816 87.136 143.107 86.6716 144.786 85.5339L143.104 83.0501C142.138 83.7044 140.547 84.136 138.121 84.136V87.136ZM144.786 85.5339C146.565 84.329 147.429 82.5153 147.429 80.324H144.429C144.429 81.6314 143.971 82.463 143.104 83.0501L144.786 85.5339ZM147.429 80.324C147.429 78.1323 146.563 76.3236 144.758 75.1595L143.132 77.6804C143.973 78.223 144.429 79.017 144.429 80.324H147.429ZM144.786 75.1781C143.107 74.0404 140.816 73.576 138.121 73.576V76.576C140.547 76.576 142.138 77.0076 143.104 77.6619L144.786 75.1781ZM138.121 73.576H127.817V76.576H138.121V73.576ZM139.913 105.76C142.76 105.76 145.156 105.302 146.88 104.17L145.234 101.662C144.228 102.322 142.527 102.76 139.913 102.76V105.76ZM146.862 104.181C148.763 102.972 149.669 101.07 149.669 98.756H146.669C146.669 100.196 146.167 101.068 145.252 101.65L146.862 104.181ZM149.669 98.756C149.669 96.4704 148.788 94.5798 146.944 93.3364C145.205 92.1639 142.787 91.688 139.913 91.688V94.688C142.544 94.688 144.253 95.1401 145.266 95.8236C146.175 96.4362 146.669 97.3296 146.669 98.756H149.669ZM139.913 91.688H127.817V94.688H139.913V91.688ZM126.317 93.188V104.26H129.317V93.188H126.317ZM127.817 105.76H139.913V102.76H127.817V105.76ZM166.451 67.268V65.768C165.622 65.768 164.951 66.4396 164.951 67.268H166.451ZM176.819 67.268H178.319C178.319 66.4396 177.647 65.768 176.819 65.768V67.268ZM176.819 112.068V113.568C177.647 113.568 178.319 112.896 178.319 112.068H176.819ZM166.451 112.068H164.951C164.951 112.896 165.622 113.568 166.451 113.568V112.068ZM166.451 68.768H176.819V65.768H166.451V68.768ZM175.319 67.268V112.068H178.319V67.268H175.319ZM176.819 110.568H166.451V113.568H176.819V110.568ZM167.951 112.068V67.268H164.951V112.068H167.951ZM222.139 103.748H223.639C223.639 102.92 222.967 102.248 222.139 102.248V103.748ZM222.139 112.068V113.568C222.967 113.568 223.639 112.896 223.639 112.068H222.139ZM187.451 112.068H185.951C185.951 112.896 186.622 113.568 187.451 113.568V112.068ZM187.451 67.268V65.768C186.622 65.768 185.951 66.4396 185.951 67.268H187.451ZM221.307 67.268H222.807C222.807 66.4396 222.135 65.768 221.307 65.768V67.268ZM221.307 75.588V77.088C222.135 77.088 222.807 76.4164 222.807 75.588H221.307ZM197.755 75.588V74.088C196.926 74.088 196.255 74.7596 196.255 75.588H197.755ZM197.755 85.316H196.255C196.255 86.1444 196.926 86.816 197.755 86.816V85.316ZM218.555 85.316H220.055C220.055 84.4876 219.383 83.816 218.555 83.816V85.316ZM218.555 93.38V94.88C219.383 94.88 220.055 94.2084 220.055 93.38H218.555ZM197.755 93.38V91.88C196.926 91.88 196.255 92.5516 196.255 93.38H197.755ZM197.755 103.748H196.255C196.255 104.576 196.926 105.248 197.755 105.248V103.748ZM220.639 103.748V112.068H223.639V103.748H220.639ZM222.139 110.568H187.451V113.568H222.139V110.568ZM188.951 112.068V67.268H185.951V112.068H188.951ZM187.451 68.768H221.307V65.768H187.451V68.768ZM219.807 67.268V75.588H222.807V67.268H219.807ZM221.307 74.088H197.755V77.088H221.307V74.088ZM196.255 75.588V85.316H199.255V75.588H196.255ZM197.755 86.816H218.555V83.816H197.755V86.816ZM217.055 85.316V93.38H220.055V85.316H217.055ZM218.555 91.88H197.755V94.88H218.555V91.88ZM196.255 93.38V103.748H199.255V93.38H196.255ZM197.755 105.248H222.139V102.248H197.755V105.248ZM271.476 67.268H272.976C272.976 66.4396 272.305 65.768 271.476 65.768V67.268ZM271.476 112.068V113.568C272.305 113.568 272.976 112.896 272.976 112.068H271.476ZM262.964 112.068L261.805 113.02C262.09 113.367 262.515 113.568 262.964 113.568V112.068ZM240.628 84.868L241.787 83.9161C241.385 83.4265 240.719 83.2422 240.123 83.4557C239.526 83.6693 239.128 84.2345 239.128 84.868H240.628ZM240.628 112.068V113.568C241.457 113.568 242.128 112.896 242.128 112.068H240.628ZM230.388 112.068H228.888C228.888 112.896 229.56 113.568 230.388 113.568V112.068ZM230.388 67.268V65.768C229.56 65.768 228.888 66.4396 228.888 67.268H230.388ZM238.964 67.268L240.125 66.3177C239.84 65.9697 239.414 65.768 238.964 65.768V67.268ZM261.236 94.468L260.076 95.4183C260.477 95.9088 261.144 96.0938 261.741 95.8806C262.338 95.6674 262.736 95.1019 262.736 94.468H261.236ZM261.236 67.268V65.768C260.408 65.768 259.736 66.4396 259.736 67.268H261.236ZM269.976 67.268V112.068H272.976V67.268H269.976ZM271.476 110.568H262.964V113.568H271.476V110.568ZM264.123 111.116L241.787 83.9161L239.469 85.8199L261.805 113.02L264.123 111.116ZM239.128 84.868V112.068H242.128V84.868H239.128ZM240.628 110.568H230.388V113.568H240.628V110.568ZM231.888 112.068V67.268H228.888V112.068H231.888ZM230.388 68.768H238.964V65.768H230.388V68.768ZM237.804 68.2183L260.076 95.4183L262.397 93.5177L240.125 66.3177L237.804 68.2183ZM262.736 94.468V67.268H259.736V94.468H262.736ZM261.236 68.768H271.476V65.768H261.236V68.768ZM291.356 75.716H292.856C292.856 74.8876 292.184 74.216 291.356 74.216V75.716ZM277.02 75.716H275.52C275.52 76.5444 276.191 77.216 277.02 77.216V75.716ZM277.02 67.268V65.768C276.191 65.768 275.52 66.4396 275.52 67.268H277.02ZM316.06 67.268H317.56C317.56 66.4396 316.888 65.768 316.06 65.768V67.268ZM316.06 75.716V77.216C316.888 77.216 317.56 76.5444 317.56 75.716H316.06ZM301.724 75.716V74.216C300.895 74.216 300.224 74.8876 300.224 75.716H301.724ZM301.724 112.068V113.568C302.552 113.568 303.224 112.896 303.224 112.068H301.724ZM291.356 112.068H289.856C289.856 112.896 290.527 113.568 291.356 113.568V112.068ZM291.356 74.216H277.02V77.216H291.356V74.216ZM278.52 75.716V67.268H275.52V75.716H278.52ZM277.02 68.768H316.06V65.768H277.02V68.768ZM314.56 67.268V75.716H317.56V67.268H314.56ZM316.06 74.216H301.724V77.216H316.06V74.216ZM300.224 75.716V112.068H303.224V75.716H300.224ZM301.724 110.568H291.356V113.568H301.724V110.568ZM292.856 112.068V75.716H289.856V112.068H292.856ZM348.892 102.468L350.278 101.895C350.047 101.334 349.499 100.968 348.892 100.968V102.468ZM328.092 102.468V100.968C327.485 100.968 326.938 101.334 326.706 101.895L328.092 102.468ZM324.124 112.068V113.568C324.731 113.568 325.279 113.202 325.51 112.641L324.124 112.068ZM313.5 112.068L312.13 111.457C311.923 111.921 311.965 112.459 312.242 112.885C312.519 113.311 312.992 113.568 313.5 113.568V112.068ZM333.468 67.268V65.768C332.876 65.768 332.339 66.1164 332.098 66.6573L333.468 67.268ZM343.708 67.268L345.078 66.6557C344.836 66.1157 344.3 65.768 343.708 65.768V67.268ZM363.74 112.068V113.568C364.249 113.568 364.722 113.311 364.999 112.884C365.275 112.457 365.317 111.92 365.11 111.456L363.74 112.068ZM352.86 112.068L351.474 112.641C351.706 113.202 352.253 113.568 352.86 113.568V112.068ZM345.628 94.596V96.096C346.129 96.096 346.597 95.8459 346.875 95.4294C347.154 95.0128 347.206 94.4848 347.014 94.022L345.628 94.596ZM338.524 77.444L339.91 76.87C339.678 76.3095 339.131 75.944 338.524 75.944C337.917 75.944 337.371 76.3095 337.138 76.87L338.524 77.444ZM331.42 94.596L330.034 94.022C329.843 94.4848 329.895 95.0128 330.173 95.4294C330.451 95.8459 330.919 96.096 331.42 96.096V94.596ZM348.892 100.968H328.092V103.968H348.892V100.968ZM326.706 101.895L322.738 111.495L325.51 112.641L329.478 103.041L326.706 101.895ZM324.124 110.568H313.5V113.568H324.124V110.568ZM314.87 112.679L334.838 67.8786L332.098 66.6573L312.13 111.457L314.87 112.679ZM333.468 68.768H343.708V65.768H333.468V68.768ZM342.339 67.8803L362.371 112.68L365.11 111.456L345.078 66.6557L342.339 67.8803ZM363.74 110.568H352.86V113.568H363.74V110.568ZM354.246 111.495L350.278 101.895L347.506 103.041L351.474 112.641L354.246 111.495ZM347.014 94.022L339.91 76.87L337.138 78.018L344.242 95.17L347.014 94.022ZM337.138 76.87L330.034 94.022L332.806 95.17L339.91 78.018L337.138 76.87ZM331.42 96.096H345.628V93.096H331.42V96.096ZM368.388 67.268V65.768C367.56 65.768 366.888 66.4396 366.888 67.268H368.388ZM378.756 67.268H380.256C380.256 66.4396 379.585 65.768 378.756 65.768V67.268ZM378.756 112.068V113.568C379.585 113.568 380.256 112.896 380.256 112.068H378.756ZM368.388 112.068H366.888C366.888 112.896 367.56 113.568 368.388 113.568V112.068ZM368.388 68.768H378.756V65.768H368.388V68.768ZM377.256 67.268V112.068H380.256V67.268H377.256ZM378.756 110.568H368.388V113.568H378.756V110.568ZM369.888 112.068V67.268H366.888V112.068H369.888ZM393.804 111.428L393.375 112.865C393.382 112.867 393.39 112.87 393.397 112.872L393.804 111.428ZM385.868 107.652L384.501 107.036C384.214 107.671 384.403 108.419 384.956 108.843L385.868 107.652ZM389.388 99.844L390.275 98.6344C389.91 98.3668 389.444 98.2782 389.007 98.3934C388.569 98.5085 388.207 98.815 388.021 99.2275L389.388 99.844ZM396.236 103.236L396.697 101.808V101.808L396.236 103.236ZM410.7 103.236L411.478 104.519C411.487 104.513 411.496 104.507 411.505 104.501L410.7 103.236ZM411.532 97.092L410.532 98.2099C410.553 98.2282 410.574 98.2461 410.595 98.2633L411.532 97.092ZM408.332 95.364L407.858 96.787C407.862 96.7886 407.867 96.7901 407.872 96.7916L408.332 95.364ZM403.084 93.956L402.738 95.4154L402.747 95.4176L403.084 93.956ZM394.7 91.524L395.224 90.1184V90.1184L394.7 91.524ZM389.068 87.62L387.929 88.5962C387.934 88.6013 387.938 88.6064 387.943 88.6115L389.068 87.62ZM388.876 73.412L390.12 74.2499L390.128 74.2383L388.876 73.412ZM395.212 68.356L394.616 66.9794L394.609 66.9827L395.212 68.356ZM414.028 67.524L414.392 66.0688V66.0688L414.028 67.524ZM421.196 70.468L422.586 71.0329C422.86 70.3574 422.609 69.5824 421.991 69.196L421.196 70.468ZM417.996 78.34L417.256 79.6448C417.632 79.8577 418.081 79.8986 418.489 79.7569C418.896 79.6152 419.223 79.3047 419.386 78.9049L417.996 78.34ZM399.116 76.228L398.284 74.9799C398.278 74.9839 398.272 74.9879 398.266 74.9919L399.116 76.228ZM399.436 83.396L398.78 84.7448C398.794 84.7519 398.809 84.7587 398.824 84.7652L399.436 83.396ZM406.796 85.572L407.143 84.1126C407.135 84.1107 407.127 84.109 407.12 84.1073L406.796 85.572ZM415.18 88.004L415.704 86.5984V86.5984L415.18 88.004ZM420.748 91.844L419.621 92.8337C419.625 92.8388 419.63 92.8439 419.635 92.8489L420.748 91.844ZM420.94 105.988L419.7 105.145L419.696 105.15L420.94 105.988ZM414.54 110.98L413.944 109.603V109.603L414.54 110.98ZM404.108 111.336C400.701 111.336 397.404 110.885 394.211 109.984L393.397 112.872C396.861 113.849 400.432 114.336 404.108 114.336V111.336ZM394.233 109.991C391.064 109.044 388.599 107.855 386.78 106.461L384.956 108.843C387.148 110.521 389.973 111.849 393.375 112.865L394.233 109.991ZM387.236 108.268L390.756 100.46L388.021 99.2275L384.501 107.036L387.236 108.268ZM388.501 101.054C390.57 102.571 393.002 103.769 395.776 104.664L396.697 101.808C394.179 100.996 392.046 99.933 390.275 98.6344L388.501 101.054ZM395.776 104.664C398.562 105.562 401.363 106.016 404.172 106.016V103.016C401.691 103.016 399.201 102.616 396.697 101.808L395.776 104.664ZM404.172 106.016C407.204 106.016 409.715 105.587 411.478 104.519L409.923 101.953C408.869 102.592 407.029 103.016 404.172 103.016V106.016ZM411.505 104.501C413.27 103.379 414.312 101.764 414.312 99.716H411.312C411.312 100.569 410.947 101.301 409.895 101.97L411.505 104.501ZM414.312 99.716C414.312 98.1808 413.668 96.8799 412.469 95.9207L410.595 98.2633C411.103 98.6694 411.312 99.1178 411.312 99.716H414.312ZM412.532 95.9741C411.528 95.0759 410.262 94.4103 408.793 93.9364L407.872 96.7916C409.048 97.1711 409.915 97.6574 410.532 98.2099L412.532 95.9741ZM408.807 93.941C407.461 93.4926 405.66 93.0109 403.421 92.4944L402.747 95.4176C404.946 95.9251 406.643 96.3821 407.858 96.787L408.807 93.941ZM403.431 92.4966C400.051 91.6938 397.321 90.8996 395.224 90.1184L394.177 92.9296C396.432 93.7697 399.291 94.5969 402.738 95.4154L403.431 92.4966ZM395.224 90.1184C393.286 89.3965 391.614 88.2404 390.194 86.6284L387.943 88.6115C389.68 90.5836 391.762 92.0301 394.177 92.9296L395.224 90.1184ZM390.207 86.6438C388.961 85.1897 388.264 83.1783 388.264 80.452H385.264C385.264 83.699 386.104 86.4663 387.929 88.5962L390.207 86.6438ZM388.264 80.452C388.264 78.1376 388.885 76.0845 390.12 74.2499L387.632 72.5741C386.052 74.9208 385.264 77.5611 385.264 80.452H388.264ZM390.128 74.2383C391.347 72.391 393.21 70.8743 395.816 69.7293L394.609 66.9827C391.583 68.3123 389.221 70.1663 387.624 72.5857L390.128 74.2383ZM395.808 69.7326C398.429 68.598 401.692 68 405.644 68V65C401.405 65 397.712 65.6394 394.616 66.9794L395.808 69.7326ZM405.644 68C408.382 68 411.055 68.3268 413.664 68.9792L414.392 66.0688C411.54 65.3559 408.624 65 405.644 65V68ZM413.664 68.9792C416.267 69.6299 418.506 70.5557 420.401 71.74L421.991 69.196C419.79 67.8202 417.25 66.7834 414.392 66.0688L413.664 68.9792ZM419.807 69.9031L416.607 77.7751L419.386 78.9049L422.586 71.0329L419.807 69.9031ZM418.736 77.0351C414.406 74.5799 410.015 73.32 405.58 73.32V76.32C409.423 76.32 413.309 77.4067 417.256 79.6448L418.736 77.0351ZM405.58 73.32C402.571 73.32 400.059 73.797 398.284 74.9799L399.948 77.4761C400.99 76.7817 402.787 76.32 405.58 76.32V73.32ZM398.266 74.9919C396.532 76.1845 395.568 77.8659 395.568 79.94H398.568C398.568 78.9421 398.97 78.1489 399.966 77.4641L398.266 74.9919ZM395.568 79.94C395.568 80.979 395.84 81.9533 396.423 82.8038C396.998 83.6429 397.816 84.2759 398.78 84.7448L400.092 82.0471C399.478 81.7481 399.112 81.4211 398.898 81.1081C398.691 80.8066 398.568 80.4369 398.568 79.94H395.568ZM398.824 84.7652C400.587 85.554 403.159 86.3052 406.473 87.0367L407.12 84.1073C403.862 83.3881 401.528 82.6887 400.049 82.0268L398.824 84.7652ZM406.45 87.0314C409.83 87.8342 412.56 88.6284 414.656 89.4096L415.704 86.5984C413.449 85.7582 410.589 84.9311 407.143 84.1126L406.45 87.0314ZM414.656 89.4096C416.599 90.1334 418.248 91.2703 419.621 92.8337L421.875 90.8543C420.176 88.919 418.113 87.4959 415.704 86.5984L414.656 89.4096ZM419.635 92.8489C420.903 94.2548 421.616 96.2298 421.616 98.948H424.616C424.616 95.6929 423.75 92.9318 421.862 90.839L419.635 92.8489ZM421.616 98.948C421.616 101.205 420.983 103.258 419.7 105.145L422.181 106.831C423.799 104.451 424.616 101.811 424.616 98.948H421.616ZM419.696 105.15C418.482 106.952 416.602 108.453 413.944 109.603L415.136 112.357C418.196 111.032 420.582 109.205 422.184 106.826L419.696 105.15ZM413.944 109.603C411.323 110.738 408.061 111.336 404.108 111.336V114.336C408.348 114.336 412.04 113.697 415.136 112.357L413.944 109.603Z" fill="#00783E" mask="url(#path-1-outside-1_1_1015)"/>
</svg>
