<svg width="74" height="15" viewBox="0 0 74 15" fill="none" xmlns="http://www.w3.org/2000/svg">
<path d="M30.6309 3.31829C29.5387 3.11005 28.4288 2.99506 27.3189 2.9733C26.7032 2.96087 26.0876 3.051 25.4986 3.23748C24.7556 3.46747 24.1163 3.97408 23.7049 4.66406C23.2816 5.4566 23.0745 6.36103 23.1129 7.26857C23.1041 7.88396 23.178 8.49934 23.3379 9.09298C23.5214 9.82647 23.9506 10.4667 24.5425 10.9018C25.2055 11.3245 25.9751 11.5328 26.7506 11.4986C27.3366 11.5017 27.9197 11.396 28.4702 11.1878C28.4584 11.4053 28.4199 11.6229 28.3607 11.8311C28.2482 12.145 28.0233 12.403 27.7362 12.5491C27.3514 12.7325 26.9311 12.8195 26.5108 12.8008C25.6436 12.8133 24.7793 12.6827 23.9506 12.4123C23.9032 12.3937 23.8499 12.403 23.8115 12.4341C23.77 12.4652 23.7463 12.5149 23.7463 12.5677V14.2367C23.7463 14.3082 23.7878 14.3704 23.8529 14.3952C24.7083 14.6781 25.5992 14.8148 26.496 14.7993C27.1176 14.8086 27.7362 14.7309 28.337 14.5662C29.0652 14.3797 29.7074 13.9353 30.1573 13.3043C30.5806 12.5677 30.7848 11.7192 30.7493 10.8614V3.48301C30.7493 3.40842 30.7019 3.34004 30.6309 3.31829ZM25.4897 6.24604C25.5814 5.86997 25.7975 5.53741 26.0994 5.31363C26.4457 5.08986 26.8512 4.98418 27.2567 5.00283C27.6681 4.9904 28.0795 5.04013 28.4791 5.14891V9.04635C28.0115 9.28567 27.4964 9.4131 26.9755 9.41621C26.7328 9.42242 26.4901 9.3758 26.2652 9.28256C25.9692 9.15203 25.7324 8.90649 25.6022 8.5988C25.4305 8.173 25.3506 7.71302 25.3683 7.24992C25.3654 6.91115 25.4068 6.57549 25.4897 6.24604Z" fill="white"/>
<path d="M33.8184 5.81139C33.9131 5.53478 34.0937 5.30168 34.3334 5.14628C34.6028 4.98777 34.9106 4.91007 35.2214 4.9225C35.4493 4.91939 35.6742 4.95047 35.8903 5.02196C36.1419 5.09966 36.3609 5.27371 36.4971 5.50991C36.6332 5.77099 36.7043 6.06314 36.7013 6.36151H33.6911C33.7119 6.17503 33.7563 5.99166 33.8184 5.81139ZM37.462 3.53011C36.7753 3.12918 35.9969 2.93648 35.2125 2.97067C34.6501 2.95824 34.0907 3.04526 33.5579 3.22863C32.8713 3.46484 32.2911 3.95591 31.93 4.61481C31.5453 5.39181 31.3618 6.26205 31.3943 7.13851C31.3825 7.77876 31.4772 8.41901 31.6696 9.02818C31.9182 9.82073 32.4391 10.4858 33.1317 10.893C33.9546 11.3374 34.8721 11.5519 35.7956 11.5146C36.5918 11.5301 37.385 11.4493 38.1635 11.2784C38.199 11.266 38.2315 11.2442 38.2552 11.2131C38.2759 11.1851 38.2848 11.1478 38.2848 11.1137V9.48817C38.2848 9.44155 38.27 9.39804 38.2374 9.36696C38.2019 9.32966 38.1516 9.31412 38.1013 9.32034C37.3909 9.47263 36.6658 9.55033 35.9406 9.55033C35.1474 9.55033 34.5702 9.40425 34.2091 9.14318C34.0374 9.02508 33.8983 8.86035 33.8066 8.66455C33.7326 8.49982 33.6882 8.32267 33.6763 8.13929H38.7081C38.785 8.13929 38.8501 8.08024 38.859 7.99943C38.9064 7.65444 38.93 7.30945 38.93 6.96136C38.9389 6.38016 38.862 5.80207 38.6992 5.24573C38.5009 4.534 38.0628 3.92483 37.462 3.53011Z" fill="white"/>
<path d="M8.70783 0.831135C7.86132 0.274801 6.7721 0.00129607 5.45201 0.00129607C4.6499 -0.014244 3.84778 0.110076 3.08415 0.368041C2.1074 0.694383 1.28161 1.39058 0.766597 2.31987C0.251586 3.25228 0 4.44264 0 5.89409C0.071036 7.57552 0.54165 8.97102 1.28753 9.95004C1.98605 10.9135 3.07231 11.4823 4.22664 11.4885C4.62622 11.5009 5.0258 11.445 5.41058 11.3269C5.80423 11.2181 6.14462 10.9601 6.36956 10.6058C6.52939 10.3199 6.62411 10.0029 6.64779 9.67343C6.65371 9.61438 6.63003 9.55843 6.58563 9.52424C6.54123 9.49006 6.485 9.48073 6.43468 9.5056C6.38436 9.52424 6.33108 9.53978 6.27781 9.55221C6.0055 9.59883 5.72728 9.6237 5.45201 9.62059C4.98436 9.62992 4.51967 9.55222 4.07865 9.38438C3.51332 9.16993 3.05159 8.73481 2.78224 8.16915C2.45962 7.44498 2.30867 6.65244 2.33827 5.85368C2.32939 5.29735 2.39747 4.74412 2.53658 4.20644C2.68457 3.57862 3.04271 3.0285 3.54588 2.65243C4.11713 2.28258 4.78309 2.10542 5.45201 2.1365C5.90783 2.12718 6.36364 2.20488 6.79282 2.36649C7.34335 2.58095 7.79324 3.00985 8.05667 3.55997C8.37041 4.27481 8.5184 5.05492 8.4888 5.84125C8.4888 6.94459 8.29345 7.79619 7.92348 8.39914C7.89684 8.45198 7.89684 8.51414 7.92348 8.56698C7.95011 8.61981 8.00043 8.654 8.05667 8.654H8.37633C8.91206 8.66954 9.43595 8.48928 9.85625 8.14429C10.2262 7.81795 10.4985 7.38593 10.6406 6.90108C10.7442 6.57785 10.8004 6.24218 10.8093 5.9003C10.8241 5.03317 10.7116 4.17225 10.4749 3.34241C10.1966 2.31055 9.56618 1.41544 8.70783 0.831135Z" fill="white"/>
<path d="M22.3148 11.3338H20.9859C20.5478 11.3338 20.1926 10.9609 20.1926 10.5009V10.4978V3.30895C20.1926 3.21881 20.2637 3.14422 20.3495 3.14111H22.3119C22.4007 3.14111 22.4717 3.21571 22.4717 3.30895V11.1691C22.4717 11.2623 22.4007 11.3338 22.3148 11.3338Z" fill="white"/>
<path d="M20.3525 0.337646H22.3119C22.4007 0.337646 22.4717 0.412239 22.4717 0.505479V2.13408C22.4717 2.22732 22.4007 2.30191 22.3119 2.30191H20.3525C20.2637 2.30191 20.1926 2.22732 20.1926 2.13408V0.505479C20.1926 0.415347 20.2637 0.337646 20.3525 0.337646Z" fill="white"/>
<path fill-rule="evenodd" clip-rule="evenodd" d="M57.0386 3.61964L55.8961 8.6857L54.1971 3.66626C54.061 3.24978 53.6851 2.97317 53.2677 2.97317H53.1848C52.7675 2.97317 52.3946 3.25289 52.2584 3.66626L50.5595 8.6857L49.4288 3.61964C49.343 3.24046 49.0204 2.97317 48.6504 2.97317H47.7802C47.6944 2.97317 47.6233 3.04466 47.6204 3.13479C47.6204 3.15033 47.6204 3.16276 47.6263 3.1783L49.565 11.2094C49.5827 11.284 49.6478 11.3337 49.7189 11.3337H51.1278C51.1929 11.3337 51.2521 11.2902 51.2758 11.228L53.2381 5.8543L55.2005 11.228C55.2242 11.2902 55.2834 11.3337 55.3485 11.3337H56.7574C56.8284 11.3337 56.8906 11.2809 56.9113 11.2094L58.85 3.1783C58.8707 3.09128 58.8204 3.00114 58.7375 2.97939C58.7257 2.97628 58.7109 2.97317 58.6961 2.97317H57.8259C57.45 2.97006 57.1244 3.23735 57.0386 3.61964Z" fill="white"/>
<path fill-rule="evenodd" clip-rule="evenodd" d="M9.83589 13.264H8.40037V13.2081C8.39445 13.1552 8.39445 13.1055 8.40037 13.0527C8.40333 13.0247 8.41221 12.9998 8.42996 12.9781C8.45068 12.9594 8.4714 12.9439 8.49804 12.9346C8.52764 12.9346 8.56908 12.9066 8.61643 12.8879L9.9158 12.5243C10.0964 12.4777 10.2651 12.3875 10.4101 12.2632C10.5847 12.1016 10.7061 11.8809 10.7505 11.6416C10.7919 11.4085 10.8097 11.1692 10.8038 10.933V10.7621C10.8067 10.5787 10.7742 10.3953 10.7061 10.2275C10.638 10.0565 10.5285 9.90735 10.3923 9.79236H10.3716C10.194 9.64939 9.98684 9.54993 9.76485 9.50642C9.54286 9.46291 9.31495 9.44426 9.09001 9.44737H8.60755C8.23462 9.42872 7.86464 9.5375 7.55385 9.75817C7.41178 9.87006 7.29931 10.0192 7.22531 10.1902C7.1454 10.386 7.10692 10.5973 7.10988 10.8118C7.10988 10.9112 7.1306 11.0107 7.16908 11.1039C7.23123 11.2407 7.33483 11.3495 7.46506 11.4147C7.56569 11.4614 7.67225 11.4924 7.78176 11.5049C7.83504 11.5049 7.95047 11.5049 7.95047 11.5049H8.36781V11.2438C8.36781 11.1226 8.36781 10.992 8.36781 10.933C8.37373 10.8646 8.38557 10.7994 8.40629 10.7341C8.41517 10.703 8.42996 10.675 8.45068 10.6502C8.48028 10.6129 8.52172 10.588 8.56612 10.5756C8.64899 10.5538 8.73483 10.5414 8.82066 10.5445H8.9361C9.01897 10.5383 9.10481 10.5383 9.18768 10.5445C9.23504 10.5507 9.2824 10.5631 9.32679 10.5787C9.37711 10.5942 9.41855 10.6315 9.44519 10.6781C9.48663 10.7589 9.50438 10.8522 9.49846 10.9423V11.0045C9.50142 11.076 9.50142 11.1443 9.49846 11.2158C9.4955 11.2469 9.48959 11.278 9.48071 11.306C9.46591 11.3433 9.44223 11.3712 9.40967 11.393C9.34455 11.4365 9.27056 11.4707 9.1936 11.4893L7.8676 11.9213C7.53017 12.0115 7.26379 12.2788 7.16612 12.63C7.10692 12.832 7.07732 13.0402 7.08028 13.2516V14.3021C7.08028 14.3922 7.15132 14.4668 7.23715 14.4668H10.6528C10.7386 14.4668 10.8097 14.3922 10.8097 14.3021C10.8156 13.7333 10.3805 13.2702 9.83885 13.264H9.83589Z" fill="white"/>
<path fill-rule="evenodd" clip-rule="evenodd" d="M73.7556 5.29801C73.5454 4.57073 73.0896 3.94913 72.474 3.5513C71.7607 3.13794 70.9497 2.93592 70.1357 2.97321C69.5437 2.9701 68.9547 3.07578 68.3953 3.28401V0.8349C68.3953 0.374915 68.0431 0.00506114 67.6051 0.00195312H66.8681C66.7822 0.00195312 66.7112 0.0765454 66.7112 0.166678V10.9888C66.7112 11.0634 66.7615 11.1286 66.8296 11.1473C67.8537 11.3835 68.9015 11.4954 69.9522 11.4861C70.5471 11.4985 71.1391 11.4052 71.7044 11.2126C72.4325 10.9608 73.0452 10.4387 73.427 9.73935C73.8355 8.91262 74.0338 7.98954 73.9953 7.06025C74.0042 6.46351 73.9243 5.86988 73.7556 5.29801ZM68.3953 5.91961V4.92194C68.9429 4.6733 69.5319 4.55208 70.1268 4.56141C70.4583 4.55519 70.7898 4.60803 71.1065 4.71681C71.4943 4.85045 71.8199 5.13017 72.0182 5.50624C72.2461 5.97866 72.3526 6.50081 72.3319 7.02917C72.3408 7.47361 72.2875 7.91806 72.175 8.34696C72.0566 8.84114 71.7755 9.27315 71.3818 9.57152C70.9349 9.86678 70.411 10.0098 69.8841 9.98178C69.3839 9.9911 68.8867 9.92894 68.4042 9.79841L68.3953 5.91961Z" fill="white"/>
<path fill-rule="evenodd" clip-rule="evenodd" d="M64.6929 3.48298C64.0447 3.11623 63.3166 2.94218 62.5826 2.97326C62.035 2.96083 61.4904 3.04164 60.9694 3.2188C60.2916 3.45811 59.7234 3.95229 59.3741 4.60808C58.9952 5.38508 58.8147 6.25532 58.8472 7.12867C58.8354 7.76893 58.9242 8.40607 59.1077 9.01524C59.3327 9.79535 59.8299 10.4605 60.4959 10.88C61.2713 11.3245 62.1445 11.5389 63.0265 11.5016C63.805 11.5234 64.5834 11.4177 65.3322 11.1908C65.3974 11.1691 65.4418 11.1038 65.4418 11.0323V9.86372C65.4418 9.814 65.4181 9.76427 65.3826 9.73319C65.3441 9.70522 65.2938 9.69589 65.2464 9.70832C64.5745 9.92588 63.876 10.0316 63.1745 10.0191C62.7749 10.0284 62.3754 9.97561 61.9906 9.86994C61.5525 9.75805 61.1618 9.48766 60.8925 9.10848C60.6587 8.72619 60.5343 8.28486 60.5343 7.83109H65.8621C65.939 7.83109 66.0071 7.76893 66.016 7.68812C66.0604 7.3338 66.084 6.97327 66.084 6.61585C66.0929 6.08749 66.0219 5.56535 65.868 5.06185C65.6815 4.39984 65.2612 3.83729 64.6929 3.48298ZM60.7001 5.56535C60.8274 5.21414 61.0642 4.92199 61.3749 4.73551C61.7479 4.53349 62.1623 4.43714 62.5826 4.45579C62.8578 4.44957 63.1331 4.49308 63.3965 4.58011C63.7162 4.68889 63.9855 4.91577 64.1572 5.21725C64.3259 5.54359 64.4206 5.91033 64.4295 6.2833H60.5373C60.561 6.03776 60.6143 5.79845 60.7001 5.56535Z" fill="white"/>
<path d="M46.7951 4.79161C46.6412 4.22595 46.2949 3.7411 45.8213 3.42408C45.2826 3.10085 44.667 2.94545 44.0454 2.97342C43.2226 2.98585 42.4264 3.29355 41.79 3.84056C41.7219 3.43962 41.3934 3.14747 41.0056 3.14436H39.7211C39.6352 3.14436 39.5642 3.21895 39.5642 3.30909V11.1724C39.5642 11.2625 39.6352 11.3371 39.7211 11.3371H41.6894C41.7752 11.3371 41.8462 11.2625 41.8462 11.1724V5.70536C42.3198 5.26092 42.9295 5.00606 43.5659 4.98431C43.7405 4.9812 43.9122 5.00606 44.078 5.0589C44.2703 5.12106 44.4361 5.2547 44.5397 5.43808C44.6581 5.66807 44.7114 5.92603 44.6995 6.184V10.5104C44.6966 10.9734 45.0517 11.3464 45.4928 11.3495H45.4957H46.0285C46.2801 11.3495 46.5405 11.3495 46.8188 11.3495C46.8602 11.3495 46.9016 11.334 46.9312 11.3029C46.9608 11.2718 46.9756 11.2314 46.9756 11.1879V6.184C46.9845 5.71469 46.9253 5.24538 46.7951 4.79161Z" fill="white"/>
<path d="M19.5336 3.40204C19.5839 3.32745 19.5691 3.22488 19.4981 3.17205C19.4715 3.15029 19.4389 3.14097 19.4063 3.14097H17.2072C17.1569 3.14097 17.1095 3.16583 17.0799 3.20624L15.5023 5.42536L14.1171 3.47974C13.9662 3.26529 13.7294 3.14097 13.4748 3.14097H11.6161C11.5302 3.13786 11.4622 3.20934 11.4592 3.29948C11.4592 3.33677 11.471 3.37407 11.4918 3.40204L14.2059 7.23422L11.4858 11.0695C11.4326 11.141 11.4474 11.2467 11.5154 11.2995C11.5421 11.3213 11.5746 11.3337 11.6101 11.3337H13.7886C13.8389 11.3337 13.8833 11.3088 13.9129 11.2653L15.4964 9.04619L16.8846 10.9887C17.0355 11.2031 17.2753 11.3275 17.5269 11.3275H19.3945C19.4803 11.3275 19.5514 11.256 19.5543 11.1659C19.5543 11.1286 19.5425 11.0944 19.5218 11.0633L16.7987 7.228L19.5336 3.40204Z" fill="white"/>
</svg>
